SplineFontDB: 3.2
FontName: FiraSans-Bold
FullName: Fira Sans Bold
FamilyName: Fira Sans
Weight: Bold
Copyright: Digitized data copyright 2012-2016, The Mozilla Foundation and Telefonica S.A.
Version: 4.203
ItalicAngle: 0
UnderlinePosition: -100
UnderlineWidth: 50
Ascent: 800
Descent: 200
InvalidEm: 0
sfntRevision: 0x000433f7
LayerCount: 2
Layer: 0 1 "Back" 1
Layer: 1 1 "Fore" 0
XUID: [1021 88 689893386 16014193]
StyleMap: 0x0020
FSType: 0
OS2Version: 4
OS2_WeightWidthSlopeOnly: 0
OS2_UseTypoMetrics: 1
CreationTime: 1476947922
ModificationTime: 1480667555
PfmFamily: 17
TTFWeight: 700
TTFWidth: 5
LineGap: 0
VLineGap: 0
Panose: 2 11 8 3 5 0 0 2 0 4
OS2TypoAscent: 935
OS2TypoAOffset: 0
OS2TypoDescent: -265
OS2TypoDOffset: 0
OS2TypoLinegap: 0
OS2WinAscent: 935
OS2WinAOffset: 0
OS2WinDescent: 265
OS2WinDOffset: 0
HheadAscent: 935
HheadAOffset: 0
HheadDescent: -265
HheadDOffset: 0
OS2SubXSize: 650
OS2SubYSize: 600
OS2SubXOff: 0
OS2SubYOff: 75
OS2SupXSize: 650
OS2SupYSize: 600
OS2SupXOff: 0
OS2SupYOff: 350
OS2StrikeYSize: 50
OS2StrikeYPos: 318
OS2CapHeight: 693
OS2XHeight: 531
OS2Vendor: 'CTDB'
OS2CodePages: 2000019f.00000000
OS2UnicodeRanges: 600002ff.00000001.00000000.00000000
Lookup: 1 0 0 "'aalt' Access All Alternates lookup 0" { "'aalt' Access All Alternates lookup 0 subtable"  } ['aalt' ('DFLT' <'dflt' > 'cyrl' <'dflt' > 'grek' <'dflt' > 'latn' <'AFK ' 'AZE ' 'CAT ' 'CRT ' 'KAZ ' 'MOL ' 'PLK ' 'ROM ' 'TAT ' 'TRK ' 'dflt' > ) ]
Lookup: 3 0 0 "'aalt' Access All Alternates lookup 1" { "'aalt' Access All Alternates lookup 1 subtable"  } ['aalt' ('DFLT' <'dflt' > 'cyrl' <'dflt' > 'grek' <'dflt' > 'latn' <'AFK ' 'AZE ' 'CAT ' 'CRT ' 'KAZ ' 'MOL ' 'PLK ' 'ROM ' 'TAT ' 'TRK ' 'dflt' > ) ]
Lookup: 1 0 0 "'locl' Localized Forms in Latin lookup 2" { "'locl' Localized Forms in Latin lookup 2 subtable"  } ['locl' ('latn' <'TAT ' > ) ]
Lookup: 1 0 0 "'locl' Localized Forms in Latin lookup 3" { "'locl' Localized Forms in Latin lookup 3 subtable"  } ['locl' ('latn' <'TRK ' > ) ]

StartChar: .notdef
Encoding: 65536 -1 0
Width: 666
GlyphClass: 1
Flags: W
LayerCount: 2
Fore
SplineSet
543 1050 m 1,0,-1
 543 -350 l 1,1,-1
 123 -350 l 1,2,-1
 123 1050 l 1,3,-1
 543 1050 l 1,0,-1
489 998 m 1,4,-1
 178 998 l 1,5,-1
 178 -298 l 1,6,-1
 489 -298 l 1,7,-1
 489 998 l 1,4,-1
409.5 419 m 128,-1,9
 435 387 435 387 435 336 c 0,10,11
 435 283 435 283 412.5 254 c 128,-1,12
 390 225 390 225 340 218 c 1,13,-1
 340 173 l 2,14,15
 340 162 340 162 332.5 155.5 c 128,-1,16
 325 149 325 149 315 149 c 256,17,18
 305 149 305 149 297.5 155.5 c 128,-1,19
 290 162 290 162 290 173 c 2,20,-1
 290 257 l 1,21,22
 343 260 343 260 362 276.5 c 128,-1,23
 381 293 381 293 381 334 c 0,24,25
 381 367 381 367 368 385 c 128,-1,26
 355 403 355 403 320 403 c 0,27,28
 291 403 291 403 268 392 c 0,29,30
 260 389 260 389 255 389 c 0,31,32
 244 389 244 389 237.5 395.5 c 128,-1,33
 231 402 231 402 231 412 c 0,34,35
 231 431 231 431 260.5 441 c 128,-1,36
 290 451 290 451 324 451 c 0,37,8
 384 451 384 451 409.5 419 c 128,-1,9
340 110 m 128,-1,39
 350 100 350 100 350 85 c 0,40,41
 350 69 350 69 340 58.5 c 128,-1,42
 330 48 330 48 315 48 c 256,43,44
 300 48 300 48 290 58.5 c 128,-1,45
 280 69 280 69 280 85 c 0,46,47
 280 100 280 100 290 110 c 128,-1,48
 300 120 300 120 315 120 c 256,49,38
 330 120 330 120 340 110 c 128,-1,39
EndSplineSet
EndChar

StartChar: A
Encoding: 65 65 3
Width: 590
GlyphClass: 2
Flags: W
AnchorPoint: "Anchor-18" 0 0 basechar 0
AnchorPoint: "Anchor-17" 0 0 basechar 0
AnchorPoint: "Anchor-16" 296 693 basechar 0
AnchorPoint: "Anchor-15" 530 0 basechar 0
AnchorPoint: "Anchor-14" 296 0 basechar 0
LayerCount: 2
Fore
SplineSet
430 0 m 1,0,-1
 394 149 l 1,1,-1
 192 149 l 1,2,-1
 157 0 l 1,3,-1
 -13 0 l 1,4,-1
 196 693 l 1,5,-1
 395 693 l 1,6,-1
 604 0 l 1,7,-1
 430 0 l 1,0,-1
220 268 m 1,8,-1
 366 268 l 1,9,-1
 293 574 l 1,10,-1
 220 268 l 1,8,-1
EndSplineSet
Substitution2: "Single Substitution lookup 45 subtable" ordfeminine
Substitution2: "'c2sc' Capitals to Small Capitals lookup 26 subtable" a.sc
AlternateSubs2: "'aalt' Access All Alternates lookup 1 subtable" ordfeminine a.sc
Position2: "'cpsp' Capital Spacing lookup 0 subtable" dx=5 dy=0 dh=10 dv=0
EndChar

StartChar: uni2C6D
Encoding: 11373 11373 27
Width: 689
GlyphClass: 2
Flags: W
AnchorPoint: "Anchor-18" 0 0 basechar 0
AnchorPoint: "Anchor-17" 0 0 basechar 0
AnchorPoint: "Anchor-16" 344 693 basechar 0
AnchorPoint: "Anchor-15" 0 0 basechar 0
AnchorPoint: "Anchor-14" 344 0 basechar 0
LayerCount: 2
Fore
SplineSet
627 127.5 m 128,-1,1
 636 111 636 111 661 99 c 1,2,-1
 614 -17 l 1,3,4
 563 -8 563 -8 530.5 10 c 128,-1,5
 498 28 498 28 480 60 c 1,6,7
 413 -17 413 -17 306 -17 c 0,8,9
 225 -17 225 -17 163.5 24.5 c 128,-1,10
 102 66 102 66 67.5 145.5 c 128,-1,11
 33 225 33 225 33 335 c 0,12,13
 33 451 33 451 68.5 536 c 128,-1,14
 104 621 104 621 166.5 665.5 c 128,-1,15
 229 710 229 710 309 710 c 0,16,17
 401 710 401 710 468 641 c 1,18,-1
 478 693 l 1,19,-1
 618 693 l 1,20,-1
 618 179 l 2,21,0
 618 144 618 144 627 127.5 c 128,-1,1
454 151 m 1,23,-1
 454 539 l 1,24,25
 408 590 408 590 342 590 c 0,26,27
 274 590 274 590 239.5 530 c 128,-1,28
 205 470 205 470 205 335 c 0,29,30
 205 209 205 209 239.5 154.5 c 128,-1,31
 274 100 274 100 339 100 c 0,32,22
 408 100 408 100 454 151 c 1,23,-1
EndSplineSet
Substitution2: "'c2sc' Capitals to Small Capitals lookup 26 subtable" uni0251.sc
Substitution2: "'aalt' Access All Alternates lookup 0 subtable" uni0251.sc
Position2: "'cpsp' Capital Spacing lookup 0 subtable" dx=5 dy=0 dh=10 dv=0
EndChar

StartChar: Aogonek
Encoding: 260 260 29
Width: 590
GlyphClass: 2
Flags: W
AnchorPoint: "Anchor-18" 0 0 basechar 0
AnchorPoint: "Anchor-17" 0 0 basechar 0
AnchorPoint: "Anchor-16" 296 693 basechar 0
AnchorPoint: "Anchor-15" 530 0 basechar 0
AnchorPoint: "Anchor-14" 296 0 basechar 0
LayerCount: 2
Fore
SplineSet
402 -102 m 0,1,2
 402 -148 402 -148 455 -148 c 0,3,4
 479 -148 479 -148 516 -140 c 1,5,-1
 505 -238 l 1,6,7
 470 -246 470 -246 435 -246 c 0,8,9
 370 -246 370 -246 329 -214 c 128,-1,10
 288 -182 288 -182 288 -129 c 256,11,12
 288 -76 288 -76 323 -38 c 128,-1,13
 358 0 358 0 424 26 c 1,14,-1
 394 149 l 1,15,-1
 192 149 l 1,16,-1
 157 0 l 1,17,-1
 -13 0 l 1,18,-1
 196 693 l 1,19,-1
 395 693 l 1,20,-1
 604 0 l 1,21,-1
 520 0 l 1,22,0
 402 -44 402 -44 402 -102 c 0,1,2
220 268 m 1,23,-1
 366 268 l 1,24,-1
 293 574 l 1,25,-1
 220 268 l 1,23,-1
EndSplineSet
Substitution2: "'c2sc' Capitals to Small Capitals lookup 26 subtable" aogonek.sc
Substitution2: "'aalt' Access All Alternates lookup 0 subtable" aogonek.sc
Position2: "'cpsp' Capital Spacing lookup 0 subtable" dx=5 dy=0 dh=10 dv=0
EndChar

StartChar: uni023A
Encoding: 570 570 32
Width: 590
GlyphClass: 2
Flags: W
AnchorPoint: "Anchor-18" 0 0 basechar 0
AnchorPoint: "Anchor-17" 0 0 basechar 0
AnchorPoint: "Anchor-16" 295 693 basechar 0
AnchorPoint: "Anchor-15" 0 0 basechar 0
AnchorPoint: "Anchor-14" 295 0 basechar 0
LayerCount: 2
Fore
SplineSet
444 0 m 1,0,-1
 406 149 l 1,1,-1
 292 149 l 1,2,-1
 233 -74 l 1,3,-1
 175 -61 l 1,4,-1
 231 149 l 1,5,-1
 181 149 l 1,6,-1
 143 0 l 1,7,-1
 -13 0 l 1,8,-1
 196 693 l 1,9,-1
 374 693 l 1,10,-1
 391 756 l 1,11,-1
 448 742 l 1,12,-1
 416 622 l 1,13,-1
 604 0 l 1,14,-1
 444 0 l 1,0,-1
209 261 m 1,15,-1
 260 261 l 1,16,-1
 320 486 l 1,17,-1
 293 590 l 1,18,-1
 209 261 l 1,15,-1
321 261 m 1,19,-1
 377 261 l 1,20,-1
 350 369 l 1,21,-1
 321 261 l 1,19,-1
EndSplineSet
Substitution2: "'c2sc' Capitals to Small Capitals lookup 26 subtable" uni2C65.sc
Substitution2: "'aalt' Access All Alternates lookup 0 subtable" uni2C65.sc
Position2: "'cpsp' Capital Spacing lookup 0 subtable" dx=5 dy=0 dh=10 dv=0
EndChar

StartChar: AE
Encoding: 198 198 34
Width: 845
GlyphClass: 2
Flags: W
AnchorPoint: "Anchor-18" 0 0 basechar 0
AnchorPoint: "Anchor-17" 0 0 basechar 0
AnchorPoint: "Anchor-16" 483 693 basechar 0
AnchorPoint: "Anchor-15" 0 0 basechar 0
AnchorPoint: "Anchor-14" 423 0 basechar 0
LayerCount: 2
Fore
SplineSet
582 118 m 1,0,-1
 812 118 l 1,1,-1
 812 0 l 1,2,-1
 444 0 l 1,3,-1
 418 149 l 1,4,-1
 203 149 l 1,5,-1
 153 0 l 1,6,-1
 -23 0 l 1,7,-1
 249 693 l 1,8,-1
 775 693 l 1,9,-1
 758 576 l 1,10,-1
 488 576 l 1,11,-1
 522 408 l 1,12,-1
 766 408 l 1,13,-1
 766 293 l 1,14,-1
 546 293 l 1,15,-1
 582 118 l 1,0,-1
243 268 m 1,16,-1
 398 268 l 1,17,-1
 345 573 l 1,18,-1
 243 268 l 1,16,-1
EndSplineSet
Substitution2: "'c2sc' Capitals to Small Capitals lookup 26 subtable" ae.sc
Substitution2: "'aalt' Access All Alternates lookup 0 subtable" ae.sc
Position2: "'cpsp' Capital Spacing lookup 0 subtable" dx=5 dy=0 dh=10 dv=0
EndChar

StartChar: B
Encoding: 66 66 37
Width: 617
GlyphClass: 2
Flags: W
AnchorPoint: "Anchor-18" 0 0 basechar 0
AnchorPoint: "Anchor-17" 0 0 basechar 0
AnchorPoint: "Anchor-16" 295 693 basechar 0
AnchorPoint: "Anchor-15" 0 0 basechar 0
AnchorPoint: "Anchor-14" 310 0 basechar 0
LayerCount: 2
Fore
SplineSet
546.5 316 m 128,-1,1
 590 278 590 278 590 202 c 0,2,3
 590 91 590 91 510.5 45.5 c 128,-1,4
 431 0 431 0 288 0 c 2,5,-1
 65 0 l 1,6,-1
 65 693 l 1,7,-1
 261 693 l 2,8,9
 407 693 407 693 484 651.5 c 128,-1,10
 561 610 561 610 561 516 c 0,11,12
 561 455 561 455 524.5 417.5 c 128,-1,13
 488 380 488 380 434 367 c 1,14,0
 503 354 503 354 546.5 316 c 128,-1,1
229 577 m 1,15,-1
 229 416 l 1,16,-1
 290 416 l 2,17,18
 394 416 394 416 394 500 c 0,19,20
 394 542 394 542 366 559.5 c 128,-1,21
 338 577 338 577 277 577 c 2,22,-1
 229 577 l 1,15,-1
387.5 138.5 m 128,-1,24
 421 158 421 158 421 211 c 0,25,26
 421 307 421 307 301 307 c 2,27,-1
 229 307 l 1,28,-1
 229 119 l 1,29,-1
 289 119 l 2,30,23
 354 119 354 119 387.5 138.5 c 128,-1,24
EndSplineSet
Substitution2: "'c2sc' Capitals to Small Capitals lookup 26 subtable" b.sc
Substitution2: "'aalt' Access All Alternates lookup 0 subtable" b.sc
Position2: "'cpsp' Capital Spacing lookup 0 subtable" dx=5 dy=0 dh=10 dv=0
EndChar

StartChar: uniA7B4
Encoding: 42932 42932 40
Width: 617
GlyphClass: 2
Flags: W
AnchorPoint: "Anchor-18" 0 0 basechar 0
AnchorPoint: "Anchor-17" 0 0 basechar 0
AnchorPoint: "Anchor-16" 308 693 basechar 0
AnchorPoint: "Anchor-15" 0 0 basechar 0
AnchorPoint: "Anchor-14" 308 -210 basechar 0
LayerCount: 2
Fore
SplineSet
590 206 m 0,1,2
 590 98 590 98 516.5 49 c 128,-1,3
 443 0 443 0 331 0 c 0,4,5
 282 0 282 0 229 10 c 1,6,-1
 229 -210 l 1,7,-1
 65 -210 l 1,8,-1
 65 693 l 1,9,-1
 261 693 l 2,10,11
 407 693 407 693 484 651.5 c 128,-1,12
 561 610 561 610 561 516 c 0,13,14
 561 455 561 455 524.5 417.5 c 128,-1,15
 488 380 488 380 434 367 c 1,16,0
 590 337 590 337 590 206 c 0,1,2
391 142 m 128,-1,18
 421 165 421 165 421 216 c 0,19,20
 421 262 421 262 392 284.5 c 128,-1,21
 363 307 363 307 314 307 c 2,22,-1
 280 307 l 1,23,-1
 290 416 l 1,24,-1
 303 416 l 2,25,26
 344 416 344 416 369 436.5 c 128,-1,27
 394 457 394 457 394 497 c 0,28,29
 394 541 394 541 366 559 c 128,-1,30
 338 577 338 577 277 577 c 2,31,-1
 229 577 l 1,32,-1
 229 125 l 1,33,34
 268 119 268 119 309 119 c 0,35,17
 361 119 361 119 391 142 c 128,-1,18
EndSplineSet
Substitution2: "'c2sc' Capitals to Small Capitals lookup 26 subtable" uniA7B5.sc
Substitution2: "'aalt' Access All Alternates lookup 0 subtable" uniA7B5.sc
Position2: "'cpsp' Capital Spacing lookup 0 subtable" dx=5 dy=0 dh=10 dv=0
EndChar

StartChar: uni0181
Encoding: 385 385 41
Width: 758
GlyphClass: 2
Flags: W
AnchorPoint: "Anchor-18" 0 0 basechar 0
AnchorPoint: "Anchor-17" 0 0 basechar 0
AnchorPoint: "Anchor-16" 437 693 basechar 0
AnchorPoint: "Anchor-15" 0 0 basechar 0
AnchorPoint: "Anchor-14" 452 0 basechar 0
LayerCount: 2
Fore
SplineSet
688.5 316 m 128,-1,1
 732 278 732 278 732 202 c 0,2,3
 732 91 732 91 652.5 45.5 c 128,-1,4
 573 0 573 0 430 0 c 2,5,-1
 207 0 l 1,6,-1
 207 576 l 1,7,-1
 178 576 l 2,8,9
 156 576 156 576 144 565 c 128,-1,10
 132 554 132 554 132 534 c 0,11,12
 132 508 132 508 149 469 c 1,13,-1
 48 424 l 1,14,15
 28 454 28 454 16 483 c 128,-1,16
 4 512 4 512 4 544 c 0,17,18
 4 613 4 613 53.5 653 c 128,-1,19
 103 693 103 693 187 693 c 2,20,-1
 403 693 l 2,21,22
 549 693 549 693 626 651.5 c 128,-1,23
 703 610 703 610 703 516 c 0,24,25
 703 455 703 455 666.5 417.5 c 128,-1,26
 630 380 630 380 576 367 c 1,27,0
 645 354 645 354 688.5 316 c 128,-1,1
371 577 m 1,28,-1
 371 416 l 1,29,-1
 432 416 l 2,30,31
 536 416 536 416 536 500 c 0,32,33
 536 542 536 542 508 559.5 c 128,-1,34
 480 577 480 577 419 577 c 2,35,-1
 371 577 l 1,28,-1
529.5 138.5 m 128,-1,37
 563 158 563 158 563 211 c 0,38,39
 563 307 563 307 443 307 c 2,40,-1
 371 307 l 1,41,-1
 371 119 l 1,42,-1
 431 119 l 2,43,36
 496 119 496 119 529.5 138.5 c 128,-1,37
EndSplineSet
Substitution2: "'ss02' Style Set 2 lookup 34 subtable" uni0181.ss02
Substitution2: "'salt' Stylistic Alternatives lookup 32 subtable" uni0181.ss02
Substitution2: "'c2sc' Capitals to Small Capitals lookup 26 subtable" uni0253.sc
AlternateSubs2: "'aalt' Access All Alternates lookup 1 subtable" uni0253.sc uni0181.ss02
Position2: "'cpsp' Capital Spacing lookup 0 subtable" dx=5 dy=0 dh=10 dv=0
EndChar

StartChar: uni0243
Encoding: 579 579 43
Width: 631
GlyphClass: 2
Flags: W
AnchorPoint: "Anchor-18" 0 0 basechar 0
AnchorPoint: "Anchor-17" 0 0 basechar 0
AnchorPoint: "Anchor-16" 309 693 basechar 0
AnchorPoint: "Anchor-15" 0 0 basechar 0
AnchorPoint: "Anchor-14" 324 0 basechar 0
LayerCount: 2
Fore
SplineSet
560.5 316 m 128,-1,1
 604 278 604 278 604 202 c 0,2,3
 604 91 604 91 524.5 45.5 c 128,-1,4
 445 0 445 0 302 0 c 2,5,-1
 79 0 l 1,6,-1
 79 175 l 1,7,-1
 14 175 l 1,8,-1
 14 255 l 1,9,-1
 79 255 l 1,10,-1
 79 693 l 1,11,-1
 275 693 l 2,12,13
 421 693 421 693 498 651.5 c 128,-1,14
 575 610 575 610 575 516 c 0,15,16
 575 455 575 455 538.5 417.5 c 128,-1,17
 502 380 502 380 448 367 c 1,18,0
 517 354 517 354 560.5 316 c 128,-1,1
243 577 m 1,19,-1
 243 416 l 1,20,-1
 304 416 l 2,21,22
 408 416 408 416 408 500 c 0,23,24
 408 542 408 542 380 559.5 c 128,-1,25
 352 577 352 577 291 577 c 2,26,-1
 243 577 l 1,19,-1
401.5 138.5 m 128,-1,28
 435 158 435 158 435 211 c 0,29,30
 435 307 435 307 315 307 c 2,31,-1
 243 307 l 1,32,-1
 243 255 l 1,33,-1
 358 255 l 1,34,-1
 358 175 l 1,35,-1
 243 175 l 1,36,-1
 243 119 l 1,37,-1
 303 119 l 2,38,27
 368 119 368 119 401.5 138.5 c 128,-1,28
EndSplineSet
Substitution2: "'c2sc' Capitals to Small Capitals lookup 26 subtable" uni0180.sc
Substitution2: "'aalt' Access All Alternates lookup 0 subtable" uni0180.sc
Position2: "'cpsp' Capital Spacing lookup 0 subtable" dx=5 dy=0 dh=10 dv=0
EndChar

StartChar: C
Encoding: 67 67 45
Width: 575
GlyphClass: 2
Flags: W
AnchorPoint: "Anchor-18" 362 351 basechar 0
AnchorPoint: "Anchor-17" 0 0 basechar 0
AnchorPoint: "Anchor-16" 354 693 basechar 0
AnchorPoint: "Anchor-15" 0 0 basechar 0
AnchorPoint: "Anchor-14" 342 0 basechar 0
LayerCount: 2
Fore
SplineSet
463.5 691 m 128,-1,1
 514 672 514 672 559 634 c 1,2,-1
 481 541 l 1,3,4
 450 565 450 565 420 577 c 128,-1,5
 390 589 390 589 356 589 c 0,6,7
 286 589 286 589 245.5 530 c 128,-1,8
 205 471 205 471 205 348 c 0,9,10
 205 227 205 227 245.5 168.5 c 128,-1,11
 286 110 286 110 358 110 c 0,12,13
 396 110 396 110 427 124.5 c 128,-1,14
 458 139 458 139 494 166 c 1,15,-1
 567 72 l 1,16,17
 528 33 528 33 472.5 8 c 128,-1,18
 417 -17 417 -17 350 -17 c 0,19,20
 254 -17 254 -17 183 25 c 128,-1,21
 112 67 112 67 72.5 149.5 c 128,-1,22
 33 232 33 232 33 348 c 0,23,24
 33 461 33 461 73.5 543 c 128,-1,25
 114 625 114 625 185.5 667.5 c 128,-1,26
 257 710 257 710 348 710 c 0,27,0
 413 710 413 710 463.5 691 c 128,-1,1
EndSplineSet
Substitution2: "'c2sc' Capitals to Small Capitals lookup 26 subtable" c.sc
Substitution2: "'aalt' Access All Alternates lookup 0 subtable" c.sc
Position2: "'cpsp' Capital Spacing lookup 0 subtable" dx=5 dy=0 dh=10 dv=0
EndChar

StartChar: Ccedilla
Encoding: 199 199 49
Width: 575
GlyphClass: 2
Flags: W
AnchorPoint: "Anchor-18" 362 351 basechar 0
AnchorPoint: "Anchor-17" 0 0 basechar 0
AnchorPoint: "Anchor-16" 354 693 basechar 0
AnchorPoint: "Anchor-15" 0 0 basechar 0
AnchorPoint: "Anchor-14" 359 -262 basechar 0
LayerCount: 2
Fore
SplineSet
461.5 -79.5 m 128,-1,1
 487 -105 487 -105 487 -147 c 0,2,3
 487 -198 487 -198 446.5 -230 c 128,-1,4
 406 -262 406 -262 338 -262 c 0,5,6
 304 -262 304 -262 275 -253.5 c 128,-1,7
 246 -245 246 -245 226 -232 c 1,8,-1
 262 -159 l 1,9,10
 296 -176 296 -176 326 -176 c 0,11,12
 373 -176 373 -176 373 -146 c 0,13,14
 373 -128 373 -128 351 -120 c 128,-1,15
 329 -112 329 -112 281 -112 c 1,16,-1
 293 -13 l 1,17,18
 172 5 172 5 102.5 98.5 c 128,-1,19
 33 192 33 192 33 348 c 0,20,21
 33 461 33 461 73.5 543 c 128,-1,22
 114 625 114 625 185.5 667.5 c 128,-1,23
 257 710 257 710 348 710 c 0,24,25
 413 710 413 710 463.5 691 c 128,-1,26
 514 672 514 672 559 634 c 1,27,-1
 481 541 l 1,28,29
 450 565 450 565 420 577 c 128,-1,30
 390 589 390 589 356 589 c 0,31,32
 286 589 286 589 245.5 530 c 128,-1,33
 205 471 205 471 205 348 c 0,34,35
 205 227 205 227 245.5 168.5 c 128,-1,36
 286 110 286 110 358 110 c 0,37,38
 396 110 396 110 427 124.5 c 128,-1,39
 458 139 458 139 494 166 c 1,40,-1
 567 72 l 1,41,42
 533 38 533 38 486 14.5 c 128,-1,43
 439 -9 439 -9 383 -15 c 1,44,-1
 383 -48 l 1,45,0
 436 -54 436 -54 461.5 -79.5 c 128,-1,1
EndSplineSet
Substitution2: "'c2sc' Capitals to Small Capitals lookup 26 subtable" ccedilla.sc
Substitution2: "'aalt' Access All Alternates lookup 0 subtable" ccedilla.sc
Position2: "'cpsp' Capital Spacing lookup 0 subtable" dx=5 dy=0 dh=10 dv=0
EndChar

StartChar: uniA7B3
Encoding: 42931 42931 52
Width: 572
GlyphClass: 2
Flags: W
AnchorPoint: "Anchor-18" 0 0 basechar 0
AnchorPoint: "Anchor-17" 0 0 basechar 0
AnchorPoint: "Anchor-16" 286 693 basechar 0
AnchorPoint: "Anchor-15" 0 0 basechar 0
AnchorPoint: "Anchor-14" 286 -210 basechar 0
LayerCount: 2
Fore
SplineSet
381 295 m 1,0,-1
 576 -161 l 1,1,-1
 397 -161 l 1,2,-1
 282 185 l 1,3,-1
 170 -161 l 1,4,-1
 -4 -161 l 1,5,-1
 185 290 l 1,6,-1
 11 693 l 1,7,-1
 189 693 l 1,8,-1
 284 392 l 1,9,-1
 385 693 l 1,10,-1
 559 693 l 1,11,-1
 381 295 l 1,0,-1
EndSplineSet
Substitution2: "'c2sc' Capitals to Small Capitals lookup 26 subtable" uniAB53.sc
Substitution2: "'aalt' Access All Alternates lookup 0 subtable" uniAB53.sc
Position2: "'cpsp' Capital Spacing lookup 0 subtable" dx=5 dy=0 dh=10 dv=0
EndChar

StartChar: uni0187
Encoding: 391 391 53
Width: 575
GlyphClass: 2
Flags: W
AnchorPoint: "Anchor-18" 0 0 basechar 0
AnchorPoint: "Anchor-17" 0 0 basechar 0
AnchorPoint: "Anchor-16" 269 723 basechar 0
AnchorPoint: "Anchor-15" 0 0 basechar 0
AnchorPoint: "Anchor-14" 287 0 basechar 0
LayerCount: 2
Fore
SplineSet
725 814 m 1,1,-1
 679 716 l 1,2,3
 660 726 660 726 644.5 730.5 c 128,-1,4
 629 735 629 735 611 735 c 0,5,6
 559 735 559 735 559 673 c 2,7,-1
 559 634 l 1,8,-1
 489 550 l 1,9,10
 457 569 457 569 425 579 c 128,-1,11
 393 589 393 589 355 589 c 0,12,13
 286 589 286 589 245.5 529.5 c 128,-1,14
 205 470 205 470 205 348 c 0,15,16
 205 227 205 227 245.5 168.5 c 128,-1,17
 286 110 286 110 358 110 c 0,18,19
 395 110 395 110 425.5 125 c 128,-1,20
 456 140 456 140 493 168 c 1,21,-1
 567 72 l 1,22,23
 529 34 529 34 473 8.5 c 128,-1,24
 417 -17 417 -17 350 -17 c 0,25,26
 254 -17 254 -17 183 25 c 128,-1,27
 112 67 112 67 72.5 149.5 c 128,-1,28
 33 232 33 232 33 348 c 0,29,30
 33 460 33 460 73 542 c 128,-1,31
 113 624 113 624 181 667 c 128,-1,32
 249 710 249 710 329 710 c 0,33,34
 380 710 380 710 420 694 c 1,35,36
 424 769 424 769 466.5 810 c 128,-1,37
 509 851 509 851 590 851 c 0,38,0
 666 851 666 851 725 814 c 1,1,-1
EndSplineSet
Substitution2: "'c2sc' Capitals to Small Capitals lookup 26 subtable" uni0188.sc
Substitution2: "'aalt' Access All Alternates lookup 0 subtable" uni0188.sc
Position2: "'cpsp' Capital Spacing lookup 0 subtable" dx=5 dy=0 dh=10 dv=0
EndChar

StartChar: uni023B
Encoding: 571 571 54
Width: 575
GlyphClass: 2
Flags: W
AnchorPoint: "Anchor-18" 362 351 basechar 0
AnchorPoint: "Anchor-17" 0 0 basechar 0
AnchorPoint: "Anchor-16" 287 693 basechar 0
AnchorPoint: "Anchor-15" 0 0 basechar 0
AnchorPoint: "Anchor-14" 287 0 basechar 0
LayerCount: 2
Fore
SplineSet
472.5 8 m 128,-1,1
 417 -17 417 -17 350 -17 c 0,2,3
 309 -17 309 -17 275 -10 c 1,4,-1
 258 -74 l 1,5,-1
 200 -61 l 1,6,-1
 218 8 l 1,7,8
 131 44 131 44 82 131 c 128,-1,9
 33 218 33 218 33 348 c 0,10,11
 33 461 33 461 73.5 543 c 128,-1,12
 114 625 114 625 185.5 667.5 c 128,-1,13
 257 710 257 710 348 710 c 0,14,15
 380 710 380 710 404 706 c 1,16,-1
 417 756 l 1,17,-1
 474 742 l 1,18,-1
 461 692 l 1,19,20
 514 673 514 673 559 634 c 1,21,-1
 481 541 l 1,22,23
 453 562 453 562 429 573 c 1,24,-1
 309 118 l 1,25,26
 333 110 333 110 358 110 c 0,27,28
 396 110 396 110 427 124.5 c 128,-1,29
 458 139 458 139 494 166 c 1,30,-1
 567 72 l 1,31,0
 528 33 528 33 472.5 8 c 128,-1,1
257 154 m 1,33,-1
 372 588 l 1,34,35
 367 589 367 589 356 589 c 0,36,37
 286 589 286 589 245.5 530 c 128,-1,38
 205 471 205 471 205 348 c 0,39,32
 205 212 205 212 257 154 c 1,33,-1
EndSplineSet
Substitution2: "'c2sc' Capitals to Small Capitals lookup 26 subtable" uni023C.sc
Substitution2: "'aalt' Access All Alternates lookup 0 subtable" uni023C.sc
Position2: "'cpsp' Capital Spacing lookup 0 subtable" dx=5 dy=0 dh=10 dv=0
EndChar

StartChar: D
Encoding: 68 68 55
Width: 651
GlyphClass: 2
Flags: W
AnchorPoint: "Anchor-18" 326 347 basechar 0
AnchorPoint: "Anchor-17" 0 0 basechar 0
AnchorPoint: "Anchor-16" 296 693 basechar 0
AnchorPoint: "Anchor-15" 0 0 basechar 0
AnchorPoint: "Anchor-14" 306 0 basechar 0
LayerCount: 2
Fore
SplineSet
519.5 619.5 m 128,-1,1
 618 546 618 546 618 350 c 0,2,3
 618 157 618 157 522 78.5 c 128,-1,4
 426 0 426 0 273 0 c 2,5,-1
 65 0 l 1,6,-1
 65 693 l 1,7,-1
 258 693 l 2,8,0
 421 693 421 693 519.5 619.5 c 128,-1,1
229 574 m 1,9,-1
 229 119 l 1,10,-1
 283 119 l 2,11,12
 364 119 364 119 406 169.5 c 128,-1,13
 448 220 448 220 448 350 c 0,14,15
 448 439 448 439 427 488 c 128,-1,16
 406 537 406 537 370 555.5 c 128,-1,17
 334 574 334 574 281 574 c 2,18,-1
 229 574 l 1,9,-1
EndSplineSet
Substitution2: "'c2sc' Capitals to Small Capitals lookup 26 subtable" d.sc
Substitution2: "'aalt' Access All Alternates lookup 0 subtable" d.sc
Position2: "'cpsp' Capital Spacing lookup 0 subtable" dx=5 dy=0 dh=10 dv=0
EndChar

StartChar: Eth
Encoding: 208 208 59
Width: 665
GlyphClass: 2
Flags: W
AnchorPoint: "Anchor-18" 340 347 basechar 0
AnchorPoint: "Anchor-17" 0 0 basechar 0
AnchorPoint: "Anchor-16" 310 693 basechar 0
AnchorPoint: "Anchor-15" 0 0 basechar 0
AnchorPoint: "Anchor-14" 320 0 basechar 0
LayerCount: 2
Fore
SplineSet
533.5 619.5 m 128,-1,1
 632 546 632 546 632 350 c 0,2,3
 632 157 632 157 536 78.5 c 128,-1,4
 440 0 440 0 287 0 c 2,5,-1
 79 0 l 1,6,-1
 79 304 l 1,7,-1
 14 304 l 1,8,-1
 14 402 l 1,9,-1
 79 402 l 1,10,-1
 79 693 l 1,11,-1
 272 693 l 2,12,0
 435 693 435 693 533.5 619.5 c 128,-1,1
420 169.5 m 128,-1,14
 462 220 462 220 462 350 c 0,15,16
 462 439 462 439 441 488 c 128,-1,17
 420 537 420 537 384 555.5 c 128,-1,18
 348 574 348 574 295 574 c 2,19,-1
 243 574 l 1,20,-1
 243 402 l 1,21,-1
 377 402 l 1,22,-1
 377 304 l 1,23,-1
 243 304 l 1,24,-1
 243 119 l 1,25,-1
 297 119 l 2,26,13
 378 119 378 119 420 169.5 c 128,-1,14
EndSplineSet
Substitution2: "'c2sc' Capitals to Small Capitals lookup 26 subtable" eth.sc
Substitution2: "'aalt' Access All Alternates lookup 0 subtable" eth.sc
Position2: "'cpsp' Capital Spacing lookup 0 subtable" dx=5 dy=0 dh=10 dv=0
EndChar

StartChar: uni018A
Encoding: 394 394 65
Width: 793
GlyphClass: 2
Flags: W
AnchorPoint: "Anchor-18" 468 347 basechar 0
AnchorPoint: "Anchor-17" 0 0 basechar 0
AnchorPoint: "Anchor-16" 438 693 basechar 0
AnchorPoint: "Anchor-15" 0 0 basechar 0
AnchorPoint: "Anchor-14" 448 0 basechar 0
LayerCount: 2
Fore
SplineSet
661.5 619.5 m 128,-1,1
 760 546 760 546 760 350 c 0,2,3
 760 157 760 157 664 78.5 c 128,-1,4
 568 0 568 0 415 0 c 2,5,-1
 207 0 l 1,6,-1
 207 576 l 1,7,-1
 178 576 l 2,8,9
 156 576 156 576 144 565 c 128,-1,10
 132 554 132 554 132 534 c 0,11,12
 132 508 132 508 149 469 c 1,13,-1
 48 424 l 1,14,15
 28 454 28 454 16 483 c 128,-1,16
 4 512 4 512 4 544 c 0,17,18
 4 613 4 613 53.5 653 c 128,-1,19
 103 693 103 693 187 693 c 2,20,-1
 400 693 l 2,21,0
 563 693 563 693 661.5 619.5 c 128,-1,1
548 169.5 m 128,-1,23
 590 220 590 220 590 350 c 0,24,25
 590 439 590 439 569 488 c 128,-1,26
 548 537 548 537 512 555.5 c 128,-1,27
 476 574 476 574 423 574 c 2,28,-1
 371 574 l 1,29,-1
 371 119 l 1,30,-1
 425 119 l 2,31,22
 506 119 506 119 548 169.5 c 128,-1,23
EndSplineSet
Substitution2: "'c2sc' Capitals to Small Capitals lookup 26 subtable" uni0257.sc
Substitution2: "'aalt' Access All Alternates lookup 0 subtable" uni0257.sc
Position2: "'cpsp' Capital Spacing lookup 0 subtable" dx=5 dy=0 dh=10 dv=0
EndChar

StartChar: uni018B
Encoding: 395 395 67
Width: 596
GlyphClass: 2
Flags: W
AnchorPoint: "Anchor-18" 0 0 basechar 0
AnchorPoint: "Anchor-17" 0 0 basechar 0
AnchorPoint: "Anchor-16" 298 693 basechar 0
AnchorPoint: "Anchor-15" 0 0 basechar 0
AnchorPoint: "Anchor-14" 298 0 basechar 0
LayerCount: 2
Fore
SplineSet
531 0 m 1,0,-1
 284 0 l 2,1,2
 162 0 162 0 90 55.5 c 128,-1,3
 18 111 18 111 18 223 c 0,4,5
 18 330 18 330 90.5 388 c 128,-1,6
 163 446 163 446 293 446 c 2,7,-1
 367 446 l 1,8,-1
 367 569 l 1,9,-1
 105 569 l 1,10,-1
 105 693 l 1,11,-1
 531 693 l 1,12,-1
 531 0 l 1,0,-1
367 119 m 1,13,-1
 367 332 l 1,14,-1
 307 332 l 2,15,16
 189 332 189 332 189 223 c 0,17,18
 189 119 189 119 303 119 c 2,19,-1
 367 119 l 1,13,-1
EndSplineSet
Substitution2: "'c2sc' Capitals to Small Capitals lookup 26 subtable" uni018C.sc
Substitution2: "'aalt' Access All Alternates lookup 0 subtable" uni018C.sc
Position2: "'cpsp' Capital Spacing lookup 0 subtable" dx=5 dy=0 dh=10 dv=0
EndChar

StartChar: E
Encoding: 69 69 70
Width: 526
GlyphClass: 2
Flags: W
AnchorPoint: "Anchor-18" 0 0 basechar 0
AnchorPoint: "Anchor-17" 0 0 basechar 0
AnchorPoint: "Anchor-16" 279 693 basechar 0
AnchorPoint: "Anchor-15" 460 0 basechar 0
AnchorPoint: "Anchor-14" 277 0 basechar 0
LayerCount: 2
Fore
SplineSet
490 693 m 1,0,-1
 473 576 l 1,1,-1
 229 576 l 1,2,-1
 229 410 l 1,3,-1
 442 410 l 1,4,-1
 442 295 l 1,5,-1
 229 295 l 1,6,-1
 229 118 l 1,7,-1
 490 118 l 1,8,-1
 490 0 l 1,9,-1
 65 0 l 1,10,-1
 65 693 l 1,11,-1
 490 693 l 1,0,-1
EndSplineSet
Substitution2: "'c2sc' Capitals to Small Capitals lookup 26 subtable" e.sc
Substitution2: "'aalt' Access All Alternates lookup 0 subtable" e.sc
Position2: "'cpsp' Capital Spacing lookup 0 subtable" dx=5 dy=0 dh=10 dv=0
EndChar

StartChar: uni0228
Encoding: 552 552 74
Width: 526
GlyphClass: 2
Flags: W
AnchorPoint: "Anchor-18" 0 0 basechar 0
AnchorPoint: "Anchor-17" 0 0 basechar 0
AnchorPoint: "Anchor-16" 279 693 basechar 0
AnchorPoint: "Anchor-15" 460 0 basechar 0
AnchorPoint: "Anchor-14" 277 0 basechar 0
LayerCount: 2
Fore
SplineSet
229 118 m 1,0,-1
 490 118 l 1,1,-1
 490 0 l 1,2,-1
 318 0 l 1,3,-1
 318 -48 l 1,4,5
 371 -54 371 -54 396.5 -79.5 c 128,-1,6
 422 -105 422 -105 422 -147 c 0,7,8
 422 -198 422 -198 381.5 -230 c 128,-1,9
 341 -262 341 -262 273 -262 c 0,10,11
 239 -262 239 -262 210 -253.5 c 128,-1,12
 181 -245 181 -245 161 -232 c 1,13,-1
 197 -159 l 1,14,15
 231 -176 231 -176 261 -176 c 0,16,17
 308 -176 308 -176 308 -146 c 0,18,19
 308 -128 308 -128 286 -120 c 128,-1,20
 264 -112 264 -112 216 -112 c 1,21,-1
 229 0 l 1,22,-1
 65 0 l 1,23,-1
 65 693 l 1,24,-1
 490 693 l 1,25,-1
 473 576 l 1,26,-1
 229 576 l 1,27,-1
 229 410 l 1,28,-1
 442 410 l 1,29,-1
 442 295 l 1,30,-1
 229 295 l 1,31,-1
 229 118 l 1,0,-1
EndSplineSet
Substitution2: "'c2sc' Capitals to Small Capitals lookup 26 subtable" uni0229.sc
Substitution2: "'aalt' Access All Alternates lookup 0 subtable" uni0229.sc
Position2: "'cpsp' Capital Spacing lookup 0 subtable" dx=5 dy=0 dh=10 dv=0
EndChar

StartChar: Eogonek
Encoding: 280 280 89
Width: 526
GlyphClass: 2
Flags: W
AnchorPoint: "Anchor-18" 0 0 basechar 0
AnchorPoint: "Anchor-17" 0 0 basechar 0
AnchorPoint: "Anchor-16" 279 693 basechar 0
AnchorPoint: "Anchor-15" 460 0 basechar 0
AnchorPoint: "Anchor-14" 277 0 basechar 0
LayerCount: 2
Fore
SplineSet
229 118 m 1,0,-1
 490 118 l 1,1,-1
 490 0 l 1,2,-1
 450 0 l 1,3,4
 332 -44 332 -44 332 -102 c 0,5,6
 332 -148 332 -148 385 -148 c 0,7,8
 409 -148 409 -148 446 -140 c 1,9,-1
 435 -238 l 1,10,11
 400 -246 400 -246 365 -246 c 0,12,13
 300 -246 300 -246 259 -214 c 128,-1,14
 218 -182 218 -182 218 -129 c 0,15,16
 218 -49 218 -49 300 0 c 1,17,-1
 65 0 l 1,18,-1
 65 693 l 1,19,-1
 490 693 l 1,20,-1
 473 576 l 1,21,-1
 229 576 l 1,22,-1
 229 410 l 1,23,-1
 442 410 l 1,24,-1
 442 295 l 1,25,-1
 229 295 l 1,26,-1
 229 118 l 1,0,-1
EndSplineSet
Substitution2: "'c2sc' Capitals to Small Capitals lookup 26 subtable" eogonek.sc
Substitution2: "'aalt' Access All Alternates lookup 0 subtable" eogonek.sc
Position2: "'cpsp' Capital Spacing lookup 0 subtable" dx=5 dy=0 dh=10 dv=0
EndChar

StartChar: uni0190
Encoding: 400 400 90
Width: 541
GlyphClass: 2
Flags: W
AnchorPoint: "Anchor-18" 0 0 basechar 0
AnchorPoint: "Anchor-17" 0 0 basechar 0
AnchorPoint: "Anchor-16" 271 693 basechar 0
AnchorPoint: "Anchor-15" 0 0 basechar 0
AnchorPoint: "Anchor-14" 271 0 basechar 0
LayerCount: 2
Fore
SplineSet
417.5 687 m 128,-1,1
 474 664 474 664 523 618 c 1,2,-1
 444 535 l 1,3,4
 381 591 381 591 310 591 c 0,5,6
 261 591 261 591 238.5 569 c 128,-1,7
 216 547 216 547 216 510 c 0,8,9
 216 469 216 469 243 446.5 c 128,-1,10
 270 424 270 424 319 424 c 2,11,-1
 395 424 l 1,12,-1
 375 306 l 1,13,-1
 322 306 l 2,14,15
 260 306 260 306 229 279.5 c 128,-1,16
 198 253 198 253 198 205 c 256,17,18
 198 157 198 157 229 130.5 c 128,-1,19
 260 104 260 104 315 104 c 0,20,21
 356 104 356 104 389.5 119 c 128,-1,22
 423 134 423 134 456 166 c 1,23,-1
 543 80 l 1,24,25
 452 -17 452 -17 299 -17 c 0,26,27
 220 -17 220 -17 158 9 c 128,-1,28
 96 35 96 35 61 83.5 c 128,-1,29
 26 132 26 132 26 195 c 0,30,31
 26 271 26 271 72.5 315 c 128,-1,32
 119 359 119 359 202 368 c 1,33,34
 126 383 126 383 86.5 425 c 128,-1,35
 47 467 47 467 47 528 c 0,36,37
 47 580 47 580 77.5 621.5 c 128,-1,38
 108 663 108 663 163 686.5 c 128,-1,39
 218 710 218 710 291 710 c 0,40,0
 361 710 361 710 417.5 687 c 128,-1,1
EndSplineSet
Substitution2: "'c2sc' Capitals to Small Capitals lookup 26 subtable" uni025B.sc
Substitution2: "'aalt' Access All Alternates lookup 0 subtable" uni025B.sc
Position2: "'cpsp' Capital Spacing lookup 0 subtable" dx=5 dy=0 dh=10 dv=0
EndChar

StartChar: uni018E
Encoding: 398 398 91
Width: 526
GlyphClass: 2
Flags: W
AnchorPoint: "Anchor-18" 0 0 basechar 0
AnchorPoint: "Anchor-17" 0 0 basechar 0
AnchorPoint: "Anchor-16" 238 693 basechar 0
AnchorPoint: "Anchor-15" 0 0 basechar 0
AnchorPoint: "Anchor-14" 236 0 basechar 0
LayerCount: 2
Fore
SplineSet
41 693 m 1,0,-1
 461 693 l 1,1,-1
 461 0 l 1,2,-1
 36 0 l 1,3,-1
 36 118 l 1,4,-1
 297 118 l 1,5,-1
 297 295 l 1,6,-1
 84 295 l 1,7,-1
 84 410 l 1,8,-1
 297 410 l 1,9,-1
 297 576 l 1,10,-1
 41 576 l 1,11,-1
 41 693 l 1,0,-1
EndSplineSet
Substitution2: "'c2sc' Capitals to Small Capitals lookup 26 subtable" uni0258.sc
Substitution2: "'aalt' Access All Alternates lookup 0 subtable" uni0258.sc
Position2: "'cpsp' Capital Spacing lookup 0 subtable" dx=5 dy=0 dh=10 dv=0
EndChar

StartChar: uni0246
Encoding: 582 582 93
Width: 526
GlyphClass: 2
Flags: W
AnchorPoint: "Anchor-18" 0 0 basechar 0
AnchorPoint: "Anchor-17" 0 0 basechar 0
AnchorPoint: "Anchor-16" 263 693 basechar 0
AnchorPoint: "Anchor-15" 460 0 basechar 0
AnchorPoint: "Anchor-14" 263 0 basechar 0
LayerCount: 2
Fore
SplineSet
337 295 m 1,0,-1
 290 118 l 1,1,-1
 490 118 l 1,2,-1
 490 0 l 1,3,-1
 259 0 l 1,4,-1
 239 -74 l 1,5,-1
 181 -61 l 1,6,-1
 197 0 l 1,7,-1
 65 0 l 1,8,-1
 65 693 l 1,9,-1
 380 693 l 1,10,-1
 397 756 l 1,11,-1
 455 742 l 1,12,-1
 442 693 l 1,13,-1
 490 693 l 1,14,-1
 473 576 l 1,15,-1
 411 576 l 1,16,-1
 367 410 l 1,17,-1
 442 410 l 1,18,-1
 442 295 l 1,19,-1
 337 295 l 1,0,-1
229 576 m 1,20,-1
 229 410 l 1,21,-1
 306 410 l 1,22,-1
 349 576 l 1,23,-1
 229 576 l 1,20,-1
229 295 m 1,24,-1
 229 121 l 1,25,-1
 275 295 l 1,26,-1
 229 295 l 1,24,-1
EndSplineSet
Substitution2: "'c2sc' Capitals to Small Capitals lookup 26 subtable" uni0247.sc
Substitution2: "'aalt' Access All Alternates lookup 0 subtable" uni0247.sc
Position2: "'cpsp' Capital Spacing lookup 0 subtable" dx=5 dy=0 dh=10 dv=0
EndChar

StartChar: uni01B7
Encoding: 439 439 95
Width: 547
GlyphClass: 2
Flags: W
AnchorPoint: "Anchor-18" 0 0 basechar 0
AnchorPoint: "Anchor-17" 0 0 basechar 0
AnchorPoint: "Anchor-16" 265 693 basechar 0
AnchorPoint: "Anchor-15" 0 0 basechar 0
AnchorPoint: "Anchor-14" 273 0 basechar 0
LayerCount: 2
Fore
SplineSet
465 347 m 128,-1,1
 520 295 520 295 520 205 c 0,2,3
 520 142 520 142 487 91.5 c 128,-1,4
 454 41 454 41 391.5 12 c 128,-1,5
 329 -17 329 -17 243 -17 c 0,6,7
 162 -17 162 -17 104 9 c 128,-1,8
 46 35 46 35 4 85 c 1,9,-1
 88 167 l 1,10,11
 123 134 123 134 156.5 119.5 c 128,-1,12
 190 105 190 105 235 105 c 0,13,14
 290 105 290 105 320.5 133 c 128,-1,15
 351 161 351 161 351 212 c 0,16,17
 351 308 351 308 226 308 c 2,18,-1
 127 308 l 1,19,-1
 127 400 l 1,20,-1
 304 574 l 1,21,-1
 43 574 l 1,22,-1
 43 693 l 1,23,-1
 485 693 l 1,24,-1
 485 578 l 1,25,-1
 307 403 l 1,26,0
 410 399 410 399 465 347 c 128,-1,1
EndSplineSet
Substitution2: "'c2sc' Capitals to Small Capitals lookup 26 subtable" uni0292.sc
Substitution2: "'aalt' Access All Alternates lookup 0 subtable" uni0292.sc
Position2: "'cpsp' Capital Spacing lookup 0 subtable" dx=5 dy=0 dh=10 dv=0
EndChar

StartChar: uni01B8
Encoding: 440 440 97
Width: 547
GlyphClass: 2
Flags: W
AnchorPoint: "Anchor-18" 0 0 basechar 0
AnchorPoint: "Anchor-17" 0 0 basechar 0
AnchorPoint: "Anchor-16" 273 693 basechar 0
AnchorPoint: "Anchor-15" 0 0 basechar 0
AnchorPoint: "Anchor-14" 273 0 basechar 0
LayerCount: 2
Fore
SplineSet
543 85 m 1,0,1
 499 35 499 35 439.5 9 c 128,-1,2
 380 -17 380 -17 296 -17 c 0,3,4
 214 -17 214 -17 152.5 11.5 c 128,-1,5
 91 40 91 40 58.5 89.5 c 128,-1,6
 26 139 26 139 26 203 c 0,7,8
 26 290 26 290 83.5 344.5 c 128,-1,9
 141 399 141 399 240 403 c 1,10,-1
 62 578 l 1,11,-1
 62 693 l 1,12,-1
 503 693 l 1,13,-1
 503 574 l 1,14,-1
 245 574 l 1,15,-1
 420 398 l 1,16,-1
 420 308 l 1,17,-1
 320 308 l 2,18,19
 259 308 259 308 227.5 281.5 c 128,-1,20
 196 255 196 255 196 205 c 0,21,22
 196 158 196 158 225 131.5 c 128,-1,23
 254 105 254 105 305 105 c 0,24,25
 353 105 353 105 388.5 119.5 c 128,-1,26
 424 134 424 134 458 167 c 1,27,-1
 543 85 l 1,0,1
EndSplineSet
Substitution2: "'c2sc' Capitals to Small Capitals lookup 26 subtable" uni01B9.sc
Substitution2: "'aalt' Access All Alternates lookup 0 subtable" uni01B9.sc
Position2: "'cpsp' Capital Spacing lookup 0 subtable" dx=5 dy=0 dh=10 dv=0
EndChar

StartChar: F
Encoding: 70 70 98
Width: 487
GlyphClass: 2
Flags: W
AnchorPoint: "Anchor-18" 0 0 basechar 0
AnchorPoint: "Anchor-17" 0 0 basechar 0
AnchorPoint: "Anchor-16" 281 693 basechar 0
AnchorPoint: "Anchor-15" 0 0 basechar 0
AnchorPoint: "Anchor-14" 147 0 basechar 0
LayerCount: 2
Fore
SplineSet
65 0 m 1,0,-1
 65 693 l 1,1,-1
 478 693 l 1,2,-1
 461 576 l 1,3,-1
 229 576 l 1,4,-1
 229 392 l 1,5,-1
 431 392 l 1,6,-1
 431 275 l 1,7,-1
 229 275 l 1,8,-1
 229 0 l 1,9,-1
 65 0 l 1,0,-1
EndSplineSet
Substitution2: "'c2sc' Capitals to Small Capitals lookup 26 subtable" f.sc
Substitution2: "'aalt' Access All Alternates lookup 0 subtable" f.sc
Position2: "'cpsp' Capital Spacing lookup 0 subtable" dx=5 dy=0 dh=10 dv=0
EndChar

StartChar: uni0191
Encoding: 401 401 100
Width: 487
GlyphClass: 2
Flags: W
AnchorPoint: "Anchor-18" 0 0 basechar 0
AnchorPoint: "Anchor-17" 0 0 basechar 0
AnchorPoint: "Anchor-16" 281 693 basechar 0
AnchorPoint: "Anchor-15" 0 0 basechar 0
AnchorPoint: "Anchor-14" 147 0 basechar 0
LayerCount: 2
Fore
SplineSet
229 576 m 1,0,-1
 229 392 l 1,1,-1
 431 392 l 1,2,-1
 431 275 l 1,3,-1
 229 275 l 1,4,-1
 229 -31 l 2,5,6
 229 -125 229 -125 175 -173.5 c 128,-1,7
 121 -222 121 -222 28 -222 c 0,8,9
 -56 -222 -56 -222 -113 -179 c 1,10,-1
 -59 -82 l 1,11,12
 -37 -93 -37 -93 -23 -98 c 128,-1,13
 -9 -103 -9 -103 11 -103 c 0,14,15
 37 -103 37 -103 51 -87.5 c 128,-1,16
 65 -72 65 -72 65 -42 c 2,17,-1
 65 693 l 1,18,-1
 478 693 l 1,19,-1
 461 576 l 1,20,-1
 229 576 l 1,0,-1
EndSplineSet
Substitution2: "'c2sc' Capitals to Small Capitals lookup 26 subtable" uni0191.sc
Substitution2: "'aalt' Access All Alternates lookup 0 subtable" uni0191.sc
Position2: "'cpsp' Capital Spacing lookup 0 subtable" dx=5 dy=0 dh=10 dv=0
EndChar

StartChar: G
Encoding: 71 71 101
Width: 645
GlyphClass: 2
Flags: W
AnchorPoint: "Anchor-18" 0 0 basechar 0
AnchorPoint: "Anchor-17" 0 0 basechar 0
AnchorPoint: "Anchor-16" 352 693 basechar 0
AnchorPoint: "Anchor-15" 0 0 basechar 0
AnchorPoint: "Anchor-14" 347 0 basechar 0
LayerCount: 2
Fore
SplineSet
596 625 m 1,1,-1
 513 538 l 1,2,3
 476 566 476 566 444.5 578.5 c 128,-1,4
 413 591 413 591 372 591 c 0,5,6
 295 591 295 591 249 530.5 c 128,-1,7
 203 470 203 470 203 347 c 0,8,9
 203 214 203 214 238 158.5 c 128,-1,10
 273 103 273 103 347 103 c 0,11,12
 399 103 399 103 441 126 c 1,13,-1
 441 283 l 1,14,-1
 351 283 l 1,15,-1
 335 399 l 1,16,-1
 600 399 l 1,17,-1
 600 56 l 1,18,19
 546 21 546 21 481 2 c 128,-1,20
 416 -17 416 -17 351 -17 c 0,21,22
 193 -17 193 -17 113 75.5 c 128,-1,23
 33 168 33 168 33 347 c 0,24,25
 33 461 33 461 76.5 543 c 128,-1,26
 120 625 120 625 195.5 667.5 c 128,-1,27
 271 710 271 710 365 710 c 0,28,0
 499 710 499 710 596 625 c 1,1,-1
EndSplineSet
Substitution2: "'c2sc' Capitals to Small Capitals lookup 26 subtable" g.sc
Substitution2: "'aalt' Access All Alternates lookup 0 subtable" g.sc
Position2: "'cpsp' Capital Spacing lookup 0 subtable" dx=5 dy=0 dh=10 dv=0
EndChar

StartChar: uni0194
Encoding: 404 404 103
Width: 570
GlyphClass: 2
Flags: W
AnchorPoint: "Anchor-18" 0 0 basechar 0
AnchorPoint: "Anchor-17" 0 0 basechar 0
AnchorPoint: "Anchor-16" 285 693 basechar 0
AnchorPoint: "Anchor-15" 0 0 basechar 0
AnchorPoint: "Anchor-14" 285 -210 basechar 0
LayerCount: 2
Fore
SplineSet
372 92 m 1,0,1
 407 35 407 35 422.5 -8.5 c 128,-1,2
 438 -52 438 -52 438 -97 c 0,3,4
 438 -155 438 -155 401.5 -188.5 c 128,-1,5
 365 -222 365 -222 287 -222 c 0,6,7
 211 -222 211 -222 173.5 -189 c 128,-1,8
 136 -156 136 -156 136 -98 c 0,9,10
 136 -57 136 -57 151.5 -15 c 128,-1,11
 167 27 167 27 204 92 c 1,12,-1
 -13 693 l 1,13,-1
 160 693 l 1,14,-1
 288 199 l 1,15,-1
 415 693 l 1,16,-1
 583 693 l 1,17,-1
 372 92 l 1,0,1
309 -48.5 m 128,-1,19
 302 -28 302 -28 287 6 c 1,20,21
 258 -57 258 -57 258 -87 c 0,22,23
 258 -103 258 -103 265.5 -111 c 128,-1,24
 273 -119 273 -119 287 -119 c 256,25,26
 301 -119 301 -119 308.5 -110.5 c 128,-1,27
 316 -102 316 -102 316 -87 c 0,28,18
 316 -69 316 -69 309 -48.5 c 128,-1,19
EndSplineSet
Substitution2: "'c2sc' Capitals to Small Capitals lookup 26 subtable" uni0194.sc
Substitution2: "'aalt' Access All Alternates lookup 0 subtable" uni0194.sc
Position2: "'cpsp' Capital Spacing lookup 0 subtable" dx=5 dy=0 dh=10 dv=0
EndChar

StartChar: uni0193
Encoding: 403 403 109
Width: 612
GlyphClass: 2
Flags: W
AnchorPoint: "Anchor-18" 0 0 basechar 0
AnchorPoint: "Anchor-17" 0 0 basechar 0
AnchorPoint: "Anchor-16" 294 723 basechar 0
AnchorPoint: "Anchor-15" 0 0 basechar 0
AnchorPoint: "Anchor-14" 306 0 basechar 0
LayerCount: 2
Fore
SplineSet
762 814 m 1,1,-1
 716 716 l 1,2,3
 697 726 697 726 681.5 730.5 c 128,-1,4
 666 735 666 735 648 735 c 0,5,6
 596 735 596 735 596 673 c 2,7,-1
 596 625 l 1,8,-1
 519 545 l 1,9,10
 481 568 481 568 446.5 579.5 c 128,-1,11
 412 591 412 591 372 591 c 0,12,13
 295 591 295 591 249 530.5 c 128,-1,14
 203 470 203 470 203 347 c 0,15,16
 203 214 203 214 238 158.5 c 128,-1,17
 273 103 273 103 347 103 c 0,18,19
 399 103 399 103 441 126 c 1,20,-1
 441 283 l 1,21,-1
 351 283 l 1,22,-1
 335 399 l 1,23,-1
 600 399 l 1,24,-1
 600 56 l 1,25,26
 546 21 546 21 481 2 c 128,-1,27
 416 -17 416 -17 348 -17 c 0,28,29
 192 -17 192 -17 112.5 75.5 c 128,-1,30
 33 168 33 168 33 347 c 0,31,32
 33 460 33 460 76 542.5 c 128,-1,33
 119 625 119 625 191 667.5 c 128,-1,34
 263 710 263 710 346 710 c 0,35,36
 409 710 409 710 457 689 c 1,37,38
 459 766 459 766 502 808.5 c 128,-1,39
 545 851 545 851 627 851 c 0,40,0
 705 851 705 851 762 814 c 1,1,-1
EndSplineSet
Substitution2: "'c2sc' Capitals to Small Capitals lookup 26 subtable" uni0260.sc
Substitution2: "'aalt' Access All Alternates lookup 0 subtable" uni0260.sc
Position2: "'cpsp' Capital Spacing lookup 0 subtable" dx=5 dy=0 dh=10 dv=0
EndChar

StartChar: uni0241
Encoding: 577 577 110
Width: 509
GlyphClass: 2
Flags: W
AnchorPoint: "Anchor-18" 0 0 basechar 0
AnchorPoint: "Anchor-17" 0 0 basechar 0
AnchorPoint: "Anchor-16" 254 693 basechar 0
AnchorPoint: "Anchor-15" 0 0 basechar 0
AnchorPoint: "Anchor-14" 229 0 basechar 0
LayerCount: 2
Fore
SplineSet
147 330 m 1,0,-1
 202 345 l 2,1,2
 264 363 264 363 291.5 394.5 c 128,-1,3
 319 426 319 426 319 485 c 0,4,5
 319 534 319 534 293 562.5 c 128,-1,6
 267 591 267 591 219 591 c 0,7,8
 183 591 183 591 150.5 577.5 c 128,-1,9
 118 564 118 564 83 535 c 1,10,-1
 4 618 l 1,11,12
 102 710 102 710 241 710 c 0,13,14
 317 710 317 710 373 683 c 128,-1,15
 429 656 429 656 459 606.5 c 128,-1,16
 489 557 489 557 489 493 c 0,17,18
 489 410 489 410 450.5 363 c 128,-1,19
 412 316 412 316 336 288 c 2,20,-1
 311 279 l 1,21,-1
 311 0 l 1,22,-1
 147 0 l 1,23,-1
 147 330 l 1,0,-1
EndSplineSet
Substitution2: "'c2sc' Capitals to Small Capitals lookup 26 subtable" uni0294.sc
Substitution2: "'aalt' Access All Alternates lookup 0 subtable" uni0294.sc
Position2: "'cpsp' Capital Spacing lookup 0 subtable" dx=5 dy=0 dh=10 dv=0
EndChar

StartChar: uni01E4
Encoding: 484 484 111
Width: 665
GlyphClass: 2
Flags: W
AnchorPoint: "Anchor-18" 0 0 basechar 0
AnchorPoint: "Anchor-17" 0 0 basechar 0
AnchorPoint: "Anchor-16" 337 693 basechar 0
AnchorPoint: "Anchor-15" 0 0 basechar 0
AnchorPoint: "Anchor-14" 337 0 basechar 0
LayerCount: 2
Fore
SplineSet
663 176 m 1,0,-1
 600 176 l 1,1,-1
 600 56 l 1,2,3
 546 21 546 21 481 2 c 128,-1,4
 416 -17 416 -17 350 -17 c 0,5,6
 193 -17 193 -17 113 75.5 c 128,-1,7
 33 168 33 168 33 347 c 0,8,9
 33 461 33 461 76.5 543 c 128,-1,10
 120 625 120 625 195.5 667.5 c 128,-1,11
 271 710 271 710 364 710 c 0,12,13
 436 710 436 710 492.5 688 c 128,-1,14
 549 666 549 666 596 625 c 1,15,-1
 514 538 l 1,16,17
 476 566 476 566 444.5 578.5 c 128,-1,18
 413 591 413 591 372 591 c 0,19,20
 295 591 295 591 249 530.5 c 128,-1,21
 203 470 203 470 203 347 c 0,22,23
 203 214 203 214 238 158.5 c 128,-1,24
 273 103 273 103 347 103 c 0,25,26
 400 103 400 103 453 125 c 1,27,-1
 453 176 l 1,28,-1
 345 176 l 1,29,-1
 345 271 l 1,30,-1
 453 271 l 1,31,-1
 453 314 l 1,32,-1
 349 314 l 1,33,-1
 335 414 l 1,34,-1
 600 414 l 1,35,-1
 600 271 l 1,36,-1
 663 271 l 1,37,-1
 663 176 l 1,0,-1
EndSplineSet
Substitution2: "'c2sc' Capitals to Small Capitals lookup 26 subtable" uni01E5.sc
Substitution2: "'aalt' Access All Alternates lookup 0 subtable" uni01E5.sc
Position2: "'cpsp' Capital Spacing lookup 0 subtable" dx=5 dy=0 dh=10 dv=0
EndChar

StartChar: uni021C
Encoding: 540 540 112
Width: 520
GlyphClass: 2
Flags: W
AnchorPoint: "Anchor-18" 0 0 basechar 0
AnchorPoint: "Anchor-17" 0 0 basechar 0
AnchorPoint: "Anchor-16" 260 693 basechar 0
AnchorPoint: "Anchor-15" 0 0 basechar 0
AnchorPoint: "Anchor-14" 260 -210 basechar 0
LayerCount: 2
Fore
SplineSet
362.5 686 m 128,-1,1
 416 662 416 662 444.5 620 c 128,-1,2
 473 578 473 578 473 523 c 0,3,4
 473 458 473 458 434 416 c 128,-1,5
 395 374 395 374 318 358 c 1,6,7
 494 338 494 338 494 195 c 0,8,9
 494 89 494 89 391 8 c 128,-1,10
 288 -73 288 -73 69 -113 c 1,11,-1
 56 8 l 1,12,13
 161 35 161 35 219.5 64.5 c 128,-1,14
 278 94 278 94 300 127 c 128,-1,15
 322 160 322 160 322 202 c 0,16,17
 322 296 322 296 198 296 c 2,18,-1
 125 296 l 1,19,-1
 145 414 l 1,20,-1
 201 414 l 2,21,22
 251 414 251 414 278 437.5 c 128,-1,23
 305 461 305 461 305 505 c 0,24,25
 305 545 305 545 283 568 c 128,-1,26
 261 591 261 591 214 591 c 0,27,28
 145 591 145 591 74 535 c 1,29,-1
 -2 618 l 1,30,31
 95 710 95 710 236 710 c 0,32,0
 309 710 309 710 362.5 686 c 128,-1,1
EndSplineSet
Substitution2: "'c2sc' Capitals to Small Capitals lookup 26 subtable" uni021D.sc
Substitution2: "'aalt' Access All Alternates lookup 0 subtable" uni021D.sc
Position2: "'cpsp' Capital Spacing lookup 0 subtable" dx=5 dy=0 dh=10 dv=0
EndChar

StartChar: H
Encoding: 72 72 113
Width: 666
GlyphClass: 2
Flags: W
AnchorPoint: "Anchor-18" 333 347 basechar 0
AnchorPoint: "Anchor-17" 0 0 basechar 0
AnchorPoint: "Anchor-16" 333 693 basechar 0
AnchorPoint: "Anchor-15" 0 0 basechar 0
AnchorPoint: "Anchor-14" 333 0 basechar 0
LayerCount: 2
Fore
SplineSet
437 0 m 1,0,-1
 437 297 l 1,1,-1
 229 297 l 1,2,-1
 229 0 l 1,3,-1
 65 0 l 1,4,-1
 65 693 l 1,5,-1
 229 693 l 1,6,-1
 229 425 l 1,7,-1
 437 425 l 1,8,-1
 437 693 l 1,9,-1
 601 693 l 1,10,-1
 601 0 l 1,11,-1
 437 0 l 1,0,-1
EndSplineSet
Substitution2: "'c2sc' Capitals to Small Capitals lookup 26 subtable" h.sc
Substitution2: "'aalt' Access All Alternates lookup 0 subtable" h.sc
Position2: "'cpsp' Capital Spacing lookup 0 subtable" dx=5 dy=0 dh=10 dv=0
EndChar

StartChar: Hbar
Encoding: 294 294 114
Width: 677
GlyphClass: 2
Flags: W
AnchorPoint: "Anchor-18" 339 347 basechar 0
AnchorPoint: "Anchor-17" 0 0 basechar 0
AnchorPoint: "Anchor-16" 339 693 basechar 0
AnchorPoint: "Anchor-15" 0 0 basechar 0
AnchorPoint: "Anchor-14" 339 0 basechar 0
LayerCount: 2
Fore
SplineSet
664 592 m 1,0,-1
 664 500 l 1,1,-1
 607 500 l 1,2,-1
 607 0 l 1,3,-1
 443 0 l 1,4,-1
 443 297 l 1,5,-1
 235 297 l 1,6,-1
 235 0 l 1,7,-1
 71 0 l 1,8,-1
 71 500 l 1,9,-1
 13 500 l 1,10,-1
 13 592 l 1,11,-1
 71 592 l 1,12,-1
 71 693 l 1,13,-1
 235 693 l 1,14,-1
 235 592 l 1,15,-1
 443 592 l 1,16,-1
 443 693 l 1,17,-1
 607 693 l 1,18,-1
 607 592 l 1,19,-1
 664 592 l 1,0,-1
443 425 m 1,20,-1
 443 500 l 1,21,-1
 235 500 l 1,22,-1
 235 425 l 1,23,-1
 443 425 l 1,20,-1
EndSplineSet
Substitution2: "'c2sc' Capitals to Small Capitals lookup 26 subtable" hbar.sc
Substitution2: "'aalt' Access All Alternates lookup 0 subtable" hbar.sc
Position2: "'cpsp' Capital Spacing lookup 0 subtable" dx=5 dy=0 dh=10 dv=0
EndChar

StartChar: uniA7AA
Encoding: 42922 42922 118
Width: 807
GlyphClass: 2
Flags: W
AnchorPoint: "Anchor-18" 475 347 basechar 0
AnchorPoint: "Anchor-17" 0 0 basechar 0
AnchorPoint: "Anchor-16" 475 693 basechar 0
AnchorPoint: "Anchor-15" 0 0 basechar 0
AnchorPoint: "Anchor-14" 475 0 basechar 0
LayerCount: 2
Fore
SplineSet
743 693 m 1,0,-1
 743 0 l 1,1,-1
 579 0 l 1,2,-1
 579 297 l 1,3,-1
 371 297 l 1,4,-1
 371 0 l 1,5,-1
 207 0 l 1,6,-1
 207 576 l 1,7,-1
 178 576 l 2,8,9
 156 576 156 576 144 565 c 128,-1,10
 132 554 132 554 132 534 c 0,11,12
 132 508 132 508 149 469 c 1,13,-1
 48 424 l 1,14,15
 28 454 28 454 16 483 c 128,-1,16
 4 512 4 512 4 544 c 0,17,18
 4 613 4 613 53.5 653 c 128,-1,19
 103 693 103 693 187 693 c 2,20,-1
 371 693 l 1,21,-1
 371 425 l 1,22,-1
 579 425 l 1,23,-1
 579 693 l 1,24,-1
 743 693 l 1,0,-1
EndSplineSet
Substitution2: "'c2sc' Capitals to Small Capitals lookup 26 subtable" uniA7AA.sc
Substitution2: "'aalt' Access All Alternates lookup 0 subtable" uniA7AA.sc
Position2: "'cpsp' Capital Spacing lookup 0 subtable" dx=5 dy=0 dh=10 dv=0
EndChar

StartChar: uniA78D.ss02
Encoding: 65539 -1 120
Width: 598
GlyphClass: 2
Flags: W
AnchorPoint: "Anchor-18" 0 0 basechar 0
AnchorPoint: "Anchor-17" 0 0 basechar 0
AnchorPoint: "Anchor-16" 299 693 basechar 0
AnchorPoint: "Anchor-15" 0 0 basechar 0
AnchorPoint: "Anchor-14" 299 0 basechar 0
LayerCount: 2
Fore
SplineSet
369 0 m 1,0,-1
 369 245 l 1,1,-1
 26 244 l 1,2,-1
 26 693 l 1,3,-1
 190 693 l 1,4,-1
 190 373 l 1,5,-1
 369 373 l 1,6,-1
 369 693 l 1,7,-1
 533 693 l 1,8,-1
 533 0 l 1,9,-1
 369 0 l 1,0,-1
EndSplineSet
Position2: "'cpsp' Capital Spacing lookup 0 subtable" dx=5 dy=0 dh=10 dv=0
EndChar

StartChar: uni01F6
Encoding: 502 502 121
Width: 951
GlyphClass: 2
Flags: W
AnchorPoint: "Anchor-18" 0 0 basechar 0
AnchorPoint: "Anchor-17" 0 0 basechar 0
AnchorPoint: "Anchor-16" 475 693 basechar 0
AnchorPoint: "Anchor-15" 0 0 basechar 0
AnchorPoint: "Anchor-14" 475 0 basechar 0
LayerCount: 2
Fore
SplineSet
901.5 391 m 128,-1,1
 909 324 909 324 909 248 c 0,2,3
 909 158 909 158 872 98.5 c 128,-1,4
 835 39 835 39 776 11 c 128,-1,5
 717 -17 717 -17 650 -17 c 0,6,7
 557 -17 557 -17 497 32.5 c 128,-1,8
 437 82 437 82 437 180 c 2,9,-1
 437 297 l 1,10,-1
 229 297 l 1,11,-1
 229 0 l 1,12,-1
 65 0 l 1,13,-1
 65 693 l 1,14,-1
 229 693 l 1,15,-1
 229 425 l 1,16,-1
 437 425 l 1,17,-1
 437 693 l 1,18,-1
 601 693 l 1,19,-1
 601 183 l 2,20,21
 601 99 601 99 661 99 c 0,22,23
 698 99 698 99 724.5 137.5 c 128,-1,24
 751 176 751 176 751 261 c 0,25,26
 751 374 751 374 724 531 c 1,27,-1
 880 531 l 1,28,0
 894 458 894 458 901.5 391 c 128,-1,1
EndSplineSet
Substitution2: "'c2sc' Capitals to Small Capitals lookup 26 subtable" uni01F6.sc
Substitution2: "'aalt' Access All Alternates lookup 0 subtable" uni01F6.sc
Position2: "'cpsp' Capital Spacing lookup 0 subtable" dx=5 dy=0 dh=10 dv=0
EndChar

StartChar: I
Encoding: 73 73 122
Width: 293
GlyphClass: 2
Flags: W
AnchorPoint: "Anchor-18" 0 0 basechar 0
AnchorPoint: "Anchor-17" 0 0 basechar 0
AnchorPoint: "Anchor-16" 146 693 basechar 0
AnchorPoint: "Anchor-15" 210 0 basechar 0
AnchorPoint: "Anchor-14" 146 0 basechar 0
LayerCount: 2
Fore
SplineSet
229 693 m 1,0,-1
 229 0 l 1,1,-1
 65 0 l 1,2,-1
 65 693 l 1,3,-1
 229 693 l 1,0,-1
EndSplineSet
Substitution2: "'c2sc' Capitals to Small Capitals lookup 26 subtable" i.sc
Substitution2: "'aalt' Access All Alternates lookup 0 subtable" i.sc
Position2: "'cpsp' Capital Spacing lookup 0 subtable" dx=5 dy=0 dh=10 dv=0
EndChar

StartChar: Iogonek
Encoding: 302 302 137
Width: 293
GlyphClass: 2
Flags: W
AnchorPoint: "Anchor-18" 0 0 basechar 0
AnchorPoint: "Anchor-17" 0 0 basechar 0
AnchorPoint: "Anchor-16" 146 693 basechar 0
AnchorPoint: "Anchor-15" 210 0 basechar 0
AnchorPoint: "Anchor-14" 146 0 basechar 0
LayerCount: 2
Fore
SplineSet
229 693 m 1,0,-1
 229 0 l 1,1,-1
 200 0 l 1,2,3
 82 -44 82 -44 82 -102 c 0,4,5
 82 -148 82 -148 135 -148 c 0,6,7
 159 -148 159 -148 196 -140 c 1,8,-1
 185 -238 l 1,9,10
 150 -246 150 -246 115 -246 c 0,11,12
 50 -246 50 -246 9 -214 c 128,-1,13
 -32 -182 -32 -182 -32 -129 c 0,14,15
 -32 -43 -32 -43 65 8 c 1,16,-1
 65 693 l 1,17,-1
 229 693 l 1,0,-1
EndSplineSet
Substitution2: "'c2sc' Capitals to Small Capitals lookup 26 subtable" iogonek.sc
Substitution2: "'aalt' Access All Alternates lookup 0 subtable" iogonek.sc
Position2: "'cpsp' Capital Spacing lookup 0 subtable" dx=5 dy=0 dh=10 dv=0
EndChar

StartChar: uni0196
Encoding: 406 406 138
Width: 391
GlyphClass: 2
Flags: W
AnchorPoint: "Anchor-18" 0 0 basechar 0
AnchorPoint: "Anchor-17" 0 0 basechar 0
AnchorPoint: "Anchor-16" 137 693 basechar 0
AnchorPoint: "Anchor-15" 0 0 basechar 0
AnchorPoint: "Anchor-14" 209 0 basechar 0
LayerCount: 2
Fore
SplineSet
396 26 m 1,0,1
 339 -17 339 -17 255 -17 c 0,2,3
 162 -17 162 -17 108 31.5 c 128,-1,4
 54 80 54 80 54 174 c 2,5,-1
 54 206 l 1,6,-1
 55 206 l 1,7,-1
 55 693 l 1,8,-1
 219 693 l 1,9,-1
 219 205 l 1,10,-1
 218 205 l 1,11,-1
 218 163 l 2,12,13
 218 133 218 133 232 117.5 c 128,-1,14
 246 102 246 102 272 102 c 0,15,16
 292 102 292 102 306 107 c 128,-1,17
 320 112 320 112 342 123 c 1,18,-1
 396 26 l 1,0,1
EndSplineSet
Substitution2: "'c2sc' Capitals to Small Capitals lookup 26 subtable" uni0196.sc
Substitution2: "'aalt' Access All Alternates lookup 0 subtable" uni0196.sc
Position2: "'cpsp' Capital Spacing lookup 0 subtable" dx=5 dy=0 dh=10 dv=0
EndChar

StartChar: uni0197
Encoding: 407 407 139
Width: 330
GlyphClass: 2
Flags: W
AnchorPoint: "Anchor-18" 0 0 basechar 0
AnchorPoint: "Anchor-17" 0 0 basechar 0
AnchorPoint: "Anchor-16" 164 693 basechar 0
AnchorPoint: "Anchor-15" 228 0 basechar 0
AnchorPoint: "Anchor-14" 164 0 basechar 0
LayerCount: 2
Fore
SplineSet
324 420 m 1,0,-1
 324 300 l 1,1,-1
 247 300 l 1,2,-1
 247 0 l 1,3,-1
 83 0 l 1,4,-1
 83 300 l 1,5,-1
 5 300 l 1,6,-1
 5 420 l 1,7,-1
 83 420 l 1,8,-1
 83 693 l 1,9,-1
 247 693 l 1,10,-1
 247 420 l 1,11,-1
 324 420 l 1,0,-1
EndSplineSet
Substitution2: "'c2sc' Capitals to Small Capitals lookup 26 subtable" uni0268.sc
Substitution2: "'aalt' Access All Alternates lookup 0 subtable" uni0268.sc
Position2: "'cpsp' Capital Spacing lookup 0 subtable" dx=5 dy=0 dh=10 dv=0
EndChar

StartChar: J
Encoding: 74 74 141
Width: 317
GlyphClass: 2
Flags: W
AnchorPoint: "Anchor-18" 0 0 basechar 0
AnchorPoint: "Anchor-17" 0 0 basechar 0
AnchorPoint: "Anchor-16" 174 693 basechar 0
AnchorPoint: "Anchor-15" 0 0 basechar 0
AnchorPoint: "Anchor-14" 159 -210 basechar 0
LayerCount: 2
Fore
SplineSet
256 105 m 2,0,1
 256 22 256 22 226.5 -32 c 128,-1,2
 197 -86 197 -86 148.5 -116.5 c 128,-1,3
 100 -147 100 -147 33 -169 c 1,4,-1
 -11 -53 l 1,5,6
 33 -36 33 -36 55 -14 c 128,-1,7
 77 8 77 8 84.5 37 c 128,-1,8
 92 66 92 66 92 111 c 2,9,-1
 92 693 l 1,10,-1
 256 693 l 1,11,-1
 256 105 l 2,0,1
EndSplineSet
Substitution2: "'c2sc' Capitals to Small Capitals lookup 26 subtable" j.sc
Substitution2: "'aalt' Access All Alternates lookup 0 subtable" j.sc
Position2: "'cpsp' Capital Spacing lookup 0 subtable" dx=5 dy=0 dh=10 dv=0
EndChar

StartChar: uniA7B2
Encoding: 42930 42930 143
Width: 354
GlyphClass: 2
Flags: W
AnchorPoint: "Anchor-18" 0 0 basechar 0
AnchorPoint: "Anchor-17" 0 0 basechar 0
AnchorPoint: "Anchor-16" 208 693 basechar 0
AnchorPoint: "Anchor-15" 0 0 basechar 0
AnchorPoint: "Anchor-14" 177 -210 basechar 0
LayerCount: 2
Fore
SplineSet
369 -110 m 1,0,1
 315 -86 315 -86 276 -76 c 1,2,3
 237 -222 237 -222 65 -222 c 0,4,5
 -8 -222 -8 -222 -48 -190 c 128,-1,6
 -88 -158 -88 -158 -88 -103 c 0,7,8
 -88 -42 -88 -42 -43.5 -8.5 c 128,-1,9
 1 25 1 25 83 25 c 0,10,11
 103 25 103 25 125 23 c 1,12,-1
 125 693 l 1,13,-1
 289 693 l 1,14,-1
 289 31 l 2,15,16
 289 9 289 9 288 -1 c 1,17,18
 344 -17 344 -17 398 -44 c 1,19,-1
 369 -110 l 1,0,1
107.5 -119.5 m 128,-1,21
 122 -100 122 -100 124 -53 c 1,22,23
 104 -51 104 -51 83 -51 c 0,24,25
 45 -51 45 -51 27.5 -63 c 128,-1,26
 10 -75 10 -75 10 -99 c 0,27,28
 10 -139 10 -139 59 -139 c 0,29,20
 93 -139 93 -139 107.5 -119.5 c 128,-1,21
EndSplineSet
Substitution2: "'c2sc' Capitals to Small Capitals lookup 26 subtable" uniA7B2.sc
Substitution2: "'aalt' Access All Alternates lookup 0 subtable" uniA7B2.sc
Position2: "'cpsp' Capital Spacing lookup 0 subtable" dx=5 dy=0 dh=10 dv=0
EndChar

StartChar: uni0248
Encoding: 584 584 144
Width: 337
GlyphClass: 2
Flags: W
AnchorPoint: "Anchor-18" 0 0 basechar 0
AnchorPoint: "Anchor-17" 0 0 basechar 0
AnchorPoint: "Anchor-16" 174 693 basechar 0
AnchorPoint: "Anchor-15" 0 0 basechar 0
AnchorPoint: "Anchor-14" 159 -210 basechar 0
LayerCount: 2
Fore
SplineSet
333 282 m 1,0,-1
 256 282 l 1,1,-1
 256 105 l 2,2,3
 256 22 256 22 226.5 -32 c 128,-1,4
 197 -86 197 -86 148.5 -116.5 c 128,-1,5
 100 -147 100 -147 33 -169 c 1,6,-1
 -11 -53 l 1,7,8
 33 -36 33 -36 55 -14 c 128,-1,9
 77 8 77 8 84.5 37 c 128,-1,10
 92 66 92 66 92 111 c 2,11,-1
 92 282 l 1,12,-1
 14 282 l 1,13,-1
 14 404 l 1,14,-1
 92 404 l 1,15,-1
 92 693 l 1,16,-1
 256 693 l 1,17,-1
 256 404 l 1,18,-1
 333 404 l 1,19,-1
 333 282 l 1,0,-1
EndSplineSet
Substitution2: "'c2sc' Capitals to Small Capitals lookup 26 subtable" uni0249.sc
Substitution2: "'aalt' Access All Alternates lookup 0 subtable" uni0249.sc
Position2: "'cpsp' Capital Spacing lookup 0 subtable" dx=5 dy=0 dh=10 dv=0
EndChar

StartChar: K
Encoding: 75 75 145
Width: 633
GlyphClass: 2
Flags: W
AnchorPoint: "Anchor-18" 0 0 basechar 0
AnchorPoint: "Anchor-17" 0 0 basechar 0
AnchorPoint: "Anchor-16" 329 693 basechar 0
AnchorPoint: "Anchor-15" 0 0 basechar 0
AnchorPoint: "Anchor-14" 324 0 basechar 0
LayerCount: 2
Fore
SplineSet
229 693 m 1,0,-1
 229 0 l 1,1,-1
 65 0 l 1,2,-1
 65 693 l 1,3,-1
 229 693 l 1,0,-1
627 693 m 1,4,-1
 406 382 l 1,5,-1
 645 0 l 1,6,-1
 455 0 l 1,7,-1
 234 370 l 1,8,-1
 454 693 l 1,9,-1
 627 693 l 1,4,-1
EndSplineSet
Substitution2: "'c2sc' Capitals to Small Capitals lookup 26 subtable" k.sc
Substitution2: "'aalt' Access All Alternates lookup 0 subtable" k.sc
Position2: "'cpsp' Capital Spacing lookup 0 subtable" dx=5 dy=0 dh=10 dv=0
EndChar

StartChar: uni0198
Encoding: 408 408 148
Width: 653
GlyphClass: 2
Flags: W
AnchorPoint: "Anchor-18" 0 0 basechar 0
AnchorPoint: "Anchor-17" 0 0 basechar 0
AnchorPoint: "Anchor-16" 327 693 basechar 0
AnchorPoint: "Anchor-15" 0 0 basechar 0
AnchorPoint: "Anchor-14" 327 0 basechar 0
LayerCount: 2
Fore
SplineSet
234 370 m 1,0,-1
 373 591 l 2,1,2
 413 657 413 657 452 683.5 c 128,-1,3
 491 710 491 710 553 710 c 256,4,5
 615 710 615 710 666 673 c 1,6,-1
 622 579 l 1,7,8
 600 593 600 593 576 593 c 0,9,10
 555 593 555 593 540.5 583 c 128,-1,11
 526 573 526 573 506 541 c 2,12,-1
 405 382 l 1,13,-1
 645 0 l 1,14,-1
 455 0 l 1,15,-1
 234 370 l 1,0,-1
229 693 m 1,16,-1
 229 0 l 1,17,-1
 65 0 l 1,18,-1
 65 693 l 1,19,-1
 229 693 l 1,16,-1
EndSplineSet
Substitution2: "'c2sc' Capitals to Small Capitals lookup 26 subtable" uni0199.sc
Substitution2: "'aalt' Access All Alternates lookup 0 subtable" uni0199.sc
Position2: "'cpsp' Capital Spacing lookup 0 subtable" dx=5 dy=0 dh=10 dv=0
EndChar

StartChar: L
Encoding: 76 76 149
Width: 513
GlyphClass: 2
Flags: W
AnchorPoint: "Anchor-18" 398 399 basechar 0
AnchorPoint: "Anchor-17" 242 693 basechar 0
AnchorPoint: "Anchor-16" 147 693 basechar 0
AnchorPoint: "Anchor-15" 0 0 basechar 0
AnchorPoint: "Anchor-14" 273 0 basechar 0
LayerCount: 2
Fore
SplineSet
229 693 m 1,0,-1
 229 130 l 1,1,-1
 499 130 l 1,2,-1
 482 0 l 1,3,-1
 65 0 l 1,4,-1
 65 693 l 1,5,-1
 229 693 l 1,0,-1
EndSplineSet
Substitution2: "'c2sc' Capitals to Small Capitals lookup 26 subtable" l.sc
Substitution2: "'aalt' Access All Alternates lookup 0 subtable" l.sc
Position2: "'cpsp' Capital Spacing lookup 0 subtable" dx=5 dy=0 dh=10 dv=0
EndChar

StartChar: uni023D
Encoding: 573 573 152
Width: 530
GlyphClass: 2
Flags: W
AnchorPoint: "Anchor-18" 415 399 basechar 0
AnchorPoint: "Anchor-17" 259 693 basechar 0
AnchorPoint: "Anchor-16" 164 693 basechar 0
AnchorPoint: "Anchor-15" 0 0 basechar 0
AnchorPoint: "Anchor-14" 290 0 basechar 0
LayerCount: 2
Fore
SplineSet
246 130 m 1,0,-1
 516 130 l 1,1,-1
 499 0 l 1,2,-1
 82 0 l 1,3,-1
 82 302 l 1,4,-1
 5 302 l 1,5,-1
 5 424 l 1,6,-1
 82 424 l 1,7,-1
 82 693 l 1,8,-1
 246 693 l 1,9,-1
 246 424 l 1,10,-1
 324 424 l 1,11,-1
 324 302 l 1,12,-1
 246 302 l 1,13,-1
 246 130 l 1,0,-1
EndSplineSet
Substitution2: "'c2sc' Capitals to Small Capitals lookup 26 subtable" uni019A.sc
Substitution2: "'aalt' Access All Alternates lookup 0 subtable" uni019A.sc
Position2: "'cpsp' Capital Spacing lookup 0 subtable" dx=5 dy=0 dh=10 dv=0
EndChar

StartChar: uniA7AD
Encoding: 42925 42925 153
Width: 613
GlyphClass: 2
Flags: W
AnchorPoint: "Anchor-18" 498 399 basechar 0
AnchorPoint: "Anchor-17" 342 693 basechar 0
AnchorPoint: "Anchor-16" 247 693 basechar 0
AnchorPoint: "Anchor-15" 0 0 basechar 0
AnchorPoint: "Anchor-14" 373 0 basechar 0
LayerCount: 2
Fore
SplineSet
599 130 m 1,0,-1
 582 0 l 1,1,-1
 165 0 l 1,2,-1
 165 252 l 1,3,-1
 164 252 l 2,4,5
 83 254 83 254 42 289 c 128,-1,6
 1 324 1 324 1 383 c 0,7,8
 1 438 1 438 36 469 c 128,-1,9
 71 500 71 500 127 500 c 0,10,11
 145 500 145 500 165 496 c 1,12,-1
 165 693 l 1,13,-1
 329 693 l 1,14,-1
 329 345 l 1,15,16
 389 348 389 348 449 359 c 1,17,-1
 461 274 l 1,18,19
 395 260 395 260 329 256 c 1,20,-1
 329 130 l 1,21,-1
 599 130 l 1,0,-1
165 343 m 1,22,-1
 165 414 l 1,23,24
 153 417 153 417 139 417 c 0,25,26
 123 417 123 417 114.5 408.5 c 128,-1,27
 106 400 106 400 106 384 c 0,28,29
 106 343 106 343 164 343 c 2,30,-1
 165 343 l 1,22,-1
EndSplineSet
Substitution2: "'c2sc' Capitals to Small Capitals lookup 26 subtable" uniA7AD.sc
Substitution2: "'aalt' Access All Alternates lookup 0 subtable" uniA7AD.sc
Position2: "'cpsp' Capital Spacing lookup 0 subtable" dx=5 dy=0 dh=10 dv=0
EndChar

StartChar: Lslash
Encoding: 321 321 160
Width: 553
GlyphClass: 2
Flags: W
AnchorPoint: "Anchor-18" 438 399 basechar 0
AnchorPoint: "Anchor-17" 282 693 basechar 0
AnchorPoint: "Anchor-16" 187 693 basechar 0
AnchorPoint: "Anchor-15" 0 0 basechar 0
AnchorPoint: "Anchor-14" 313 0 basechar 0
LayerCount: 2
Fore
SplineSet
269 130 m 1,0,-1
 539 130 l 1,1,-1
 522 0 l 1,2,-1
 105 0 l 1,3,-1
 105 225 l 1,4,-1
 62 198 l 1,5,-1
 8 285 l 1,6,-1
 104 344 l 1,7,-1
 105 345 l 1,8,-1
 105 693 l 1,9,-1
 269 693 l 1,10,-1
 269 446 l 1,11,-1
 396 525 l 1,12,-1
 450 439 l 1,13,-1
 269 327 l 1,14,-1
 269 130 l 1,0,-1
EndSplineSet
Substitution2: "'c2sc' Capitals to Small Capitals lookup 26 subtable" lslash.sc
Substitution2: "'aalt' Access All Alternates lookup 0 subtable" lslash.sc
Position2: "'cpsp' Capital Spacing lookup 0 subtable" dx=5 dy=0 dh=10 dv=0
EndChar

StartChar: M
Encoding: 77 77 161
Width: 786
GlyphClass: 2
Flags: W
AnchorPoint: "Anchor-18" 0 0 basechar 0
AnchorPoint: "Anchor-17" 0 0 basechar 0
AnchorPoint: "Anchor-16" 393 693 basechar 0
AnchorPoint: "Anchor-15" 0 0 basechar 0
AnchorPoint: "Anchor-14" 396 0 basechar 0
LayerCount: 2
Fore
SplineSet
753 0 m 1,0,-1
 592 0 l 1,1,-1
 580 271 l 2,2,3
 575 368 575 368 575 444 c 0,4,5
 575 502 575 502 578 554 c 1,6,-1
 471 73 l 1,7,-1
 316 73 l 1,8,-1
 202 554 l 1,9,10
 208 467 208 467 208 390 c 0,11,12
 208 332 208 332 205 269 c 2,13,-1
 193 0 l 1,14,-1
 33 0 l 1,15,-1
 85 693 l 1,16,-1
 292 693 l 1,17,-1
 396 223 l 1,18,-1
 493 693 l 1,19,-1
 701 693 l 1,20,-1
 753 0 l 1,0,-1
EndSplineSet
Substitution2: "'c2sc' Capitals to Small Capitals lookup 26 subtable" m.sc
Substitution2: "'aalt' Access All Alternates lookup 0 subtable" m.sc
Position2: "'cpsp' Capital Spacing lookup 0 subtable" dx=5 dy=0 dh=10 dv=0
EndChar

StartChar: uni019C
Encoding: 412 412 164
Width: 915
GlyphClass: 2
Flags: W
AnchorPoint: "Anchor-18" 0 0 basechar 0
AnchorPoint: "Anchor-17" 0 0 basechar 0
AnchorPoint: "Anchor-16" 457 693 basechar 0
AnchorPoint: "Anchor-15" 0 0 basechar 0
AnchorPoint: "Anchor-14" 457 0 basechar 0
LayerCount: 2
Fore
SplineSet
850 693 m 1,0,-1
 850 0 l 1,1,-1
 707 0 l 1,2,-1
 695 64 l 1,3,4
 660 22 660 22 622.5 2.5 c 128,-1,5
 585 -17 585 -17 538 -17 c 0,6,7
 486 -17 486 -17 448.5 7 c 128,-1,8
 411 31 411 31 391 75 c 1,9,10
 350 26 350 26 311 4.5 c 128,-1,11
 272 -17 272 -17 222 -17 c 0,12,13
 144 -17 144 -17 99.5 36.5 c 128,-1,14
 55 90 55 90 55 177 c 2,15,-1
 55 693 l 1,16,-1
 219 693 l 1,17,-1
 219 185 l 2,18,19
 219 147 219 147 234 126 c 128,-1,20
 249 105 249 105 277 105 c 0,21,22
 301 105 301 105 322 121.5 c 128,-1,23
 343 138 343 138 370 172 c 1,24,-1
 370 177 l 1,25,-1
 370 693 l 1,26,-1
 535 693 l 1,27,-1
 535 185 l 2,28,29
 535 147 535 147 550 126 c 128,-1,30
 565 105 565 105 592 105 c 0,31,32
 620 105 620 105 641 121 c 128,-1,33
 662 137 662 137 686 173 c 1,34,-1
 686 693 l 1,35,-1
 850 693 l 1,0,-1
EndSplineSet
Substitution2: "'c2sc' Capitals to Small Capitals lookup 26 subtable" uni026F.sc
Substitution2: "'aalt' Access All Alternates lookup 0 subtable" uni026F.sc
Position2: "'cpsp' Capital Spacing lookup 0 subtable" dx=5 dy=0 dh=10 dv=0
EndChar

StartChar: N
Encoding: 78 78 165
Width: 663
GlyphClass: 2
Flags: W
AnchorPoint: "Anchor-18" 0 0 basechar 0
AnchorPoint: "Anchor-17" 0 0 basechar 0
AnchorPoint: "Anchor-16" 336 693 basechar 0
AnchorPoint: "Anchor-15" 0 0 basechar 0
AnchorPoint: "Anchor-14" 332 0 basechar 0
LayerCount: 2
Fore
SplineSet
599 0 m 1,0,-1
 390 0 l 1,1,-1
 190 537 l 1,2,3
 200 458 200 458 205.5 397.5 c 128,-1,4
 211 337 211 337 211 254 c 2,5,-1
 211 0 l 1,6,-1
 65 0 l 1,7,-1
 65 693 l 1,8,-1
 269 693 l 1,9,-1
 474 155 l 1,10,11
 452 292 452 292 452 413 c 2,12,-1
 452 693 l 1,13,-1
 599 693 l 1,14,-1
 599 0 l 1,0,-1
EndSplineSet
Substitution2: "'c2sc' Capitals to Small Capitals lookup 26 subtable" n.sc
Substitution2: "'aalt' Access All Alternates lookup 0 subtable" n.sc
Position2: "'cpsp' Capital Spacing lookup 0 subtable" dx=5 dy=0 dh=10 dv=0
EndChar

StartChar: Eng
Encoding: 330 330 175
Width: 663
GlyphClass: 2
Flags: W
AnchorPoint: "Anchor-18" 0 0 basechar 0
AnchorPoint: "Anchor-17" 0 0 basechar 0
AnchorPoint: "Anchor-16" 336 693 basechar 0
AnchorPoint: "Anchor-15" 0 0 basechar 0
AnchorPoint: "Anchor-14" 332 0 basechar 0
LayerCount: 2
Fore
SplineSet
599 693 m 1,0,-1
 599 -31 l 2,1,2
 599 -125 599 -125 545 -173.5 c 128,-1,3
 491 -222 491 -222 398 -222 c 0,4,5
 314 -222 314 -222 257 -179 c 1,6,-1
 311 -82 l 1,7,8
 333 -93 333 -93 347 -98 c 128,-1,9
 361 -103 361 -103 381 -103 c 0,10,11
 407 -103 407 -103 421 -87.5 c 128,-1,12
 435 -72 435 -72 435 -42 c 2,13,-1
 435 0 l 1,14,-1
 390 0 l 1,15,-1
 190 537 l 1,16,17
 200 458 200 458 205.5 397.5 c 128,-1,18
 211 337 211 337 211 254 c 2,19,-1
 211 0 l 1,20,-1
 65 0 l 1,21,-1
 65 693 l 1,22,-1
 269 693 l 1,23,-1
 474 155 l 1,24,25
 452 292 452 292 452 413 c 2,26,-1
 452 693 l 1,27,-1
 599 693 l 1,0,-1
EndSplineSet
Substitution2: "'ss01' Style Set 1 lookup 33 subtable" Eng.ss01
Substitution2: "'salt' Stylistic Alternatives lookup 32 subtable" Eng.ss01
Substitution2: "'c2sc' Capitals to Small Capitals lookup 26 subtable" eng.sc
AlternateSubs2: "'aalt' Access All Alternates lookup 1 subtable" eng.sc Eng.ss01
Position2: "'cpsp' Capital Spacing lookup 0 subtable" dx=5 dy=0 dh=10 dv=0
EndChar

StartChar: Eng.ss01
Encoding: 65541 -1 176
Width: 654
GlyphClass: 2
Flags: W
AnchorPoint: "Anchor-18" 0 0 basechar 0
AnchorPoint: "Anchor-17" 0 0 basechar 0
AnchorPoint: "Anchor-16" 327 693 basechar 0
AnchorPoint: "Anchor-15" 0 0 basechar 0
AnchorPoint: "Anchor-14" 327 -210 basechar 0
LayerCount: 2
Fore
SplineSet
549.5 659 m 128,-1,1
 595 608 595 608 595 525 c 2,2,-1
 595 -31 l 2,3,4
 595 -125 595 -125 541 -173.5 c 128,-1,5
 487 -222 487 -222 394 -222 c 0,6,7
 310 -222 310 -222 253 -179 c 1,8,-1
 307 -82 l 1,9,10
 329 -93 329 -93 343 -98 c 128,-1,11
 357 -103 357 -103 377 -103 c 0,12,13
 403 -103 403 -103 417 -87.5 c 128,-1,14
 431 -72 431 -72 431 -42 c 2,15,-1
 431 499 l 2,16,17
 431 544 431 544 413.5 566 c 128,-1,18
 396 588 396 588 358 588 c 256,19,20
 320 588 320 588 291 572 c 128,-1,21
 262 556 262 556 229 520 c 1,22,-1
 229 0 l 1,23,-1
 65 0 l 1,24,-1
 65 693 l 1,25,-1
 208 693 l 1,26,-1
 221 627 l 1,27,28
 265 670 265 670 310 690 c 128,-1,29
 355 710 355 710 415 710 c 0,30,0
 504 710 504 710 549.5 659 c 128,-1,1
EndSplineSet
Position2: "'cpsp' Capital Spacing lookup 0 subtable" dx=5 dy=0 dh=10 dv=0
EndChar

StartChar: uni019D
Encoding: 413 413 177
Width: 663
GlyphClass: 2
Flags: W
AnchorPoint: "Anchor-18" 0 0 basechar 0
AnchorPoint: "Anchor-17" 0 0 basechar 0
AnchorPoint: "Anchor-16" 336 693 basechar 0
AnchorPoint: "Anchor-15" 0 0 basechar 0
AnchorPoint: "Anchor-14" 332 0 basechar 0
LayerCount: 2
Fore
SplineSet
599 693 m 1,0,-1
 599 0 l 1,1,-1
 390 0 l 1,2,-1
 190 537 l 1,3,4
 200 458 200 458 205.5 397.5 c 128,-1,5
 211 337 211 337 211 254 c 2,6,-1
 211 -32 l 2,7,8
 211 -125 211 -125 161 -173.5 c 128,-1,9
 111 -222 111 -222 25 -222 c 0,10,11
 -59 -222 -59 -222 -116 -179 c 1,12,-1
 -62 -85 l 1,13,14
 -41 -97 -41 -97 -26.5 -102 c 128,-1,15
 -12 -107 -12 -107 8 -107 c 0,16,17
 35 -107 35 -107 50 -91.5 c 128,-1,18
 65 -76 65 -76 65 -46 c 2,19,-1
 65 693 l 1,20,-1
 269 693 l 1,21,-1
 474 155 l 1,22,23
 452 292 452 292 452 413 c 2,24,-1
 452 693 l 1,25,-1
 599 693 l 1,0,-1
EndSplineSet
Substitution2: "'ss01' Style Set 1 lookup 33 subtable" uni019D.ss01
Substitution2: "'salt' Stylistic Alternatives lookup 32 subtable" uni019D.ss01
Substitution2: "'c2sc' Capitals to Small Capitals lookup 26 subtable" uni0272.sc
AlternateSubs2: "'aalt' Access All Alternates lookup 1 subtable" uni0272.sc uni019D.ss01
Position2: "'cpsp' Capital Spacing lookup 0 subtable" dx=5 dy=0 dh=10 dv=0
EndChar

StartChar: uni019D.ss01
Encoding: 65542 -1 178
Width: 654
GlyphClass: 2
Flags: W
AnchorPoint: "Anchor-18" 0 0 basechar 0
AnchorPoint: "Anchor-17" 0 0 basechar 0
AnchorPoint: "Anchor-16" 327 693 basechar 0
AnchorPoint: "Anchor-15" 0 0 basechar 0
AnchorPoint: "Anchor-14" 327 -210 basechar 0
LayerCount: 2
Fore
SplineSet
549.5 659 m 128,-1,1
 595 608 595 608 595 525 c 2,2,-1
 595 0 l 1,3,-1
 431 0 l 1,4,-1
 431 499 l 2,5,6
 431 544 431 544 413.5 566 c 128,-1,7
 396 588 396 588 358 588 c 256,8,9
 320 588 320 588 291 572 c 128,-1,10
 262 556 262 556 229 520 c 1,11,-1
 229 -31 l 2,12,13
 229 -125 229 -125 175 -173.5 c 128,-1,14
 121 -222 121 -222 28 -222 c 0,15,16
 -56 -222 -56 -222 -113 -179 c 1,17,-1
 -59 -82 l 1,18,19
 -37 -93 -37 -93 -23 -98 c 128,-1,20
 -9 -103 -9 -103 11 -103 c 0,21,22
 37 -103 37 -103 51 -87.5 c 128,-1,23
 65 -72 65 -72 65 -42 c 2,24,-1
 65 693 l 1,25,-1
 208 693 l 1,26,-1
 221 627 l 1,27,28
 265 670 265 670 310 690 c 128,-1,29
 355 710 355 710 415 710 c 0,30,0
 504 710 504 710 549.5 659 c 128,-1,1
EndSplineSet
Position2: "'cpsp' Capital Spacing lookup 0 subtable" dx=5 dy=0 dh=10 dv=0
EndChar

StartChar: uni0220
Encoding: 544 544 180
Width: 654
GlyphClass: 2
Flags: W
AnchorPoint: "Anchor-18" 0 0 basechar 0
AnchorPoint: "Anchor-17" 0 0 basechar 0
AnchorPoint: "Anchor-16" 327 693 basechar 0
AnchorPoint: "Anchor-15" 0 0 basechar 0
AnchorPoint: "Anchor-14" 327 -210 basechar 0
LayerCount: 2
Fore
SplineSet
549.5 659 m 128,-1,1
 595 608 595 608 595 525 c 2,2,-1
 595 -210 l 1,3,-1
 431 -210 l 1,4,-1
 431 499 l 2,5,6
 431 544 431 544 413.5 566 c 128,-1,7
 396 588 396 588 358 588 c 256,8,9
 320 588 320 588 291 572 c 128,-1,10
 262 556 262 556 229 520 c 1,11,-1
 229 0 l 1,12,-1
 65 0 l 1,13,-1
 65 693 l 1,14,-1
 208 693 l 1,15,-1
 221 627 l 1,16,17
 265 670 265 670 310 690 c 128,-1,18
 355 710 355 710 415 710 c 0,19,0
 504 710 504 710 549.5 659 c 128,-1,1
EndSplineSet
Substitution2: "'c2sc' Capitals to Small Capitals lookup 26 subtable" uni0220.sc
Substitution2: "'aalt' Access All Alternates lookup 0 subtable" uni0220.sc
Position2: "'cpsp' Capital Spacing lookup 0 subtable" dx=5 dy=0 dh=10 dv=0
EndChar

StartChar: O
Encoding: 79 79 182
Width: 691
GlyphClass: 2
Flags: W
AnchorPoint: "Anchor-18" 0 0 basechar 0
AnchorPoint: "Anchor-17" 574 693 basechar 0
AnchorPoint: "Anchor-16" 345 693 basechar 0
AnchorPoint: "Anchor-15" 466 0 basechar 0
AnchorPoint: "Anchor-14" 345 0 basechar 0
LayerCount: 2
Fore
SplineSet
575.5 615 m 128,-1,1
 658 520 658 520 658 347 c 0,2,3
 658 234 658 234 620.5 152 c 128,-1,4
 583 70 583 70 512.5 26.5 c 128,-1,5
 442 -17 442 -17 345 -17 c 256,6,7
 248 -17 248 -17 178 26 c 128,-1,8
 108 69 108 69 70.5 150.5 c 128,-1,9
 33 232 33 232 33 347 c 0,10,11
 33 459 33 459 70.5 541 c 128,-1,12
 108 623 108 623 178 666.5 c 128,-1,13
 248 710 248 710 345 710 c 0,14,0
 493 710 493 710 575.5 615 c 128,-1,1
239.5 532.5 m 128,-1,16
 205 475 205 475 205 347 c 256,17,18
 205 219 205 219 240 161 c 128,-1,19
 275 103 275 103 345 103 c 0,20,21
 417 103 417 103 451.5 160.5 c 128,-1,22
 486 218 486 218 486 347 c 256,23,24
 486 476 486 476 451 533 c 128,-1,25
 416 590 416 590 345 590 c 256,26,15
 274 590 274 590 239.5 532.5 c 128,-1,16
EndSplineSet
Substitution2: "Single Substitution lookup 45 subtable" ordmasculine
Substitution2: "'c2sc' Capitals to Small Capitals lookup 26 subtable" o.sc
AlternateSubs2: "'aalt' Access All Alternates lookup 1 subtable" ordmasculine o.sc
Position2: "'cpsp' Capital Spacing lookup 0 subtable" dx=5 dy=0 dh=10 dv=0
EndChar

StartChar: uni0222
Encoding: 546 546 183
Width: 651
GlyphClass: 2
Flags: W
AnchorPoint: "Anchor-18" 0 0 basechar 0
AnchorPoint: "Anchor-17" 0 0 basechar 0
AnchorPoint: "Anchor-16" 325 693 basechar 0
AnchorPoint: "Anchor-15" 0 0 basechar 0
AnchorPoint: "Anchor-14" 325 0 basechar 0
LayerCount: 2
Fore
SplineSet
584.5 329.5 m 128,-1,1
 618 283 618 283 618 218 c 0,2,3
 618 155 618 155 582.5 101 c 128,-1,4
 547 47 547 47 480.5 15 c 128,-1,5
 414 -17 414 -17 325 -17 c 256,6,7
 236 -17 236 -17 170 14 c 128,-1,8
 104 45 104 45 68.5 98.5 c 128,-1,9
 33 152 33 152 33 217 c 0,10,11
 33 280 33 280 66.5 326.5 c 128,-1,12
 100 373 100 373 163 398 c 1,13,14
 74 446 74 446 74 551 c 2,15,-1
 74 693 l 1,16,-1
 238 693 l 1,17,-1
 238 544 l 2,18,19
 238 497 238 497 258 473 c 128,-1,20
 278 449 278 449 326 449 c 0,21,22
 414 449 414 449 414 544 c 2,23,-1
 414 693 l 1,24,-1
 578 693 l 1,25,-1
 578 551 l 2,26,27
 578 501 578 501 554.5 462.5 c 128,-1,28
 531 424 531 424 487 400 c 1,29,0
 551 376 551 376 584.5 329.5 c 128,-1,1
416 133.5 m 128,-1,31
 446 164 446 164 446 220 c 0,32,33
 446 273 446 273 415 303.5 c 128,-1,34
 384 334 384 334 325 334 c 0,35,36
 267 334 267 334 236 303.5 c 128,-1,37
 205 273 205 273 205 219 c 0,38,39
 205 164 205 164 236 133.5 c 128,-1,40
 267 103 267 103 325 103 c 0,41,30
 386 103 386 103 416 133.5 c 128,-1,31
EndSplineSet
Substitution2: "'c2sc' Capitals to Small Capitals lookup 26 subtable" uni0223.sc
Substitution2: "'aalt' Access All Alternates lookup 0 subtable" uni0223.sc
Position2: "'cpsp' Capital Spacing lookup 0 subtable" dx=5 dy=0 dh=10 dv=0
EndChar

StartChar: Ohorn
Encoding: 416 416 203
Width: 715
GlyphClass: 2
Flags: W
AnchorPoint: "Anchor-18" 0 0 basechar 0
AnchorPoint: "Anchor-17" 626 693 basechar 0
AnchorPoint: "Anchor-16" 345 693 basechar 0
AnchorPoint: "Anchor-15" 466 0 basechar 0
AnchorPoint: "Anchor-14" 345 0 basechar 0
LayerCount: 2
Fore
SplineSet
686.5 603.5 m 128,-1,1
 660 573 660 573 611 563 c 1,2,3
 658 477 658 477 658 347 c 0,4,5
 658 234 658 234 620.5 152 c 128,-1,6
 583 70 583 70 512.5 26.5 c 128,-1,7
 442 -17 442 -17 345 -17 c 256,8,9
 248 -17 248 -17 178 26 c 128,-1,10
 108 69 108 69 70.5 150.5 c 128,-1,11
 33 232 33 232 33 347 c 0,12,13
 33 459 33 459 70.5 541 c 128,-1,14
 108 623 108 623 178 666.5 c 128,-1,15
 248 710 248 710 345 710 c 0,16,17
 476 710 476 710 557 634 c 1,18,19
 583 637 583 637 594 650.5 c 128,-1,20
 605 664 605 664 605 690 c 0,21,22
 605 710 605 710 602 724.5 c 128,-1,23
 599 739 599 739 592 758 c 1,24,-1
 694 773 l 1,25,26
 713 737 713 737 713 685 c 0,27,0
 713 634 713 634 686.5 603.5 c 128,-1,1
451.5 160.5 m 128,-1,29
 486 218 486 218 486 347 c 256,30,31
 486 476 486 476 451 533 c 128,-1,32
 416 590 416 590 345 590 c 256,33,34
 274 590 274 590 239.5 532.5 c 128,-1,35
 205 475 205 475 205 347 c 256,36,37
 205 219 205 219 240 161 c 128,-1,38
 275 103 275 103 345 103 c 0,39,28
 417 103 417 103 451.5 160.5 c 128,-1,29
EndSplineSet
Substitution2: "'c2sc' Capitals to Small Capitals lookup 26 subtable" ohorn.sc
Substitution2: "'aalt' Access All Alternates lookup 0 subtable" ohorn.sc
Position2: "'cpsp' Capital Spacing lookup 0 subtable" dx=5 dy=0 dh=10 dv=0
EndChar

StartChar: uni1EDA
Encoding: 7898 7898 204
Width: 715
GlyphClass: 2
Flags: W
AnchorPoint: "Anchor-18" 0 0 basechar 0
AnchorPoint: "Anchor-17" 626 693 basechar 0
AnchorPoint: "Anchor-16" 347 956 basechar 0
AnchorPoint: "Anchor-15" 466 0 basechar 0
AnchorPoint: "Anchor-14" 345 0 basechar 0
LayerCount: 2
Fore
SplineSet
485 838 m 1,0,-1
 245 751 l 1,1,-1
 205 831 l 1,2,-1
 426 956 l 1,3,-1
 485 838 l 1,0,-1
686.5 603.5 m 128,-1,5
 660 573 660 573 611 563 c 1,6,7
 658 477 658 477 658 347 c 0,8,9
 658 234 658 234 620.5 152 c 128,-1,10
 583 70 583 70 512.5 26.5 c 128,-1,11
 442 -17 442 -17 345 -17 c 256,12,13
 248 -17 248 -17 178 26 c 128,-1,14
 108 69 108 69 70.5 150.5 c 128,-1,15
 33 232 33 232 33 347 c 0,16,17
 33 459 33 459 70.5 541 c 128,-1,18
 108 623 108 623 178 666.5 c 128,-1,19
 248 710 248 710 345 710 c 0,20,21
 476 710 476 710 557 634 c 1,22,23
 583 637 583 637 594 650.5 c 128,-1,24
 605 664 605 664 605 690 c 0,25,26
 605 710 605 710 602 724.5 c 128,-1,27
 599 739 599 739 592 758 c 1,28,-1
 694 773 l 1,29,30
 713 737 713 737 713 685 c 0,31,4
 713 634 713 634 686.5 603.5 c 128,-1,5
451.5 160.5 m 128,-1,33
 486 218 486 218 486 347 c 256,34,35
 486 476 486 476 451 533 c 128,-1,36
 416 590 416 590 345 590 c 256,37,38
 274 590 274 590 239.5 532.5 c 128,-1,39
 205 475 205 475 205 347 c 256,40,41
 205 219 205 219 240 161 c 128,-1,42
 275 103 275 103 345 103 c 0,43,32
 417 103 417 103 451.5 160.5 c 128,-1,33
EndSplineSet
Substitution2: "'c2sc' Capitals to Small Capitals lookup 26 subtable" uni1EDB.sc
Substitution2: "'aalt' Access All Alternates lookup 0 subtable" uni1EDB.sc
Position2: "'cpsp' Capital Spacing lookup 0 subtable" dx=5 dy=0 dh=10 dv=0
EndChar

StartChar: uni1EE2
Encoding: 7906 7906 205
Width: 715
GlyphClass: 2
Flags: W
AnchorPoint: "Anchor-18" 0 0 basechar 0
AnchorPoint: "Anchor-17" 626 693 basechar 0
AnchorPoint: "Anchor-16" 345 693 basechar 0
AnchorPoint: "Anchor-15" 466 0 basechar 0
AnchorPoint: "Anchor-14" 347 -210 basechar 0
LayerCount: 2
Fore
SplineSet
686.5 603.5 m 128,-1,1
 660 573 660 573 611 563 c 1,2,3
 658 477 658 477 658 347 c 0,4,5
 658 234 658 234 620.5 152 c 128,-1,6
 583 70 583 70 512.5 26.5 c 128,-1,7
 442 -17 442 -17 345 -17 c 256,8,9
 248 -17 248 -17 178 26 c 128,-1,10
 108 69 108 69 70.5 150.5 c 128,-1,11
 33 232 33 232 33 347 c 0,12,13
 33 459 33 459 70.5 541 c 128,-1,14
 108 623 108 623 178 666.5 c 128,-1,15
 248 710 248 710 345 710 c 0,16,17
 476 710 476 710 557 634 c 1,18,19
 583 637 583 637 594 650.5 c 128,-1,20
 605 664 605 664 605 690 c 0,21,22
 605 710 605 710 602 724.5 c 128,-1,23
 599 739 599 739 592 758 c 1,24,-1
 694 773 l 1,25,26
 713 737 713 737 713 685 c 0,27,0
 713 634 713 634 686.5 603.5 c 128,-1,1
451.5 160.5 m 128,-1,29
 486 218 486 218 486 347 c 256,30,31
 486 476 486 476 451 533 c 128,-1,32
 416 590 416 590 345 590 c 256,33,34
 274 590 274 590 239.5 532.5 c 128,-1,35
 205 475 205 475 205 347 c 256,36,37
 205 219 205 219 240 161 c 128,-1,38
 275 103 275 103 345 103 c 0,39,28
 417 103 417 103 451.5 160.5 c 128,-1,29
412 -85.5 m 128,-1,41
 438 -111 438 -111 438 -150 c 256,42,43
 438 -189 438 -189 412 -214.5 c 128,-1,44
 386 -240 386 -240 345 -240 c 256,45,46
 304 -240 304 -240 277.5 -214.5 c 128,-1,47
 251 -189 251 -189 251 -150 c 256,48,49
 251 -111 251 -111 277.5 -85.5 c 128,-1,50
 304 -60 304 -60 345 -60 c 256,51,40
 386 -60 386 -60 412 -85.5 c 128,-1,41
EndSplineSet
Substitution2: "'c2sc' Capitals to Small Capitals lookup 26 subtable" uni1EE3.sc
Substitution2: "'aalt' Access All Alternates lookup 0 subtable" uni1EE3.sc
Position2: "'cpsp' Capital Spacing lookup 0 subtable" dx=5 dy=0 dh=10 dv=0
EndChar

StartChar: uni1EDC
Encoding: 7900 7900 206
Width: 715
GlyphClass: 2
Flags: W
AnchorPoint: "Anchor-18" 0 0 basechar 0
AnchorPoint: "Anchor-17" 626 693 basechar 0
AnchorPoint: "Anchor-16" 346 956 basechar 0
AnchorPoint: "Anchor-15" 466 0 basechar 0
AnchorPoint: "Anchor-14" 345 0 basechar 0
LayerCount: 2
Fore
SplineSet
481 831 m 1,0,-1
 441 751 l 1,1,-1
 201 838 l 1,2,-1
 260 956 l 1,3,-1
 481 831 l 1,0,-1
686.5 603.5 m 128,-1,5
 660 573 660 573 611 563 c 1,6,7
 658 477 658 477 658 347 c 0,8,9
 658 234 658 234 620.5 152 c 128,-1,10
 583 70 583 70 512.5 26.5 c 128,-1,11
 442 -17 442 -17 345 -17 c 256,12,13
 248 -17 248 -17 178 26 c 128,-1,14
 108 69 108 69 70.5 150.5 c 128,-1,15
 33 232 33 232 33 347 c 0,16,17
 33 459 33 459 70.5 541 c 128,-1,18
 108 623 108 623 178 666.5 c 128,-1,19
 248 710 248 710 345 710 c 0,20,21
 476 710 476 710 557 634 c 1,22,23
 583 637 583 637 594 650.5 c 128,-1,24
 605 664 605 664 605 690 c 0,25,26
 605 710 605 710 602 724.5 c 128,-1,27
 599 739 599 739 592 758 c 1,28,-1
 694 773 l 1,29,30
 713 737 713 737 713 685 c 0,31,4
 713 634 713 634 686.5 603.5 c 128,-1,5
451.5 160.5 m 128,-1,33
 486 218 486 218 486 347 c 256,34,35
 486 476 486 476 451 533 c 128,-1,36
 416 590 416 590 345 590 c 256,37,38
 274 590 274 590 239.5 532.5 c 128,-1,39
 205 475 205 475 205 347 c 256,40,41
 205 219 205 219 240 161 c 128,-1,42
 275 103 275 103 345 103 c 0,43,32
 417 103 417 103 451.5 160.5 c 128,-1,33
EndSplineSet
Substitution2: "'c2sc' Capitals to Small Capitals lookup 26 subtable" uni1EDD.sc
Substitution2: "'aalt' Access All Alternates lookup 0 subtable" uni1EDD.sc
Position2: "'cpsp' Capital Spacing lookup 0 subtable" dx=5 dy=0 dh=10 dv=0
EndChar

StartChar: uni1EDE
Encoding: 7902 7902 207
Width: 715
GlyphClass: 2
Flags: W
AnchorPoint: "Anchor-18" 0 0 basechar 0
AnchorPoint: "Anchor-17" 626 693 basechar 0
AnchorPoint: "Anchor-16" 354 1001 basechar 0
AnchorPoint: "Anchor-15" 466 0 basechar 0
AnchorPoint: "Anchor-14" 345 0 basechar 0
LayerCount: 2
Fore
SplineSet
268 909 m 1,1,-1
 242 975 l 1,2,3
 287 1001 287 1001 351 1001 c 0,4,5
 410 1001 410 1001 442.5 973 c 128,-1,6
 475 945 475 945 475 899 c 0,7,8
 475 822 475 822 391 806 c 1,9,-1
 391 764 l 1,10,-1
 297 764 l 1,11,-1
 297 853 l 1,12,13
 335 855 335 855 351.5 863.5 c 128,-1,14
 368 872 368 872 368 891 c 0,15,16
 368 906 368 906 357.5 914 c 128,-1,17
 347 922 347 922 328 922 c 0,18,0
 301 922 301 922 268 909 c 1,1,-1
686.5 603.5 m 128,-1,20
 660 573 660 573 611 563 c 1,21,22
 658 477 658 477 658 347 c 0,23,24
 658 234 658 234 620.5 152 c 128,-1,25
 583 70 583 70 512.5 26.5 c 128,-1,26
 442 -17 442 -17 345 -17 c 256,27,28
 248 -17 248 -17 178 26 c 128,-1,29
 108 69 108 69 70.5 150.5 c 128,-1,30
 33 232 33 232 33 347 c 0,31,32
 33 459 33 459 70.5 541 c 128,-1,33
 108 623 108 623 178 666.5 c 128,-1,34
 248 710 248 710 345 710 c 0,35,36
 476 710 476 710 557 634 c 1,37,38
 583 637 583 637 594 650.5 c 128,-1,39
 605 664 605 664 605 690 c 0,40,41
 605 710 605 710 602 724.5 c 128,-1,42
 599 739 599 739 592 758 c 1,43,-1
 694 773 l 1,44,45
 713 737 713 737 713 685 c 0,46,19
 713 634 713 634 686.5 603.5 c 128,-1,20
451.5 160.5 m 128,-1,48
 486 218 486 218 486 347 c 256,49,50
 486 476 486 476 451 533 c 128,-1,51
 416 590 416 590 345 590 c 256,52,53
 274 590 274 590 239.5 532.5 c 128,-1,54
 205 475 205 475 205 347 c 256,55,56
 205 219 205 219 240 161 c 128,-1,57
 275 103 275 103 345 103 c 0,58,47
 417 103 417 103 451.5 160.5 c 128,-1,48
EndSplineSet
Substitution2: "'c2sc' Capitals to Small Capitals lookup 26 subtable" uni1EDF.sc
Substitution2: "'aalt' Access All Alternates lookup 0 subtable" uni1EDF.sc
Position2: "'cpsp' Capital Spacing lookup 0 subtable" dx=5 dy=0 dh=10 dv=0
EndChar

StartChar: uni1EE0
Encoding: 7904 7904 208
Width: 715
GlyphClass: 2
Flags: W
AnchorPoint: "Anchor-18" 0 0 basechar 0
AnchorPoint: "Anchor-17" 626 693 basechar 0
AnchorPoint: "Anchor-16" 347 918 basechar 0
AnchorPoint: "Anchor-15" 466 0 basechar 0
AnchorPoint: "Anchor-14" 345 0 basechar 0
LayerCount: 2
Fore
SplineSet
260.5 795.5 m 128,-1,1
 249 785 249 785 236 762 c 1,2,-1
 157 800 l 1,3,4
 177 852 177 852 210.5 885 c 128,-1,5
 244 918 244 918 286 918 c 0,6,7
 309 918 309 918 325.5 910.5 c 128,-1,8
 342 903 342 903 362 890 c 0,9,10
 376 881 376 881 384.5 877 c 128,-1,11
 393 873 393 873 402 873 c 0,12,13
 418 873 418 873 429.5 883.5 c 128,-1,14
 441 894 441 894 454 917 c 1,15,-1
 533 878 l 1,16,17
 512 825 512 825 478.5 793 c 128,-1,18
 445 761 445 761 403 761 c 0,19,20
 381 761 381 761 365 768 c 128,-1,21
 349 775 349 775 330 788 c 0,22,23
 305 806 305 806 289 806 c 0,24,0
 272 806 272 806 260.5 795.5 c 128,-1,1
686.5 603.5 m 128,-1,26
 660 573 660 573 611 563 c 1,27,28
 658 477 658 477 658 347 c 0,29,30
 658 234 658 234 620.5 152 c 128,-1,31
 583 70 583 70 512.5 26.5 c 128,-1,32
 442 -17 442 -17 345 -17 c 256,33,34
 248 -17 248 -17 178 26 c 128,-1,35
 108 69 108 69 70.5 150.5 c 128,-1,36
 33 232 33 232 33 347 c 0,37,38
 33 459 33 459 70.5 541 c 128,-1,39
 108 623 108 623 178 666.5 c 128,-1,40
 248 710 248 710 345 710 c 0,41,42
 476 710 476 710 557 634 c 1,43,44
 583 637 583 637 594 650.5 c 128,-1,45
 605 664 605 664 605 690 c 0,46,47
 605 710 605 710 602 724.5 c 128,-1,48
 599 739 599 739 592 758 c 1,49,-1
 694 773 l 1,50,51
 713 737 713 737 713 685 c 0,52,25
 713 634 713 634 686.5 603.5 c 128,-1,26
451.5 160.5 m 128,-1,54
 486 218 486 218 486 347 c 256,55,56
 486 476 486 476 451 533 c 128,-1,57
 416 590 416 590 345 590 c 256,58,59
 274 590 274 590 239.5 532.5 c 128,-1,60
 205 475 205 475 205 347 c 256,61,62
 205 219 205 219 240 161 c 128,-1,63
 275 103 275 103 345 103 c 0,64,53
 417 103 417 103 451.5 160.5 c 128,-1,54
EndSplineSet
Substitution2: "'c2sc' Capitals to Small Capitals lookup 26 subtable" uni1EE1.sc
Substitution2: "'aalt' Access All Alternates lookup 0 subtable" uni1EE1.sc
Position2: "'cpsp' Capital Spacing lookup 0 subtable" dx=5 dy=0 dh=10 dv=0
EndChar

StartChar: uni01A2
Encoding: 418 418 210
Width: 960
GlyphClass: 2
Flags: W
AnchorPoint: "Anchor-18" 0 0 basechar 0
AnchorPoint: "Anchor-17" 0 0 basechar 0
AnchorPoint: "Anchor-16" 480 693 basechar 0
AnchorPoint: "Anchor-15" 0 0 basechar 0
AnchorPoint: "Anchor-14" 480 -210 basechar 0
LayerCount: 2
Fore
SplineSet
842 662 m 128,-1,1
 896 613 896 613 896 519 c 2,2,-1
 896 -210 l 1,3,-1
 732 -210 l 1,4,-1
 732 525 l 2,5,6
 732 596 732 596 672 596 c 0,7,8
 638 596 638 596 599 579 c 1,9,10
 658 487 658 487 658 347 c 0,11,12
 658 234 658 234 620.5 152 c 128,-1,13
 583 70 583 70 512.5 26.5 c 128,-1,14
 442 -17 442 -17 345 -17 c 256,15,16
 248 -17 248 -17 178 26 c 128,-1,17
 108 69 108 69 70.5 150.5 c 128,-1,18
 33 232 33 232 33 347 c 0,19,20
 33 459 33 459 70.5 541 c 128,-1,21
 108 623 108 623 178 666.5 c 128,-1,22
 248 710 248 710 345 710 c 0,23,24
 450 710 450 710 524 657 c 1,25,26
 563 684 563 684 603.5 697.5 c 128,-1,27
 644 711 644 711 692 711 c 0,28,0
 788 711 788 711 842 662 c 128,-1,1
451.5 160.5 m 128,-1,30
 486 218 486 218 486 347 c 256,31,32
 486 476 486 476 451 533 c 128,-1,33
 416 590 416 590 345 590 c 256,34,35
 274 590 274 590 239.5 532.5 c 128,-1,36
 205 475 205 475 205 347 c 256,37,38
 205 219 205 219 240 161 c 128,-1,39
 275 103 275 103 345 103 c 0,40,29
 417 103 417 103 451.5 160.5 c 128,-1,30
EndSplineSet
Substitution2: "'c2sc' Capitals to Small Capitals lookup 26 subtable" uni01A3.sc
Substitution2: "'aalt' Access All Alternates lookup 0 subtable" uni01A3.sc
Position2: "'cpsp' Capital Spacing lookup 0 subtable" dx=5 dy=0 dh=10 dv=0
EndChar

StartChar: uni1E50
Encoding: 7760 7760 214
Width: 691
GlyphClass: 2
Flags: W
AnchorPoint: "Anchor-18" 0 0 basechar 0
AnchorPoint: "Anchor-17" 574 693 basechar 0
AnchorPoint: "Anchor-16" 347 1114 basechar 0
AnchorPoint: "Anchor-15" 466 0 basechar 0
AnchorPoint: "Anchor-14" 345 0 basechar 0
LayerCount: 2
Fore
SplineSet
261 1114 m 1,0,-1
 482 989 l 1,1,-1
 442 909 l 1,2,-1
 202 996 l 1,3,-1
 261 1114 l 1,0,-1
497 761 m 1,4,-1
 192 761 l 1,5,-1
 192 871 l 1,6,-1
 497 871 l 1,7,-1
 497 761 l 1,4,-1
575.5 615 m 128,-1,9
 658 520 658 520 658 347 c 0,10,11
 658 234 658 234 620.5 152 c 128,-1,12
 583 70 583 70 512.5 26.5 c 128,-1,13
 442 -17 442 -17 345 -17 c 256,14,15
 248 -17 248 -17 178 26 c 128,-1,16
 108 69 108 69 70.5 150.5 c 128,-1,17
 33 232 33 232 33 347 c 0,18,19
 33 459 33 459 70.5 541 c 128,-1,20
 108 623 108 623 178 666.5 c 128,-1,21
 248 710 248 710 345 710 c 0,22,8
 493 710 493 710 575.5 615 c 128,-1,9
239.5 532.5 m 128,-1,24
 205 475 205 475 205 347 c 256,25,26
 205 219 205 219 240 161 c 128,-1,27
 275 103 275 103 345 103 c 0,28,29
 417 103 417 103 451.5 160.5 c 128,-1,30
 486 218 486 218 486 347 c 256,31,32
 486 476 486 476 451 533 c 128,-1,33
 416 590 416 590 345 590 c 256,34,23
 274 590 274 590 239.5 532.5 c 128,-1,24
EndSplineSet
Substitution2: "'c2sc' Capitals to Small Capitals lookup 26 subtable" uni1E51.sc
Substitution2: "'aalt' Access All Alternates lookup 0 subtable" uni1E51.sc
Position2: "'cpsp' Capital Spacing lookup 0 subtable" dx=5 dy=0 dh=10 dv=0
EndChar

StartChar: uniA7B6
Encoding: 42934 42934 215
Width: 887
GlyphClass: 2
Flags: W
AnchorPoint: "Anchor-18" 0 0 basechar 0
AnchorPoint: "Anchor-17" 0 0 basechar 0
AnchorPoint: "Anchor-16" 443 693 basechar 0
AnchorPoint: "Anchor-15" 0 0 basechar 0
AnchorPoint: "Anchor-14" 443 0 basechar 0
LayerCount: 2
Fore
SplineSet
817.5 520.5 m 128,-1,1
 839 430 839 430 839 302 c 0,2,3
 839 -17 839 -17 613 -17 c 0,4,5
 478 -17 478 -17 442 107 c 1,6,7
 426 45 426 45 383 14 c 128,-1,8
 340 -17 340 -17 278 -17 c 0,9,10
 162 -17 162 -17 105 59.5 c 128,-1,11
 48 136 48 136 48 302 c 0,12,13
 48 430 48 430 69 520 c 128,-1,14
 90 610 90 610 126 693 c 1,15,-1
 278 693 l 1,16,17
 245 595 245 595 228.5 510 c 128,-1,18
 212 425 212 425 212 311 c 256,19,20
 212 197 212 197 231 150 c 128,-1,21
 250 103 250 103 296 103 c 0,22,23
 362 103 362 103 362 193 c 2,24,-1
 362 399 l 1,25,-1
 524 399 l 1,26,-1
 524 193 l 2,27,28
 524 144 524 144 540.5 123.5 c 128,-1,29
 557 103 557 103 592 103 c 0,30,31
 635 103 635 103 655 149 c 128,-1,32
 675 195 675 195 675 310 c 256,33,34
 675 425 675 425 656.5 510.5 c 128,-1,35
 638 596 638 596 602 693 c 1,36,-1
 760 693 l 1,37,0
 796 611 796 611 817.5 520.5 c 128,-1,1
EndSplineSet
Substitution2: "'c2sc' Capitals to Small Capitals lookup 26 subtable" uniA7B6.sc
Substitution2: "'aalt' Access All Alternates lookup 0 subtable" uniA7B6.sc
Position2: "'cpsp' Capital Spacing lookup 0 subtable" dx=5 dy=0 dh=10 dv=0
EndChar

StartChar: uni01EA
Encoding: 490 490 216
Width: 691
GlyphClass: 2
Flags: W
AnchorPoint: "Anchor-18" 0 0 basechar 0
AnchorPoint: "Anchor-17" 574 693 basechar 0
AnchorPoint: "Anchor-16" 345 693 basechar 0
AnchorPoint: "Anchor-15" 466 0 basechar 0
AnchorPoint: "Anchor-14" 345 0 basechar 0
LayerCount: 2
Fore
SplineSet
605 122.5 m 128,-1,1
 552 32 552 32 456 0 c 0,2,3
 338 -44 338 -44 338 -102 c 0,4,5
 338 -148 338 -148 391 -148 c 0,6,7
 415 -148 415 -148 452 -140 c 1,8,-1
 441 -238 l 1,9,10
 406 -246 406 -246 371 -246 c 0,11,12
 306 -246 306 -246 265 -214 c 128,-1,13
 224 -182 224 -182 224 -129 c 0,14,15
 224 -59 224 -59 287 -13 c 1,16,17
 166 6 166 6 99.5 99.5 c 128,-1,18
 33 193 33 193 33 347 c 0,19,20
 33 459 33 459 70.5 541 c 128,-1,21
 108 623 108 623 178 666.5 c 128,-1,22
 248 710 248 710 345 710 c 0,23,24
 493 710 493 710 575.5 615 c 128,-1,25
 658 520 658 520 658 347 c 0,26,0
 658 213 658 213 605 122.5 c 128,-1,1
451.5 160.5 m 128,-1,28
 486 218 486 218 486 347 c 256,29,30
 486 476 486 476 451 533 c 128,-1,31
 416 590 416 590 345 590 c 256,32,33
 274 590 274 590 239.5 532.5 c 128,-1,34
 205 475 205 475 205 347 c 256,35,36
 205 219 205 219 240 161 c 128,-1,37
 275 103 275 103 345 103 c 0,38,27
 417 103 417 103 451.5 160.5 c 128,-1,28
EndSplineSet
Substitution2: "'c2sc' Capitals to Small Capitals lookup 26 subtable" uni01EB.sc
Substitution2: "'aalt' Access All Alternates lookup 0 subtable" uni01EB.sc
Position2: "'cpsp' Capital Spacing lookup 0 subtable" dx=5 dy=0 dh=10 dv=0
EndChar

StartChar: uni01EC
Encoding: 492 492 217
Width: 691
GlyphClass: 2
Flags: W
AnchorPoint: "Anchor-18" 0 0 basechar 0
AnchorPoint: "Anchor-17" 574 693 basechar 0
AnchorPoint: "Anchor-16" 347 891 basechar 0
AnchorPoint: "Anchor-15" 466 0 basechar 0
AnchorPoint: "Anchor-14" 345 0 basechar 0
LayerCount: 2
Fore
SplineSet
497 891 m 1,0,-1
 497 781 l 1,1,-1
 192 781 l 1,2,-1
 192 891 l 1,3,-1
 497 891 l 1,0,-1
605 122.5 m 128,-1,5
 552 32 552 32 456 0 c 0,6,7
 338 -44 338 -44 338 -102 c 0,8,9
 338 -148 338 -148 391 -148 c 0,10,11
 415 -148 415 -148 452 -140 c 1,12,-1
 441 -238 l 1,13,14
 406 -246 406 -246 371 -246 c 0,15,16
 306 -246 306 -246 265 -214 c 128,-1,17
 224 -182 224 -182 224 -129 c 0,18,19
 224 -59 224 -59 287 -13 c 1,20,21
 166 6 166 6 99.5 99.5 c 128,-1,22
 33 193 33 193 33 347 c 0,23,24
 33 459 33 459 70.5 541 c 128,-1,25
 108 623 108 623 178 666.5 c 128,-1,26
 248 710 248 710 345 710 c 0,27,28
 493 710 493 710 575.5 615 c 128,-1,29
 658 520 658 520 658 347 c 0,30,4
 658 213 658 213 605 122.5 c 128,-1,5
451.5 160.5 m 128,-1,32
 486 218 486 218 486 347 c 256,33,34
 486 476 486 476 451 533 c 128,-1,35
 416 590 416 590 345 590 c 256,36,37
 274 590 274 590 239.5 532.5 c 128,-1,38
 205 475 205 475 205 347 c 256,39,40
 205 219 205 219 240 161 c 128,-1,41
 275 103 275 103 345 103 c 0,42,31
 417 103 417 103 451.5 160.5 c 128,-1,32
EndSplineSet
Substitution2: "'c2sc' Capitals to Small Capitals lookup 26 subtable" uni01ED.sc
Substitution2: "'aalt' Access All Alternates lookup 0 subtable" uni01ED.sc
Position2: "'cpsp' Capital Spacing lookup 0 subtable" dx=5 dy=0 dh=10 dv=0
EndChar

StartChar: uni0186
Encoding: 390 390 218
Width: 575
GlyphClass: 2
Flags: W
AnchorPoint: "Anchor-18" 213 351 basechar 0
AnchorPoint: "Anchor-17" 0 0 basechar 0
AnchorPoint: "Anchor-16" 244 693 basechar 0
AnchorPoint: "Anchor-15" 0 0 basechar 0
AnchorPoint: "Anchor-14" 244 0 basechar 0
LayerCount: 2
Fore
SplineSet
399.5 667.5 m 128,-1,1
 467 625 467 625 504.5 543.5 c 128,-1,2
 542 462 542 462 542 348 c 0,3,4
 542 232 542 232 503 149.5 c 128,-1,5
 464 67 464 67 393 25 c 128,-1,6
 322 -17 322 -17 228 -17 c 0,7,8
 159 -17 159 -17 104 8 c 128,-1,9
 49 33 49 33 8 72 c 1,10,-1
 81 165 l 1,11,12
 118 138 118 138 149 124 c 128,-1,13
 180 110 180 110 220 110 c 0,14,15
 291 110 291 110 330.5 167 c 128,-1,16
 370 224 370 224 370 348 c 0,17,18
 370 589 370 589 232 589 c 0,19,20
 193 589 193 589 160.5 576.5 c 128,-1,21
 128 564 128 564 95 539 c 1,22,-1
 16 634 l 1,23,24
 63 672 63 672 117.5 691 c 128,-1,25
 172 710 172 710 242 710 c 0,26,0
 332 710 332 710 399.5 667.5 c 128,-1,1
EndSplineSet
Substitution2: "'c2sc' Capitals to Small Capitals lookup 26 subtable" uni0254.sc
Substitution2: "'aalt' Access All Alternates lookup 0 subtable" uni0254.sc
Position2: "'cpsp' Capital Spacing lookup 0 subtable" dx=5 dy=0 dh=10 dv=0
EndChar

StartChar: Oslash
Encoding: 216 216 219
Width: 691
GlyphClass: 2
Flags: W
AnchorPoint: "Anchor-18" 0 0 basechar 0
AnchorPoint: "Anchor-17" 0 0 basechar 0
AnchorPoint: "Anchor-16" 343 727 basechar 0
AnchorPoint: "Anchor-15" 0 0 basechar 0
AnchorPoint: "Anchor-14" 345 0 basechar 0
LayerCount: 2
Fore
SplineSet
621 543 m 128,-1,1
 658 461 658 461 658 347 c 0,2,3
 658 234 658 234 620.5 152 c 128,-1,4
 583 70 583 70 512.5 26.5 c 128,-1,5
 442 -17 442 -17 345 -17 c 0,6,7
 320 -17 320 -17 296 -14 c 1,8,-1
 260 -134 l 1,9,-1
 136 -102 l 1,10,-1
 176 27 l 1,11,12
 107 70 107 70 70 151.5 c 128,-1,13
 33 233 33 233 33 347 c 0,14,15
 33 459 33 459 70.5 541 c 128,-1,16
 108 623 108 623 178 666.5 c 128,-1,17
 248 710 248 710 345 710 c 0,18,19
 371 710 371 710 395 707 c 1,20,-1
 432 828 l 1,21,-1
 555 795 l 1,22,-1
 514 667 l 1,23,0
 584 625 584 625 621 543 c 128,-1,1
239.5 532.5 m 128,-1,25
 205 475 205 475 205 347 c 0,26,27
 205 203 205 203 243 148 c 1,28,-1
 375 588 l 1,29,30
 357 590 357 590 345 590 c 0,31,24
 274 590 274 590 239.5 532.5 c 128,-1,25
451.5 160.5 m 128,-1,33
 486 218 486 218 486 347 c 0,34,35
 486 493 486 493 448 546 c 1,36,-1
 315 105 l 1,37,38
 335 103 335 103 345 103 c 0,39,32
 417 103 417 103 451.5 160.5 c 128,-1,33
EndSplineSet
Substitution2: "'c2sc' Capitals to Small Capitals lookup 26 subtable" oslash.sc
Substitution2: "'aalt' Access All Alternates lookup 0 subtable" oslash.sc
Position2: "'cpsp' Capital Spacing lookup 0 subtable" dx=5 dy=0 dh=10 dv=0
EndChar

StartChar: OE
Encoding: 338 338 224
Width: 905
GlyphClass: 2
Flags: W
AnchorPoint: "Anchor-18" 0 0 basechar 0
AnchorPoint: "Anchor-17" 0 0 basechar 0
AnchorPoint: "Anchor-16" 455 693 basechar 0
AnchorPoint: "Anchor-15" 0 0 basechar 0
AnchorPoint: "Anchor-14" 455 0 basechar 0
LayerCount: 2
Fore
SplineSet
566 118 m 1,1,-1
 869 118 l 1,2,-1
 869 0 l 1,3,-1
 424 0 l 1,4,5
 381 -17 381 -17 329 -17 c 0,6,7
 239 -17 239 -17 172.5 26 c 128,-1,8
 106 69 106 69 69.5 151 c 128,-1,9
 33 233 33 233 33 347 c 0,10,11
 33 459 33 459 69.5 541 c 128,-1,12
 106 623 106 623 173 666.5 c 128,-1,13
 240 710 240 710 329 710 c 0,14,15
 383 710 383 710 428 693 c 1,16,-1
 869 693 l 1,17,-1
 852 576 l 1,18,-1
 570 576 l 1,19,20
 622 508 622 508 634 410 c 1,21,-1
 821 410 l 1,22,-1
 821 295 l 1,23,-1
 635 295 l 1,24,0
 622 189 622 189 566 118 c 1,1,-1
433 161 m 128,-1,26
 466 219 466 219 466 347 c 0,27,28
 466 474 466 474 432.5 532 c 128,-1,29
 399 590 399 590 335 590 c 256,30,31
 271 590 271 590 238 532 c 128,-1,32
 205 474 205 474 205 347 c 0,33,34
 205 103 205 103 335 103 c 0,35,25
 400 103 400 103 433 161 c 128,-1,26
EndSplineSet
Substitution2: "'c2sc' Capitals to Small Capitals lookup 26 subtable" oe.sc
Substitution2: "'aalt' Access All Alternates lookup 0 subtable" oe.sc
Position2: "'cpsp' Capital Spacing lookup 0 subtable" dx=5 dy=0 dh=10 dv=0
EndChar

StartChar: P
Encoding: 80 80 225
Width: 600
GlyphClass: 2
Flags: W
AnchorPoint: "Anchor-18" 0 0 basechar 0
AnchorPoint: "Anchor-17" 0 0 basechar 0
AnchorPoint: "Anchor-16" 300 693 basechar 0
AnchorPoint: "Anchor-15" 0 0 basechar 0
AnchorPoint: "Anchor-14" 147 0 basechar 0
LayerCount: 2
Fore
SplineSet
502 636 m 128,-1,1
 578 579 578 579 578 467 c 0,2,3
 578 350 578 350 503.5 290.5 c 128,-1,4
 429 231 429 231 304 231 c 2,5,-1
 229 231 l 1,6,-1
 229 0 l 1,7,-1
 65 0 l 1,8,-1
 65 693 l 1,9,-1
 289 693 l 2,10,0
 426 693 426 693 502 636 c 128,-1,1
378.5 376.5 m 128,-1,12
 409 404 409 404 409 467 c 0,13,14
 409 576 409 576 287 576 c 2,15,-1
 229 576 l 1,16,-1
 229 349 l 1,17,-1
 290 349 l 2,18,11
 348 349 348 349 378.5 376.5 c 128,-1,12
EndSplineSet
Substitution2: "'c2sc' Capitals to Small Capitals lookup 26 subtable" p.sc
Substitution2: "'aalt' Access All Alternates lookup 0 subtable" p.sc
Position2: "'cpsp' Capital Spacing lookup 0 subtable" dx=5 dy=0 dh=10 dv=0
EndChar

StartChar: uni01A4
Encoding: 420 420 228
Width: 741
GlyphClass: 2
Flags: W
AnchorPoint: "Anchor-18" 0 0 basechar 0
AnchorPoint: "Anchor-17" 0 0 basechar 0
AnchorPoint: "Anchor-16" 442 693 basechar 0
AnchorPoint: "Anchor-15" 0 0 basechar 0
AnchorPoint: "Anchor-14" 289 0 basechar 0
LayerCount: 2
Fore
SplineSet
644 636 m 128,-1,1
 720 579 720 579 720 467 c 0,2,3
 720 350 720 350 645.5 290.5 c 128,-1,4
 571 231 571 231 446 231 c 2,5,-1
 371 231 l 1,6,-1
 371 0 l 1,7,-1
 207 0 l 1,8,-1
 207 576 l 1,9,-1
 178 576 l 2,10,11
 156 576 156 576 144 565 c 128,-1,12
 132 554 132 554 132 534 c 0,13,14
 132 508 132 508 149 469 c 1,15,-1
 48 424 l 1,16,17
 28 454 28 454 16 483 c 128,-1,18
 4 512 4 512 4 544 c 0,19,20
 4 613 4 613 53.5 653 c 128,-1,21
 103 693 103 693 187 693 c 2,22,-1
 431 693 l 2,23,0
 568 693 568 693 644 636 c 128,-1,1
520.5 376.5 m 128,-1,25
 551 404 551 404 551 467 c 0,26,27
 551 576 551 576 429 576 c 2,28,-1
 371 576 l 1,29,-1
 371 349 l 1,30,-1
 432 349 l 2,31,24
 490 349 490 349 520.5 376.5 c 128,-1,25
EndSplineSet
Substitution2: "'c2sc' Capitals to Small Capitals lookup 26 subtable" uni01A5.sc
Substitution2: "'aalt' Access All Alternates lookup 0 subtable" uni01A5.sc
Position2: "'cpsp' Capital Spacing lookup 0 subtable" dx=5 dy=0 dh=10 dv=0
EndChar

StartChar: Thorn
Encoding: 222 222 229
Width: 600
GlyphClass: 2
Flags: W
AnchorPoint: "Anchor-18" 0 0 basechar 0
AnchorPoint: "Anchor-17" 0 0 basechar 0
AnchorPoint: "Anchor-16" 300 693 basechar 0
AnchorPoint: "Anchor-15" 0 0 basechar 0
AnchorPoint: "Anchor-14" 300 0 basechar 0
LayerCount: 2
Fore
SplineSet
502 527 m 128,-1,1
 578 469 578 469 578 356 c 0,2,3
 578 236 578 236 503.5 175 c 128,-1,4
 429 114 429 114 304 114 c 2,5,-1
 229 114 l 1,6,-1
 229 0 l 1,7,-1
 65 0 l 1,8,-1
 65 693 l 1,9,-1
 229 693 l 1,10,-1
 229 585 l 1,11,-1
 289 585 l 2,12,0
 426 585 426 585 502 527 c 128,-1,1
378.5 261.5 m 128,-1,14
 409 290 409 290 409 356 c 0,15,16
 409 413 409 413 378.5 440.5 c 128,-1,17
 348 468 348 468 287 468 c 2,18,-1
 229 468 l 1,19,-1
 229 233 l 1,20,-1
 290 233 l 2,21,13
 348 233 348 233 378.5 261.5 c 128,-1,14
EndSplineSet
Substitution2: "'c2sc' Capitals to Small Capitals lookup 26 subtable" thorn.sc
Substitution2: "'aalt' Access All Alternates lookup 0 subtable" thorn.sc
Position2: "'cpsp' Capital Spacing lookup 0 subtable" dx=5 dy=0 dh=10 dv=0
EndChar

StartChar: Q
Encoding: 81 81 230
Width: 690
GlyphClass: 2
Flags: W
AnchorPoint: "Anchor-18" 0 0 basechar 0
AnchorPoint: "Anchor-17" 0 0 basechar 0
AnchorPoint: "Anchor-16" 345 693 basechar 0
AnchorPoint: "Anchor-15" 0 0 basechar 0
AnchorPoint: "Anchor-14" 345 0 basechar 0
LayerCount: 2
Fore
SplineSet
608 29.5 m 128,-1,1
 656 14 656 14 700 -18 c 1,2,-1
 601 -147 l 1,3,4
 544 -83 544 -83 484 -48.5 c 128,-1,5
 424 -14 424 -14 335 -14 c 0,6,7
 242 -14 242 -14 174 28.5 c 128,-1,8
 106 71 106 71 69.5 152 c 128,-1,9
 33 233 33 233 33 347 c 0,10,11
 33 459 33 459 70.5 541 c 128,-1,12
 108 623 108 623 178 666.5 c 128,-1,13
 248 710 248 710 345 710 c 0,14,15
 493 710 493 710 575.5 615 c 128,-1,16
 658 520 658 520 658 347 c 0,17,18
 658 135 658 135 495 45 c 1,19,0
 560 45 560 45 608 29.5 c 128,-1,1
240 161 m 128,-1,21
 275 103 275 103 345 103 c 0,22,23
 417 103 417 103 451.5 160.5 c 128,-1,24
 486 218 486 218 486 347 c 256,25,26
 486 476 486 476 451 533 c 128,-1,27
 416 590 416 590 345 590 c 256,28,29
 274 590 274 590 239.5 532.5 c 128,-1,30
 205 475 205 475 205 347 c 256,31,20
 205 219 205 219 240 161 c 128,-1,21
EndSplineSet
Substitution2: "'c2sc' Capitals to Small Capitals lookup 26 subtable" q.sc
Substitution2: "'aalt' Access All Alternates lookup 0 subtable" q.sc
Position2: "'cpsp' Capital Spacing lookup 0 subtable" dx=5 dy=0 dh=10 dv=0
EndChar

StartChar: uni024A
Encoding: 586 586 231
Width: 673
GlyphClass: 2
Flags: W
AnchorPoint: "Anchor-18" 0 0 basechar 0
AnchorPoint: "Anchor-17" 0 0 basechar 0
AnchorPoint: "Anchor-16" 336 693 basechar 0
AnchorPoint: "Anchor-15" 0 0 basechar 0
AnchorPoint: "Anchor-14" 336 -210 basechar 0
LayerCount: 2
Fore
SplineSet
786 -179 m 1,0,1
 729 -222 729 -222 645 -222 c 0,2,3
 552 -222 552 -222 498 -173.5 c 128,-1,4
 444 -125 444 -125 444 -31 c 2,5,-1
 444 36 l 1,6,7
 389 -17 389 -17 306 -17 c 0,8,9
 225 -17 225 -17 163.5 24.5 c 128,-1,10
 102 66 102 66 67.5 145.5 c 128,-1,11
 33 225 33 225 33 335 c 0,12,13
 33 451 33 451 68.5 536 c 128,-1,14
 104 621 104 621 166.5 665.5 c 128,-1,15
 229 710 229 710 309 710 c 0,16,17
 394 710 394 710 456 653 c 1,18,-1
 462 693 l 1,19,-1
 608 693 l 1,20,-1
 608 -42 l 2,21,22
 608 -72 608 -72 622 -87.5 c 128,-1,23
 636 -103 636 -103 662 -103 c 0,24,25
 682 -103 682 -103 696 -98 c 128,-1,26
 710 -93 710 -93 732 -82 c 1,27,-1
 786 -179 l 1,0,1
444 141 m 1,29,-1
 444 549 l 1,30,31
 400 590 400 590 342 590 c 0,32,33
 274 590 274 590 239.5 530 c 128,-1,34
 205 470 205 470 205 335 c 0,35,36
 205 209 205 209 239.5 154.5 c 128,-1,37
 274 100 274 100 339 100 c 0,38,28
 400 100 400 100 444 141 c 1,29,-1
EndSplineSet
Substitution2: "'c2sc' Capitals to Small Capitals lookup 26 subtable" uni024B.sc
Substitution2: "'aalt' Access All Alternates lookup 0 subtable" uni024B.sc
Position2: "'cpsp' Capital Spacing lookup 0 subtable" dx=5 dy=0 dh=10 dv=0
EndChar

StartChar: R
Encoding: 82 82 232
Width: 617
GlyphClass: 2
Flags: W
AnchorPoint: "Anchor-18" 0 0 basechar 0
AnchorPoint: "Anchor-17" 0 0 basechar 0
AnchorPoint: "Anchor-16" 301 693 basechar 0
AnchorPoint: "Anchor-15" 0 0 basechar 0
AnchorPoint: "Anchor-14" 311 0 basechar 0
LayerCount: 2
Fore
SplineSet
293 265 m 1,0,-1
 229 265 l 1,1,-1
 229 0 l 1,2,-1
 65 0 l 1,3,-1
 65 693 l 1,4,-1
 292 693 l 2,5,6
 434 693 434 693 505.5 641 c 128,-1,7
 577 589 577 589 577 482 c 0,8,9
 577 415 577 415 545 370.5 c 128,-1,10
 513 326 513 326 444 295 c 1,11,-1
 620 0 l 1,12,-1
 435 0 l 1,13,-1
 293 265 l 1,0,-1
229 378 m 1,14,-1
 298 378 l 2,15,16
 353 378 353 378 380.5 403 c 128,-1,17
 408 428 408 428 408 482 c 0,18,19
 408 532 408 532 378.5 555 c 128,-1,20
 349 578 349 578 288 578 c 2,21,-1
 229 578 l 1,22,-1
 229 378 l 1,14,-1
EndSplineSet
Substitution2: "'c2sc' Capitals to Small Capitals lookup 26 subtable" r.sc
Substitution2: "'aalt' Access All Alternates lookup 0 subtable" r.sc
Position2: "'cpsp' Capital Spacing lookup 0 subtable" dx=5 dy=0 dh=10 dv=0
EndChar

StartChar: uni024C
Encoding: 588 588 239
Width: 631
GlyphClass: 2
Flags: W
AnchorPoint: "Anchor-18" 0 0 basechar 0
AnchorPoint: "Anchor-17" 0 0 basechar 0
AnchorPoint: "Anchor-16" 315 693 basechar 0
AnchorPoint: "Anchor-15" 0 0 basechar 0
AnchorPoint: "Anchor-14" 325 0 basechar 0
LayerCount: 2
Fore
SplineSet
449 0 m 1,0,-1
 307 265 l 1,1,-1
 243 265 l 1,2,-1
 243 0 l 1,3,-1
 79 0 l 1,4,-1
 79 265 l 1,5,-1
 14 265 l 1,6,-1
 14 378 l 1,7,-1
 79 378 l 1,8,-1
 79 693 l 1,9,-1
 306 693 l 2,10,11
 448 693 448 693 519.5 641 c 128,-1,12
 591 589 591 589 591 482 c 0,13,14
 591 415 591 415 559 370.5 c 128,-1,15
 527 326 527 326 458 295 c 1,16,-1
 634 0 l 1,17,-1
 449 0 l 1,0,-1
312 378 m 2,18,19
 367 378 367 378 394.5 403 c 128,-1,20
 422 428 422 428 422 482 c 0,21,22
 422 532 422 532 392.5 555 c 128,-1,23
 363 578 363 578 302 578 c 2,24,-1
 243 578 l 1,25,-1
 243 378 l 1,26,-1
 312 378 l 2,18,19
EndSplineSet
Substitution2: "'c2sc' Capitals to Small Capitals lookup 26 subtable" uni024D.sc
Substitution2: "'aalt' Access All Alternates lookup 0 subtable" uni024D.sc
Position2: "'cpsp' Capital Spacing lookup 0 subtable" dx=5 dy=0 dh=10 dv=0
EndChar

StartChar: uni2C64
Encoding: 11364 11364 240
Width: 617
GlyphClass: 2
Flags: W
AnchorPoint: "Anchor-18" 0 0 basechar 0
AnchorPoint: "Anchor-17" 0 0 basechar 0
AnchorPoint: "Anchor-16" 301 693 basechar 0
AnchorPoint: "Anchor-15" 0 0 basechar 0
AnchorPoint: "Anchor-14" 311 0 basechar 0
LayerCount: 2
Fore
SplineSet
228 0 m 1,0,-1
 228 -42 l 2,1,2
 228 -72 228 -72 242 -87.5 c 128,-1,3
 256 -103 256 -103 282 -103 c 0,4,5
 302 -103 302 -103 316 -98 c 128,-1,6
 330 -93 330 -93 352 -82 c 1,7,-1
 406 -179 l 1,8,9
 349 -222 349 -222 265 -222 c 0,10,11
 172 -222 172 -222 118 -173.5 c 128,-1,12
 64 -125 64 -125 64 -31 c 2,13,-1
 64 1 l 1,14,-1
 65 1 l 1,15,-1
 65 693 l 1,16,-1
 292 693 l 2,17,18
 434 693 434 693 505.5 641 c 128,-1,19
 577 589 577 589 577 482 c 0,20,21
 577 415 577 415 545 370.5 c 128,-1,22
 513 326 513 326 444 295 c 1,23,-1
 620 0 l 1,24,-1
 435 0 l 1,25,-1
 293 265 l 1,26,-1
 229 265 l 1,27,-1
 229 0 l 1,28,-1
 228 0 l 1,0,-1
229 578 m 1,29,-1
 229 378 l 1,30,-1
 298 378 l 2,31,32
 353 378 353 378 380.5 403 c 128,-1,33
 408 428 408 428 408 482 c 0,34,35
 408 532 408 532 378.5 555 c 128,-1,36
 349 578 349 578 288 578 c 2,37,-1
 229 578 l 1,29,-1
EndSplineSet
Substitution2: "'ss01' Style Set 1 lookup 33 subtable" uni2C64.ss01
Substitution2: "'salt' Stylistic Alternatives lookup 32 subtable" uni2C64.ss01
Substitution2: "'c2sc' Capitals to Small Capitals lookup 26 subtable" uni2C64.sc
AlternateSubs2: "'aalt' Access All Alternates lookup 1 subtable" uni2C64.sc uni2C64.ss01
Position2: "'cpsp' Capital Spacing lookup 0 subtable" dx=5 dy=0 dh=10 dv=0
EndChar

StartChar: uni2C64.ss01
Encoding: 65544 -1 241
Width: 440
GlyphClass: 2
Flags: W
AnchorPoint: "Anchor-18" 0 0 basechar 0
AnchorPoint: "Anchor-17" 0 0 basechar 0
AnchorPoint: "Anchor-16" 220 693 basechar 0
AnchorPoint: "Anchor-15" 0 0 basechar 0
AnchorPoint: "Anchor-14" 220 -210 basechar 0
LayerCount: 2
Fore
SplineSet
228 0 m 1,0,-1
 228 -42 l 2,1,2
 228 -72 228 -72 242 -87.5 c 128,-1,3
 256 -103 256 -103 282 -103 c 0,4,5
 302 -103 302 -103 316 -98 c 128,-1,6
 330 -93 330 -93 352 -82 c 1,7,-1
 406 -179 l 1,8,9
 349 -222 349 -222 265 -222 c 0,10,11
 172 -222 172 -222 118 -173.5 c 128,-1,12
 64 -125 64 -125 64 -31 c 2,13,-1
 64 1 l 1,14,-1
 65 1 l 1,15,-1
 65 693 l 1,16,-1
 208 693 l 1,17,-1
 222 594 l 1,18,19
 241 648 241 648 281 678 c 128,-1,20
 321 708 321 708 379 708 c 0,21,22
 419 708 419 708 446 699 c 1,23,-1
 419 543 l 1,24,25
 389 551 389 551 360 551 c 0,26,27
 306 551 306 551 275 518.5 c 128,-1,28
 244 486 244 486 229 423 c 1,29,-1
 229 0 l 1,30,-1
 228 0 l 1,0,-1
EndSplineSet
Position2: "'cpsp' Capital Spacing lookup 0 subtable" dx=5 dy=0 dh=10 dv=0
EndChar

StartChar: S
Encoding: 83 83 242
Width: 572
GlyphClass: 2
Flags: W
AnchorPoint: "Anchor-18" 0 0 basechar 0
AnchorPoint: "Anchor-17" 0 0 basechar 0
AnchorPoint: "Anchor-16" 295 693 basechar 0
AnchorPoint: "Anchor-15" 0 0 basechar 0
AnchorPoint: "Anchor-14" 283 0 basechar 0
LayerCount: 2
Fore
SplineSet
423.5 688 m 128,-1,1
 481 666 481 666 528 621 c 1,2,-1
 452 532 l 1,3,4
 381 590 381 590 300 590 c 0,5,6
 257 590 257 590 232 572.5 c 128,-1,7
 207 555 207 555 207 522 c 0,8,9
 207 499 207 499 218 484.5 c 128,-1,10
 229 470 229 470 257 457 c 128,-1,11
 285 444 285 444 341 426 c 0,12,13
 447 392 447 392 497 342.5 c 128,-1,14
 547 293 547 293 547 202 c 0,15,16
 547 137 547 137 514 87.5 c 128,-1,17
 481 38 481 38 419 10.5 c 128,-1,18
 357 -17 357 -17 272 -17 c 256,19,20
 187 -17 187 -17 121.5 10 c 128,-1,21
 56 37 56 37 9 82 c 1,22,-1
 92 173 l 1,23,24
 132 139 132 139 174.5 122 c 128,-1,25
 217 105 217 105 267 105 c 0,26,27
 318 105 318 105 347.5 127.5 c 128,-1,28
 377 150 377 150 377 190 c 0,29,30
 377 216 377 216 366 233.5 c 128,-1,31
 355 251 355 251 328 265 c 128,-1,32
 301 279 301 279 250 295 c 0,33,34
 135 330 135 330 86.5 381 c 128,-1,35
 38 432 38 432 38 510 c 0,36,37
 38 570 38 570 70 615.5 c 128,-1,38
 102 661 102 661 159 685.5 c 128,-1,39
 216 710 216 710 288 710 c 0,40,0
 366 710 366 710 423.5 688 c 128,-1,1
EndSplineSet
Substitution2: "'c2sc' Capitals to Small Capitals lookup 26 subtable" s.sc
Substitution2: "'aalt' Access All Alternates lookup 0 subtable" s.sc
Position2: "'cpsp' Capital Spacing lookup 0 subtable" dx=5 dy=0 dh=10 dv=0
EndChar

StartChar: uniA78B
Encoding: 42891 42891 245
Width: 250
GlyphClass: 2
Flags: W
LayerCount: 2
Fore
SplineSet
67 334 m 1,0,-1
 48 693 l 1,1,-1
 202 693 l 1,2,-1
 183 334 l 1,3,-1
 67 334 l 1,0,-1
EndSplineSet
Position2: "'cpsp' Capital Spacing lookup 0 subtable" dx=5 dy=0 dh=10 dv=0
EndChar

StartChar: Scedilla
Encoding: 350 350 247
Width: 572
GlyphClass: 2
Flags: W
AnchorPoint: "Anchor-18" 0 0 basechar 0
AnchorPoint: "Anchor-17" 0 0 basechar 0
AnchorPoint: "Anchor-16" 295 693 basechar 0
AnchorPoint: "Anchor-15" 0 0 basechar 0
AnchorPoint: "Anchor-14" 300 -262 basechar 0
LayerCount: 2
Fore
SplineSet
488 56.5 m 128,-1,1
 429 -2 429 -2 324 -14 c 1,2,-1
 324 -48 l 1,3,4
 377 -54 377 -54 402.5 -79.5 c 128,-1,5
 428 -105 428 -105 428 -147 c 0,6,7
 428 -198 428 -198 387.5 -230 c 128,-1,8
 347 -262 347 -262 279 -262 c 0,9,10
 245 -262 245 -262 216 -253.5 c 128,-1,11
 187 -245 187 -245 167 -232 c 1,12,-1
 203 -159 l 1,13,14
 237 -176 237 -176 267 -176 c 0,15,16
 314 -176 314 -176 314 -146 c 0,17,18
 314 -128 314 -128 292 -120 c 128,-1,19
 270 -112 270 -112 222 -112 c 1,20,-1
 233 -15 l 1,21,22
 99 -4 99 -4 9 82 c 1,23,-1
 92 173 l 1,24,25
 132 139 132 139 174.5 122 c 128,-1,26
 217 105 217 105 267 105 c 0,27,28
 318 105 318 105 347.5 127.5 c 128,-1,29
 377 150 377 150 377 190 c 0,30,31
 377 216 377 216 366 233.5 c 128,-1,32
 355 251 355 251 328 265 c 128,-1,33
 301 279 301 279 250 295 c 0,34,35
 135 330 135 330 86.5 381 c 128,-1,36
 38 432 38 432 38 510 c 0,37,38
 38 570 38 570 70 615.5 c 128,-1,39
 102 661 102 661 159 685.5 c 128,-1,40
 216 710 216 710 288 710 c 0,41,42
 366 710 366 710 423.5 688 c 128,-1,43
 481 666 481 666 528 621 c 1,44,-1
 452 532 l 1,45,46
 381 590 381 590 300 590 c 0,47,48
 257 590 257 590 232 572.5 c 128,-1,49
 207 555 207 555 207 522 c 0,50,51
 207 499 207 499 218 484.5 c 128,-1,52
 229 470 229 470 257 457 c 128,-1,53
 285 444 285 444 341 426 c 0,54,55
 447 392 447 392 497 342.5 c 128,-1,56
 547 293 547 293 547 202 c 0,57,0
 547 115 547 115 488 56.5 c 128,-1,1
EndSplineSet
Substitution2: "'c2sc' Capitals to Small Capitals lookup 26 subtable" scedilla.sc
Substitution2: "'locl' Localized Forms in Latin lookup 5 subtable" Scommaaccent
Substitution2: "'locl' Localized Forms in Latin lookup 4 subtable" Scommaaccent
AlternateSubs2: "'aalt' Access All Alternates lookup 1 subtable" Scommaaccent scedilla.sc
Position2: "'cpsp' Capital Spacing lookup 0 subtable" dx=5 dy=0 dh=10 dv=0
EndChar

StartChar: uni1E9E
Encoding: 7838 7838 252
Width: 669
GlyphClass: 2
Flags: W
LayerCount: 2
Fore
SplineSet
457.5 691.5 m 128,-1,1
 524 673 524 673 596 639 c 1,2,-1
 596 564 l 1,3,-1
 449 393 l 1,4,5
 643 363 643 363 643 196 c 0,6,7
 643 128 643 128 611 80 c 128,-1,8
 579 32 579 32 524 7.5 c 128,-1,9
 469 -17 469 -17 402 -17 c 0,10,11
 323 -17 323 -17 271 10 c 1,12,-1
 319 118 l 1,13,14
 346 106 346 106 381 106 c 0,15,16
 422 106 422 106 447 129 c 128,-1,17
 472 152 472 152 472 199 c 0,18,19
 472 252 472 252 432.5 280 c 128,-1,20
 393 308 393 308 307 314 c 1,21,-1
 307 401 l 1,22,-1
 445 567 l 1,23,24
 381 590 381 590 319 590 c 0,25,26
 273 590 273 590 251 565.5 c 128,-1,27
 229 541 229 541 229 489 c 2,28,-1
 229 0 l 1,29,-1
 65 0 l 1,30,-1
 65 485 l 2,31,32
 65 592 65 592 127.5 651 c 128,-1,33
 190 710 190 710 309 710 c 0,34,0
 391 710 391 710 457.5 691.5 c 128,-1,1
EndSplineSet
Substitution2: "'c2sc' Capitals to Small Capitals lookup 26 subtable" germandbls.sc
Substitution2: "'aalt' Access All Alternates lookup 0 subtable" germandbls.sc
Position2: "'cpsp' Capital Spacing lookup 0 subtable" dx=5 dy=0 dh=10 dv=0
EndChar

StartChar: T
Encoding: 84 84 254
Width: 540
GlyphClass: 2
Flags: W
AnchorPoint: "Anchor-18" 270 347 basechar 0
AnchorPoint: "Anchor-17" 0 0 basechar 0
AnchorPoint: "Anchor-16" 270 693 basechar 0
AnchorPoint: "Anchor-15" 0 0 basechar 0
AnchorPoint: "Anchor-14" 270 0 basechar 0
LayerCount: 2
Fore
SplineSet
539 693 m 1,0,-1
 523 567 l 1,1,-1
 352 567 l 1,2,-1
 352 0 l 1,3,-1
 188 0 l 1,4,-1
 188 567 l 1,5,-1
 9 567 l 1,6,-1
 9 693 l 1,7,-1
 539 693 l 1,0,-1
EndSplineSet
Substitution2: "'c2sc' Capitals to Small Capitals lookup 26 subtable" t.sc
Substitution2: "'aalt' Access All Alternates lookup 0 subtable" t.sc
Position2: "'cpsp' Capital Spacing lookup 0 subtable" dx=5 dy=0 dh=10 dv=0
EndChar

StartChar: Tbar
Encoding: 358 358 255
Width: 540
GlyphClass: 2
Flags: W
AnchorPoint: "Anchor-18" 270 346 basechar 0
AnchorPoint: "Anchor-17" 0 0 basechar 0
AnchorPoint: "Anchor-16" 270 692 basechar 0
AnchorPoint: "Anchor-15" 0 0 basechar 0
AnchorPoint: "Anchor-14" 270 -1 basechar 0
LayerCount: 2
Fore
SplineSet
523 566 m 1,0,-1
 352 566 l 1,1,-1
 352 389 l 1,2,-1
 467 389 l 1,3,-1
 467 297 l 1,4,-1
 352 297 l 1,5,-1
 352 -1 l 1,6,-1
 188 -1 l 1,7,-1
 188 297 l 1,8,-1
 73 297 l 1,9,-1
 73 389 l 1,10,-1
 188 389 l 1,11,-1
 188 566 l 1,12,-1
 9 566 l 1,13,-1
 9 692 l 1,14,-1
 539 692 l 1,15,-1
 523 566 l 1,0,-1
EndSplineSet
Substitution2: "'c2sc' Capitals to Small Capitals lookup 26 subtable" tbar.sc
Substitution2: "'aalt' Access All Alternates lookup 0 subtable" tbar.sc
Position2: "'cpsp' Capital Spacing lookup 0 subtable" dx=5 dy=0 dh=10 dv=0
EndChar

StartChar: uni0162
Encoding: 354 354 257
Width: 540
GlyphClass: 2
Flags: W
AnchorPoint: "Anchor-18" 270 347 basechar 0
AnchorPoint: "Anchor-17" 0 0 basechar 0
AnchorPoint: "Anchor-16" 270 693 basechar 0
AnchorPoint: "Anchor-15" 0 0 basechar 0
AnchorPoint: "Anchor-14" 270 0 basechar 0
LayerCount: 2
Fore
SplineSet
430.5 -80 m 128,-1,1
 457 -106 457 -106 457 -147 c 0,2,3
 457 -198 457 -198 416 -230 c 128,-1,4
 375 -262 375 -262 307 -262 c 0,5,6
 274 -262 274 -262 244.5 -253.5 c 128,-1,7
 215 -245 215 -245 196 -232 c 1,8,-1
 232 -159 l 1,9,10
 266 -176 266 -176 293 -176 c 0,11,12
 343 -176 343 -176 343 -145 c 0,13,14
 343 -128 343 -128 321 -120 c 128,-1,15
 299 -112 299 -112 251 -112 c 1,16,-1
 264 0 l 1,17,-1
 188 0 l 1,18,-1
 188 567 l 1,19,-1
 9 567 l 1,20,-1
 9 693 l 1,21,-1
 539 693 l 1,22,-1
 523 567 l 1,23,-1
 352 567 l 1,24,-1
 352 -48 l 1,25,0
 404 -54 404 -54 430.5 -80 c 128,-1,1
EndSplineSet
Substitution2: "'c2sc' Capitals to Small Capitals lookup 26 subtable" uni0163.sc
Substitution2: "'locl' Localized Forms in Latin lookup 5 subtable" uni021A
Substitution2: "'locl' Localized Forms in Latin lookup 4 subtable" uni021A
AlternateSubs2: "'aalt' Access All Alternates lookup 1 subtable" uni021A uni0163.sc
Position2: "'cpsp' Capital Spacing lookup 0 subtable" dx=5 dy=0 dh=10 dv=0
EndChar

StartChar: uni023E
Encoding: 574 574 260
Width: 540
GlyphClass: 2
Flags: W
AnchorPoint: "Anchor-18" 0 0 basechar 0
AnchorPoint: "Anchor-17" 0 0 basechar 0
AnchorPoint: "Anchor-16" 270 693 basechar 0
AnchorPoint: "Anchor-15" 0 0 basechar 0
AnchorPoint: "Anchor-14" 270 0 basechar 0
LayerCount: 2
Fore
SplineSet
523 573 m 1,0,-1
 435 573 l 1,1,-1
 342 373 l 1,2,-1
 342 0 l 1,3,-1
 198 0 l 1,4,-1
 198 64 l 1,5,-1
 134 -74 l 1,6,-1
 84 -51 l 1,7,-1
 198 194 l 1,8,-1
 198 573 l 1,9,-1
 9 573 l 1,10,-1
 9 693 l 1,11,-1
 430 693 l 1,12,-1
 460 758 l 1,13,-1
 510 734 l 1,14,-1
 491 693 l 1,15,-1
 539 693 l 1,16,-1
 523 573 l 1,0,-1
342 504 m 1,17,-1
 374 573 l 1,18,-1
 342 573 l 1,19,-1
 342 504 l 1,17,-1
EndSplineSet
Substitution2: "'c2sc' Capitals to Small Capitals lookup 26 subtable" uni2C66.sc
Substitution2: "'aalt' Access All Alternates lookup 0 subtable" uni2C66.sc
Position2: "'cpsp' Capital Spacing lookup 0 subtable" dx=5 dy=0 dh=10 dv=0
EndChar

StartChar: uni01AC
Encoding: 428 428 263
Width: 595
GlyphClass: 2
Flags: W
AnchorPoint: "Anchor-18" 0 0 basechar 0
AnchorPoint: "Anchor-17" 0 0 basechar 0
AnchorPoint: "Anchor-16" 297 693 basechar 0
AnchorPoint: "Anchor-15" 0 0 basechar 0
AnchorPoint: "Anchor-14" 325 0 basechar 0
LayerCount: 2
Fore
SplineSet
577 567 m 1,0,-1
 407 567 l 1,1,-1
 407 0 l 1,2,-1
 243 0 l 1,3,-1
 243 567 l 1,4,-1
 179 567 l 2,5,6
 157 567 157 567 145 556.5 c 128,-1,7
 133 546 133 546 133 527 c 0,8,9
 133 512 133 512 137 499.5 c 128,-1,10
 141 487 141 487 149 470 c 1,11,-1
 41 424 l 1,12,13
 4 486 4 486 4 543 c 0,14,15
 4 613 4 613 54.5 653 c 128,-1,16
 105 693 105 693 194 693 c 2,17,-1
 594 693 l 1,18,-1
 577 567 l 1,0,-1
EndSplineSet
Substitution2: "'c2sc' Capitals to Small Capitals lookup 26 subtable" uni01AD.sc
Substitution2: "'aalt' Access All Alternates lookup 0 subtable" uni01AD.sc
Position2: "'cpsp' Capital Spacing lookup 0 subtable" dx=5 dy=0 dh=10 dv=0
EndChar

StartChar: uni0184
Encoding: 388 388 266
Width: 615
GlyphClass: 2
Flags: W
AnchorPoint: "Anchor-18" 0 0 basechar 0
AnchorPoint: "Anchor-17" 0 0 basechar 0
AnchorPoint: "Anchor-16" 308 693 basechar 0
AnchorPoint: "Anchor-15" 0 0 basechar 0
AnchorPoint: "Anchor-14" 308 0 basechar 0
LayerCount: 2
Fore
SplineSet
528 401.5 m 128,-1,1
 600 346 600 346 600 235 c 0,2,3
 600 118 600 118 526 59 c 128,-1,4
 452 0 452 0 328 0 c 2,5,-1
 86 0 l 1,6,-1
 86 492 l 1,7,-1
 11 542 l 1,8,9
 71 604 71 604 112 693 c 1,10,-1
 250 693 l 1,11,-1
 250 457 l 1,12,-1
 324 457 l 2,13,0
 456 457 456 457 528 401.5 c 128,-1,1
428 233 m 0,15,16
 428 289 428 289 399 316 c 128,-1,17
 370 343 370 343 310 343 c 2,18,-1
 250 343 l 1,19,-1
 250 119 l 1,20,-1
 314 119 l 2,21,14
 428 119 428 119 428 233 c 0,15,16
EndSplineSet
Substitution2: "'c2sc' Capitals to Small Capitals lookup 26 subtable" uni0185.sc
Substitution2: "'aalt' Access All Alternates lookup 0 subtable" uni0185.sc
Position2: "'cpsp' Capital Spacing lookup 0 subtable" dx=5 dy=0 dh=10 dv=0
EndChar

StartChar: uni01A7
Encoding: 423 423 267
Width: 563
GlyphClass: 2
Flags: W
AnchorPoint: "Anchor-18" 0 0 basechar 0
AnchorPoint: "Anchor-17" 0 0 basechar 0
AnchorPoint: "Anchor-16" 281 693 basechar 0
AnchorPoint: "Anchor-15" 0 0 basechar 0
AnchorPoint: "Anchor-14" 281 0 basechar 0
LayerCount: 2
Fore
SplineSet
420 686 m 128,-1,1
 476 662 476 662 506.5 617.5 c 128,-1,2
 537 573 537 573 537 514 c 0,3,4
 537 435 537 435 486.5 386.5 c 128,-1,5
 436 338 436 338 322 302 c 0,6,7
 249 280 249 280 222 254.5 c 128,-1,8
 195 229 195 229 195 190 c 0,9,10
 195 149 195 149 222.5 127.5 c 128,-1,11
 250 106 250 106 298 106 c 0,12,13
 389 106 389 106 471 173 c 1,14,-1
 553 82 l 1,15,16
 505 37 505 37 438 10 c 128,-1,17
 371 -17 371 -17 287 -17 c 0,18,19
 208 -17 208 -17 148.5 10.5 c 128,-1,20
 89 38 89 38 56.5 87 c 128,-1,21
 24 136 24 136 24 199 c 0,22,23
 24 286 24 286 75 335.5 c 128,-1,24
 126 385 126 385 230 418 c 0,25,26
 285 436 285 436 314 450.5 c 128,-1,27
 343 465 343 465 355 482 c 128,-1,28
 367 499 367 499 367 523 c 0,29,30
 367 556 367 556 344 573 c 128,-1,31
 321 590 321 590 280 590 c 0,32,33
 235 590 235 590 197.5 576 c 128,-1,34
 160 562 160 562 123 533 c 1,35,-1
 46 621 l 1,36,37
 147 710 147 710 292 710 c 0,38,0
 364 710 364 710 420 686 c 128,-1,1
EndSplineSet
Substitution2: "'c2sc' Capitals to Small Capitals lookup 26 subtable" uni01A8.sc
Substitution2: "'aalt' Access All Alternates lookup 0 subtable" uni01A8.sc
Position2: "'cpsp' Capital Spacing lookup 0 subtable" dx=5 dy=0 dh=10 dv=0
EndChar

StartChar: uni01AE
Encoding: 430 430 268
Width: 542
GlyphClass: 2
Flags: W
AnchorPoint: "Anchor-18" 270 347 basechar 0
AnchorPoint: "Anchor-17" 0 0 basechar 0
AnchorPoint: "Anchor-16" 270 693 basechar 0
AnchorPoint: "Anchor-15" 0 0 basechar 0
AnchorPoint: "Anchor-14" 270 0 basechar 0
LayerCount: 2
Fore
SplineSet
440 -98 m 128,-1,1
 454 -93 454 -93 476 -82 c 1,2,-1
 530 -179 l 1,3,4
 473 -222 473 -222 389 -222 c 0,5,6
 296 -222 296 -222 242 -173.5 c 128,-1,7
 188 -125 188 -125 188 -31 c 2,8,-1
 188 567 l 1,9,-1
 9 567 l 1,10,-1
 9 693 l 1,11,-1
 539 693 l 1,12,-1
 523 567 l 1,13,-1
 352 567 l 1,14,-1
 352 -42 l 2,15,16
 352 -72 352 -72 366 -87.5 c 128,-1,17
 380 -103 380 -103 406 -103 c 0,18,0
 426 -103 426 -103 440 -98 c 128,-1,1
EndSplineSet
Substitution2: "'c2sc' Capitals to Small Capitals lookup 26 subtable" uni0288.sc
Substitution2: "'aalt' Access All Alternates lookup 0 subtable" uni0288.sc
Position2: "'cpsp' Capital Spacing lookup 0 subtable" dx=5 dy=0 dh=10 dv=0
EndChar

StartChar: U
Encoding: 85 85 269
Width: 651
GlyphClass: 2
Flags: W
AnchorPoint: "Anchor-18" 0 0 basechar 0
AnchorPoint: "Anchor-17" 606 693 basechar 0
AnchorPoint: "Anchor-16" 325 693 basechar 0
AnchorPoint: "Anchor-15" 448 0 basechar 0
AnchorPoint: "Anchor-14" 325 0 basechar 0
LayerCount: 2
Fore
SplineSet
596 230 m 2,0,1
 596 159 596 159 565.5 103 c 128,-1,2
 535 47 535 47 474 15 c 128,-1,3
 413 -17 413 -17 325 -17 c 0,4,5
 193 -17 193 -17 124 50 c 128,-1,6
 55 117 55 117 55 230 c 2,7,-1
 55 693 l 1,8,-1
 219 693 l 1,9,-1
 219 237 l 2,10,11
 219 170 219 170 244.5 137.5 c 128,-1,12
 270 105 270 105 325 105 c 0,13,14
 381 105 381 105 406.5 137.5 c 128,-1,15
 432 170 432 170 432 237 c 2,16,-1
 432 693 l 1,17,-1
 596 693 l 1,18,-1
 596 230 l 2,0,1
EndSplineSet
Substitution2: "'c2sc' Capitals to Small Capitals lookup 26 subtable" u.sc
Substitution2: "'aalt' Access All Alternates lookup 0 subtable" u.sc
Position2: "'cpsp' Capital Spacing lookup 0 subtable" dx=5 dy=0 dh=10 dv=0
EndChar

StartChar: uni0244
Encoding: 580 580 271
Width: 681
GlyphClass: 2
Flags: W
AnchorPoint: "Anchor-18" 0 0 basechar 0
AnchorPoint: "Anchor-17" 621 693 basechar 0
AnchorPoint: "Anchor-16" 340 693 basechar 0
AnchorPoint: "Anchor-15" 463 0 basechar 0
AnchorPoint: "Anchor-14" 340 0 basechar 0
LayerCount: 2
Fore
SplineSet
668 500 m 1,0,-1
 611 500 l 1,1,-1
 611 230 l 2,2,3
 611 159 611 159 580.5 103 c 128,-1,4
 550 47 550 47 489 15 c 128,-1,5
 428 -17 428 -17 340 -17 c 0,6,7
 208 -17 208 -17 139 50 c 128,-1,8
 70 117 70 117 70 230 c 2,9,-1
 70 500 l 1,10,-1
 13 500 l 1,11,-1
 13 592 l 1,12,-1
 70 592 l 1,13,-1
 70 693 l 1,14,-1
 234 693 l 1,15,-1
 234 592 l 1,16,-1
 447 592 l 1,17,-1
 447 693 l 1,18,-1
 611 693 l 1,19,-1
 611 592 l 1,20,-1
 668 592 l 1,21,-1
 668 500 l 1,0,-1
447 500 m 1,22,-1
 234 500 l 1,23,-1
 234 237 l 2,24,25
 234 170 234 170 259.5 137.5 c 128,-1,26
 285 105 285 105 340 105 c 0,27,28
 396 105 396 105 421.5 137.5 c 128,-1,29
 447 170 447 170 447 237 c 2,30,-1
 447 500 l 1,22,-1
EndSplineSet
Substitution2: "'c2sc' Capitals to Small Capitals lookup 26 subtable" uni0289.sc
Substitution2: "'aalt' Access All Alternates lookup 0 subtable" uni0289.sc
Position2: "'cpsp' Capital Spacing lookup 0 subtable" dx=5 dy=0 dh=10 dv=0
EndChar

StartChar: Uhorn
Encoding: 431 431 284
Width: 725
GlyphClass: 2
Flags: W
AnchorPoint: "Anchor-18" 0 0 basechar 0
AnchorPoint: "Anchor-17" 658 693 basechar 0
AnchorPoint: "Anchor-16" 325 693 basechar 0
AnchorPoint: "Anchor-15" 448 0 basechar 0
AnchorPoint: "Anchor-14" 325 0 basechar 0
LayerCount: 2
Fore
SplineSet
745 685 m 0,1,2
 745 623 745 623 705.5 591 c 128,-1,3
 666 559 666 559 596 558 c 1,4,-1
 596 230 l 2,5,6
 596 159 596 159 565.5 103 c 128,-1,7
 535 47 535 47 474 15 c 128,-1,8
 413 -17 413 -17 325 -17 c 0,9,10
 193 -17 193 -17 124 50 c 128,-1,11
 55 117 55 117 55 230 c 2,12,-1
 55 693 l 1,13,-1
 219 693 l 1,14,-1
 219 237 l 2,15,16
 219 170 219 170 244.5 137.5 c 128,-1,17
 270 105 270 105 325 105 c 0,18,19
 381 105 381 105 406.5 137.5 c 128,-1,20
 432 170 432 170 432 237 c 2,21,-1
 432 693 l 1,22,-1
 596 693 l 1,23,-1
 596 635 l 1,24,25
 618 639 618 639 627.5 652.5 c 128,-1,26
 637 666 637 666 637 690 c 0,27,28
 637 710 637 710 634 724.5 c 128,-1,29
 631 739 631 739 624 758 c 1,30,-1
 726 773 l 1,31,0
 745 737 745 737 745 685 c 0,1,2
EndSplineSet
Substitution2: "'c2sc' Capitals to Small Capitals lookup 26 subtable" uhorn.sc
Substitution2: "'aalt' Access All Alternates lookup 0 subtable" uhorn.sc
Position2: "'cpsp' Capital Spacing lookup 0 subtable" dx=5 dy=0 dh=10 dv=0
EndChar

StartChar: uni1EE8
Encoding: 7912 7912 285
Width: 725
GlyphClass: 2
Flags: W
AnchorPoint: "Anchor-18" 0 0 basechar 0
AnchorPoint: "Anchor-17" 658 693 basechar 0
AnchorPoint: "Anchor-16" 327 956 basechar 0
AnchorPoint: "Anchor-15" 448 0 basechar 0
AnchorPoint: "Anchor-14" 325 0 basechar 0
LayerCount: 2
Fore
SplineSet
465 838 m 1,0,-1
 225 751 l 1,1,-1
 185 831 l 1,2,-1
 406 956 l 1,3,-1
 465 838 l 1,0,-1
745 685 m 0,5,6
 745 623 745 623 705.5 591 c 128,-1,7
 666 559 666 559 596 558 c 1,8,-1
 596 230 l 2,9,10
 596 159 596 159 565.5 103 c 128,-1,11
 535 47 535 47 474 15 c 128,-1,12
 413 -17 413 -17 325 -17 c 0,13,14
 193 -17 193 -17 124 50 c 128,-1,15
 55 117 55 117 55 230 c 2,16,-1
 55 693 l 1,17,-1
 219 693 l 1,18,-1
 219 237 l 2,19,20
 219 170 219 170 244.5 137.5 c 128,-1,21
 270 105 270 105 325 105 c 0,22,23
 381 105 381 105 406.5 137.5 c 128,-1,24
 432 170 432 170 432 237 c 2,25,-1
 432 693 l 1,26,-1
 596 693 l 1,27,-1
 596 635 l 1,28,29
 618 639 618 639 627.5 652.5 c 128,-1,30
 637 666 637 666 637 690 c 0,31,32
 637 710 637 710 634 724.5 c 128,-1,33
 631 739 631 739 624 758 c 1,34,-1
 726 773 l 1,35,4
 745 737 745 737 745 685 c 0,5,6
EndSplineSet
Substitution2: "'c2sc' Capitals to Small Capitals lookup 26 subtable" uni1EE9.sc
Substitution2: "'aalt' Access All Alternates lookup 0 subtable" uni1EE9.sc
Position2: "'cpsp' Capital Spacing lookup 0 subtable" dx=5 dy=0 dh=10 dv=0
EndChar

StartChar: uni1EF0
Encoding: 7920 7920 286
Width: 725
GlyphClass: 2
Flags: W
AnchorPoint: "Anchor-18" 0 0 basechar 0
AnchorPoint: "Anchor-17" 658 693 basechar 0
AnchorPoint: "Anchor-16" 325 693 basechar 0
AnchorPoint: "Anchor-15" 448 0 basechar 0
AnchorPoint: "Anchor-14" 327 -210 basechar 0
LayerCount: 2
Fore
SplineSet
745 685 m 0,1,2
 745 623 745 623 705.5 591 c 128,-1,3
 666 559 666 559 596 558 c 1,4,-1
 596 230 l 2,5,6
 596 159 596 159 565.5 103 c 128,-1,7
 535 47 535 47 474 15 c 128,-1,8
 413 -17 413 -17 325 -17 c 0,9,10
 193 -17 193 -17 124 50 c 128,-1,11
 55 117 55 117 55 230 c 2,12,-1
 55 693 l 1,13,-1
 219 693 l 1,14,-1
 219 237 l 2,15,16
 219 170 219 170 244.5 137.5 c 128,-1,17
 270 105 270 105 325 105 c 0,18,19
 381 105 381 105 406.5 137.5 c 128,-1,20
 432 170 432 170 432 237 c 2,21,-1
 432 693 l 1,22,-1
 596 693 l 1,23,-1
 596 635 l 1,24,25
 618 639 618 639 627.5 652.5 c 128,-1,26
 637 666 637 666 637 690 c 0,27,28
 637 710 637 710 634 724.5 c 128,-1,29
 631 739 631 739 624 758 c 1,30,-1
 726 773 l 1,31,0
 745 737 745 737 745 685 c 0,1,2
392 -85.5 m 128,-1,33
 418 -111 418 -111 418 -150 c 256,34,35
 418 -189 418 -189 392 -214.5 c 128,-1,36
 366 -240 366 -240 325 -240 c 256,37,38
 284 -240 284 -240 257.5 -214.5 c 128,-1,39
 231 -189 231 -189 231 -150 c 256,40,41
 231 -111 231 -111 257.5 -85.5 c 128,-1,42
 284 -60 284 -60 325 -60 c 256,43,32
 366 -60 366 -60 392 -85.5 c 128,-1,33
EndSplineSet
Substitution2: "'c2sc' Capitals to Small Capitals lookup 26 subtable" uni1EF1.sc
Substitution2: "'aalt' Access All Alternates lookup 0 subtable" uni1EF1.sc
Position2: "'cpsp' Capital Spacing lookup 0 subtable" dx=5 dy=0 dh=10 dv=0
EndChar

StartChar: uni1EEA
Encoding: 7914 7914 287
Width: 725
GlyphClass: 2
Flags: W
AnchorPoint: "Anchor-18" 0 0 basechar 0
AnchorPoint: "Anchor-17" 658 693 basechar 0
AnchorPoint: "Anchor-16" 326 956 basechar 0
AnchorPoint: "Anchor-15" 448 0 basechar 0
AnchorPoint: "Anchor-14" 325 0 basechar 0
LayerCount: 2
Fore
SplineSet
461 831 m 1,0,-1
 421 751 l 1,1,-1
 181 838 l 1,2,-1
 240 956 l 1,3,-1
 461 831 l 1,0,-1
745 685 m 0,5,6
 745 623 745 623 705.5 591 c 128,-1,7
 666 559 666 559 596 558 c 1,8,-1
 596 230 l 2,9,10
 596 159 596 159 565.5 103 c 128,-1,11
 535 47 535 47 474 15 c 128,-1,12
 413 -17 413 -17 325 -17 c 0,13,14
 193 -17 193 -17 124 50 c 128,-1,15
 55 117 55 117 55 230 c 2,16,-1
 55 693 l 1,17,-1
 219 693 l 1,18,-1
 219 237 l 2,19,20
 219 170 219 170 244.5 137.5 c 128,-1,21
 270 105 270 105 325 105 c 0,22,23
 381 105 381 105 406.5 137.5 c 128,-1,24
 432 170 432 170 432 237 c 2,25,-1
 432 693 l 1,26,-1
 596 693 l 1,27,-1
 596 635 l 1,28,29
 618 639 618 639 627.5 652.5 c 128,-1,30
 637 666 637 666 637 690 c 0,31,32
 637 710 637 710 634 724.5 c 128,-1,33
 631 739 631 739 624 758 c 1,34,-1
 726 773 l 1,35,4
 745 737 745 737 745 685 c 0,5,6
EndSplineSet
Substitution2: "'c2sc' Capitals to Small Capitals lookup 26 subtable" uni1EEB.sc
Substitution2: "'aalt' Access All Alternates lookup 0 subtable" uni1EEB.sc
Position2: "'cpsp' Capital Spacing lookup 0 subtable" dx=5 dy=0 dh=10 dv=0
EndChar

StartChar: uni1EEC
Encoding: 7916 7916 288
Width: 725
GlyphClass: 2
Flags: W
AnchorPoint: "Anchor-18" 0 0 basechar 0
AnchorPoint: "Anchor-17" 658 693 basechar 0
AnchorPoint: "Anchor-16" 334 1001 basechar 0
AnchorPoint: "Anchor-15" 448 0 basechar 0
AnchorPoint: "Anchor-14" 325 0 basechar 0
LayerCount: 2
Fore
SplineSet
248 909 m 1,1,-1
 222 975 l 1,2,3
 268 1001 268 1001 331 1001 c 0,4,5
 390 1001 390 1001 422.5 973 c 128,-1,6
 455 945 455 945 455 899 c 0,7,8
 455 822 455 822 371 806 c 1,9,-1
 371 764 l 1,10,-1
 277 764 l 1,11,-1
 277 853 l 1,12,13
 315 855 315 855 331.5 863.5 c 128,-1,14
 348 872 348 872 348 891 c 0,15,16
 348 906 348 906 337.5 914 c 128,-1,17
 327 922 327 922 308 922 c 0,18,0
 281 922 281 922 248 909 c 1,1,-1
745 685 m 0,20,21
 745 623 745 623 705.5 591 c 128,-1,22
 666 559 666 559 596 558 c 1,23,-1
 596 230 l 2,24,25
 596 159 596 159 565.5 103 c 128,-1,26
 535 47 535 47 474 15 c 128,-1,27
 413 -17 413 -17 325 -17 c 0,28,29
 193 -17 193 -17 124 50 c 128,-1,30
 55 117 55 117 55 230 c 2,31,-1
 55 693 l 1,32,-1
 219 693 l 1,33,-1
 219 237 l 2,34,35
 219 170 219 170 244.5 137.5 c 128,-1,36
 270 105 270 105 325 105 c 0,37,38
 381 105 381 105 406.5 137.5 c 128,-1,39
 432 170 432 170 432 237 c 2,40,-1
 432 693 l 1,41,-1
 596 693 l 1,42,-1
 596 635 l 1,43,44
 618 639 618 639 627.5 652.5 c 128,-1,45
 637 666 637 666 637 690 c 0,46,47
 637 710 637 710 634 724.5 c 128,-1,48
 631 739 631 739 624 758 c 1,49,-1
 726 773 l 1,50,19
 745 737 745 737 745 685 c 0,20,21
EndSplineSet
Substitution2: "'c2sc' Capitals to Small Capitals lookup 26 subtable" uni1EED.sc
Substitution2: "'aalt' Access All Alternates lookup 0 subtable" uni1EED.sc
Position2: "'cpsp' Capital Spacing lookup 0 subtable" dx=5 dy=0 dh=10 dv=0
EndChar

StartChar: uni1EEE
Encoding: 7918 7918 289
Width: 725
GlyphClass: 2
Flags: W
AnchorPoint: "Anchor-18" 0 0 basechar 0
AnchorPoint: "Anchor-17" 658 693 basechar 0
AnchorPoint: "Anchor-16" 327 918 basechar 0
AnchorPoint: "Anchor-15" 448 0 basechar 0
AnchorPoint: "Anchor-14" 325 0 basechar 0
LayerCount: 2
Fore
SplineSet
240.5 795.5 m 128,-1,1
 229 785 229 785 216 762 c 1,2,-1
 137 800 l 1,3,4
 157 852 157 852 190.5 885 c 128,-1,5
 224 918 224 918 266 918 c 0,6,7
 289 918 289 918 305.5 910.5 c 128,-1,8
 322 903 322 903 342 890 c 0,9,10
 356 881 356 881 364.5 877 c 128,-1,11
 373 873 373 873 382 873 c 0,12,13
 398 873 398 873 409.5 883.5 c 128,-1,14
 421 894 421 894 434 917 c 1,15,-1
 513 878 l 1,16,17
 492 825 492 825 458.5 793 c 128,-1,18
 425 761 425 761 383 761 c 0,19,20
 361 761 361 761 345 768 c 128,-1,21
 329 775 329 775 310 788 c 0,22,23
 285 806 285 806 269 806 c 0,24,0
 252 806 252 806 240.5 795.5 c 128,-1,1
745 685 m 0,26,27
 745 623 745 623 705.5 591 c 128,-1,28
 666 559 666 559 596 558 c 1,29,-1
 596 230 l 2,30,31
 596 159 596 159 565.5 103 c 128,-1,32
 535 47 535 47 474 15 c 128,-1,33
 413 -17 413 -17 325 -17 c 0,34,35
 193 -17 193 -17 124 50 c 128,-1,36
 55 117 55 117 55 230 c 2,37,-1
 55 693 l 1,38,-1
 219 693 l 1,39,-1
 219 237 l 2,40,41
 219 170 219 170 244.5 137.5 c 128,-1,42
 270 105 270 105 325 105 c 0,43,44
 381 105 381 105 406.5 137.5 c 128,-1,45
 432 170 432 170 432 237 c 2,46,-1
 432 693 l 1,47,-1
 596 693 l 1,48,-1
 596 635 l 1,49,50
 618 639 618 639 627.5 652.5 c 128,-1,51
 637 666 637 666 637 690 c 0,52,53
 637 710 637 710 634 724.5 c 128,-1,54
 631 739 631 739 624 758 c 1,55,-1
 726 773 l 1,56,25
 745 737 745 737 745 685 c 0,26,27
EndSplineSet
Substitution2: "'c2sc' Capitals to Small Capitals lookup 26 subtable" uni1EEF.sc
Substitution2: "'aalt' Access All Alternates lookup 0 subtable" uni1EEF.sc
Position2: "'cpsp' Capital Spacing lookup 0 subtable" dx=5 dy=0 dh=10 dv=0
EndChar

StartChar: Uogonek
Encoding: 370 370 293
Width: 651
GlyphClass: 2
Flags: W
AnchorPoint: "Anchor-18" 0 0 basechar 0
AnchorPoint: "Anchor-17" 606 693 basechar 0
AnchorPoint: "Anchor-16" 325 693 basechar 0
AnchorPoint: "Anchor-15" 448 0 basechar 0
AnchorPoint: "Anchor-14" 325 0 basechar 0
LayerCount: 2
Fore
SplineSet
596 693 m 1,0,-1
 596 230 l 2,1,2
 596 147 596 147 555 86 c 128,-1,3
 514 25 514 25 436 -1 c 0,4,5
 320 -45 320 -45 320 -102 c 0,6,7
 320 -148 320 -148 373 -148 c 0,8,9
 397 -148 397 -148 434 -140 c 1,10,-1
 423 -238 l 1,11,12
 389 -246 389 -246 353 -246 c 0,13,14
 288 -246 288 -246 247 -214 c 128,-1,15
 206 -182 206 -182 206 -129 c 0,16,17
 206 -56 206 -56 290 -16 c 1,18,19
 175 -6 175 -6 115 59.5 c 128,-1,20
 55 125 55 125 55 230 c 2,21,-1
 55 693 l 1,22,-1
 219 693 l 1,23,-1
 219 237 l 2,24,25
 219 170 219 170 244.5 137.5 c 128,-1,26
 270 105 270 105 325 105 c 0,27,28
 381 105 381 105 406.5 137.5 c 128,-1,29
 432 170 432 170 432 237 c 2,30,-1
 432 693 l 1,31,-1
 596 693 l 1,0,-1
EndSplineSet
Substitution2: "'c2sc' Capitals to Small Capitals lookup 26 subtable" uogonek.sc
Substitution2: "'aalt' Access All Alternates lookup 0 subtable" uogonek.sc
Position2: "'cpsp' Capital Spacing lookup 0 subtable" dx=5 dy=0 dh=10 dv=0
EndChar

StartChar: uni01B1
Encoding: 433 433 294
Width: 691
GlyphClass: 2
Flags: W
AnchorPoint: "Anchor-18" 0 0 basechar 0
AnchorPoint: "Anchor-17" 0 0 basechar 0
AnchorPoint: "Anchor-16" 345 693 basechar 0
AnchorPoint: "Anchor-15" 0 0 basechar 0
AnchorPoint: "Anchor-14" 345 0 basechar 0
LayerCount: 2
Fore
SplineSet
178.5 24.5 m 128,-1,1
 108 66 108 66 70.5 138 c 128,-1,2
 33 210 33 210 33 302 c 0,3,4
 33 400 33 400 67.5 465.5 c 128,-1,5
 102 531 102 531 165 576 c 1,6,-1
 55 576 l 1,7,-1
 55 693 l 1,8,-1
 290 693 l 1,9,-1
 290 582 l 1,10,11
 245 532 245 532 225 470 c 128,-1,12
 205 408 205 408 205 302 c 0,13,14
 205 204 205 204 240 153.5 c 128,-1,15
 275 103 275 103 345 103 c 0,16,17
 414 103 414 103 450 153.5 c 128,-1,18
 486 204 486 204 486 302 c 0,19,20
 486 406 486 406 465 468 c 128,-1,21
 444 530 444 530 401 582 c 1,22,-1
 401 693 l 1,23,-1
 637 693 l 1,24,-1
 637 576 l 1,25,-1
 526 576 l 1,26,27
 589 534 589 534 623.5 468 c 128,-1,28
 658 402 658 402 658 302 c 0,29,30
 658 212 658 212 620 139 c 128,-1,31
 582 66 582 66 511 24.5 c 128,-1,32
 440 -17 440 -17 345 -17 c 0,33,0
 249 -17 249 -17 178.5 24.5 c 128,-1,1
EndSplineSet
Substitution2: "'c2sc' Capitals to Small Capitals lookup 26 subtable" uni01B1.sc
Substitution2: "'aalt' Access All Alternates lookup 0 subtable" uni01B1.sc
Position2: "'cpsp' Capital Spacing lookup 0 subtable" dx=5 dy=0 dh=10 dv=0
EndChar

StartChar: V
Encoding: 86 86 298
Width: 570
GlyphClass: 2
Flags: W
AnchorPoint: "Anchor-18" 0 0 basechar 0
AnchorPoint: "Anchor-17" 0 0 basechar 0
AnchorPoint: "Anchor-16" 285 693 basechar 0
AnchorPoint: "Anchor-15" 0 0 basechar 0
AnchorPoint: "Anchor-14" 285 0 basechar 0
LayerCount: 2
Fore
SplineSet
584 693 m 1,0,-1
 391 0 l 1,1,-1
 187 0 l 1,2,-1
 -13 693 l 1,3,-1
 160 693 l 1,4,-1
 292 128 l 1,5,-1
 416 693 l 1,6,-1
 584 693 l 1,0,-1
EndSplineSet
Substitution2: "'c2sc' Capitals to Small Capitals lookup 26 subtable" v.sc
Substitution2: "'aalt' Access All Alternates lookup 0 subtable" v.sc
Position2: "'cpsp' Capital Spacing lookup 0 subtable" dx=5 dy=0 dh=10 dv=0
EndChar

StartChar: uni01B2
Encoding: 434 434 299
Width: 651
GlyphClass: 2
Flags: W
AnchorPoint: "Anchor-18" 0 0 basechar 0
AnchorPoint: "Anchor-17" 0 0 basechar 0
AnchorPoint: "Anchor-16" 314 693 basechar 0
AnchorPoint: "Anchor-15" 0 0 basechar 0
AnchorPoint: "Anchor-14" 314 0 basechar 0
LayerCount: 2
Fore
SplineSet
596 544 m 2,1,-1
 596 292 l 2,2,3
 596 196 596 196 560 126.5 c 128,-1,4
 524 57 524 57 458 20 c 128,-1,5
 392 -17 392 -17 305 -17 c 0,6,7
 228 -17 228 -17 171.5 12.5 c 128,-1,8
 115 42 115 42 85 94.5 c 128,-1,9
 55 147 55 147 55 214 c 2,10,-1
 55 693 l 1,11,-1
 219 693 l 1,12,-1
 219 215 l 2,13,14
 219 163 219 163 242 134 c 128,-1,15
 265 105 265 105 309 105 c 0,16,17
 367 105 367 105 399.5 150 c 128,-1,18
 432 195 432 195 432 290 c 2,19,-1
 432 552 l 2,20,21
 432 573 432 573 425 582 c 128,-1,22
 418 591 418 591 401 591 c 0,23,24
 387 591 387 591 374 586 c 1,25,-1
 348 693 l 1,26,27
 390 710 390 710 444 710 c 0,28,0
 596 710 596 710 596 544 c 2,1,-1
EndSplineSet
Substitution2: "'c2sc' Capitals to Small Capitals lookup 26 subtable" uni028B.sc
Substitution2: "'aalt' Access All Alternates lookup 0 subtable" uni028B.sc
Position2: "'cpsp' Capital Spacing lookup 0 subtable" dx=5 dy=0 dh=10 dv=0
EndChar

StartChar: W
Encoding: 87 87 301
Width: 847
GlyphClass: 2
Flags: W
AnchorPoint: "Anchor-18" 0 0 basechar 0
AnchorPoint: "Anchor-17" 0 0 basechar 0
AnchorPoint: "Anchor-16" 425 693 basechar 0
AnchorPoint: "Anchor-15" 0 0 basechar 0
AnchorPoint: "Anchor-14" 423 0 basechar 0
LayerCount: 2
Fore
SplineSet
837 693 m 1,0,-1
 721 0 l 1,1,-1
 508 0 l 1,2,-1
 422 529 l 1,3,-1
 331 0 l 1,4,-1
 123 0 l 1,5,-1
 9 693 l 1,6,-1
 173 693 l 1,7,-1
 242 124 l 1,8,-1
 338 693 l 1,9,-1
 510 693 l 1,10,-1
 600 124 l 1,11,-1
 681 693 l 1,12,-1
 837 693 l 1,0,-1
EndSplineSet
Substitution2: "'c2sc' Capitals to Small Capitals lookup 26 subtable" w.sc
Substitution2: "'aalt' Access All Alternates lookup 0 subtable" w.sc
Position2: "'cpsp' Capital Spacing lookup 0 subtable" dx=5 dy=0 dh=10 dv=0
EndChar

StartChar: uni2C72
Encoding: 11378 11378 306
Width: 909
GlyphClass: 2
Flags: W
AnchorPoint: "Anchor-18" 0 0 basechar 0
AnchorPoint: "Anchor-17" 0 0 basechar 0
AnchorPoint: "Anchor-16" 425 693 basechar 0
AnchorPoint: "Anchor-15" 0 0 basechar 0
AnchorPoint: "Anchor-14" 420 0 basechar 0
LayerCount: 2
Fore
SplineSet
123 0 m 1,0,-1
 331 0 l 1,1,-1
 422 529 l 1,2,-1
 508 0 l 1,3,-1
 717 0 l 1,4,-1
 796 537 l 2,5,6
 800 568 800 568 812.5 581.5 c 128,-1,7
 825 595 825 595 849 595 c 0,8,9
 866 595 866 595 877 591 c 128,-1,10
 888 587 888 587 902 579 c 1,11,-1
 948 672 l 1,12,13
 922 691 922 691 893 700.5 c 128,-1,14
 864 710 864 710 825 710 c 0,15,16
 751 710 751 710 707.5 670 c 128,-1,17
 664 630 664 630 654 538 c 2,18,-1
 600 124 l 1,19,-1
 510 693 l 1,20,-1
 338 693 l 1,21,-1
 242 124 l 1,22,-1
 173 693 l 1,23,-1
 9 693 l 1,24,-1
 123 0 l 1,0,-1
EndSplineSet
Substitution2: "'c2sc' Capitals to Small Capitals lookup 26 subtable" uni2C73.sc
Substitution2: "'aalt' Access All Alternates lookup 0 subtable" uni2C73.sc
Position2: "'cpsp' Capital Spacing lookup 0 subtable" dx=5 dy=0 dh=10 dv=0
EndChar

StartChar: uni01F7
Encoding: 503 503 307
Width: 600
GlyphClass: 2
Flags: W
AnchorPoint: "Anchor-18" 0 0 basechar 0
AnchorPoint: "Anchor-17" 0 0 basechar 0
AnchorPoint: "Anchor-16" 300 693 basechar 0
AnchorPoint: "Anchor-15" 0 0 basechar 0
AnchorPoint: "Anchor-14" 300 0 basechar 0
LayerCount: 2
Fore
SplineSet
483 686.5 m 128,-1,1
 527 663 527 663 552.5 619 c 128,-1,2
 578 575 578 575 578 517 c 0,3,4
 578 439 578 439 543 385.5 c 128,-1,5
 508 332 508 332 449.5 297 c 128,-1,6
 391 262 391 262 304 230 c 2,7,-1
 229 202 l 1,8,-1
 229 0 l 1,9,-1
 65 0 l 1,10,-1
 65 693 l 1,11,-1
 229 693 l 1,12,-1
 229 650 l 1,13,14
 289 710 289 710 387 710 c 0,15,0
 439 710 439 710 483 686.5 c 128,-1,1
374.5 407.5 m 128,-1,17
 409 450 409 450 409 508 c 0,18,19
 409 549 409 549 388 570.5 c 128,-1,20
 367 592 367 592 329 592 c 0,21,22
 273 592 273 592 229 553 c 1,23,-1
 229 317 l 1,24,-1
 270 334 l 2,25,16
 340 365 340 365 374.5 407.5 c 128,-1,17
EndSplineSet
Substitution2: "'c2sc' Capitals to Small Capitals lookup 26 subtable" uni01BF.sc
Substitution2: "'aalt' Access All Alternates lookup 0 subtable" uni01BF.sc
Position2: "'cpsp' Capital Spacing lookup 0 subtable" dx=5 dy=0 dh=10 dv=0
EndChar

StartChar: X
Encoding: 88 88 308
Width: 581
GlyphClass: 2
Flags: W
AnchorPoint: "Anchor-18" 0 0 basechar 0
AnchorPoint: "Anchor-17" 0 0 basechar 0
AnchorPoint: "Anchor-16" 291 693 basechar 0
AnchorPoint: "Anchor-15" 0 0 basechar 0
AnchorPoint: "Anchor-14" 291 0 basechar 0
LayerCount: 2
Fore
SplineSet
385 374 m 1,0,-1
 585 0 l 1,1,-1
 406 0 l 1,2,-1
 287 264 l 1,3,-1
 170 0 l 1,4,-1
 -4 0 l 1,5,-1
 190 368 l 1,6,-1
 11 693 l 1,7,-1
 189 693 l 1,8,-1
 289 471 l 1,9,-1
 394 693 l 1,10,-1
 568 693 l 1,11,-1
 385 374 l 1,0,-1
EndSplineSet
Substitution2: "'c2sc' Capitals to Small Capitals lookup 26 subtable" x.sc
Substitution2: "'aalt' Access All Alternates lookup 0 subtable" x.sc
Position2: "'cpsp' Capital Spacing lookup 0 subtable" dx=5 dy=0 dh=10 dv=0
EndChar

StartChar: Y
Encoding: 89 89 309
Width: 594
GlyphClass: 2
Flags: W
AnchorPoint: "Anchor-18" 0 0 basechar 0
AnchorPoint: "Anchor-17" 0 0 basechar 0
AnchorPoint: "Anchor-16" 297 693 basechar 0
AnchorPoint: "Anchor-15" 0 0 basechar 0
AnchorPoint: "Anchor-14" 297 0 basechar 0
LayerCount: 2
Fore
SplineSet
601 693 m 1,0,-1
 379 260 l 1,1,-1
 379 0 l 1,2,-1
 215 0 l 1,3,-1
 215 259 l 1,4,-1
 -7 693 l 1,5,-1
 172 693 l 1,6,-1
 300 388 l 1,7,-1
 428 693 l 1,8,-1
 601 693 l 1,0,-1
EndSplineSet
Substitution2: "'c2sc' Capitals to Small Capitals lookup 26 subtable" y.sc
Substitution2: "'aalt' Access All Alternates lookup 0 subtable" y.sc
Position2: "'cpsp' Capital Spacing lookup 0 subtable" dx=5 dy=0 dh=10 dv=0
EndChar

StartChar: uni01B3
Encoding: 435 435 315
Width: 633
GlyphClass: 2
Flags: W
AnchorPoint: "Anchor-18" 0 0 basechar 0
AnchorPoint: "Anchor-17" 0 0 basechar 0
AnchorPoint: "Anchor-16" 307 693 basechar 0
AnchorPoint: "Anchor-15" 0 0 basechar 0
AnchorPoint: "Anchor-14" 297 0 basechar 0
LayerCount: 2
Fore
SplineSet
215 259 m 1,0,-1
 -7 693 l 1,1,-1
 172 693 l 1,2,-1
 300 388 l 1,3,-1
 370 566 l 2,4,5
 399 644 399 644 440.5 677 c 128,-1,6
 482 710 482 710 552 710 c 0,7,8
 618 710 618 710 672 673 c 1,9,-1
 627 579 l 1,10,11
 599 595 599 595 573 595 c 0,12,13
 550 595 550 595 535.5 583 c 128,-1,14
 521 571 521 571 507 540 c 2,15,-1
 379 260 l 1,16,-1
 379 0 l 1,17,-1
 215 0 l 1,18,-1
 215 259 l 1,0,-1
EndSplineSet
Substitution2: "'c2sc' Capitals to Small Capitals lookup 26 subtable" uni01B4.sc
Substitution2: "'aalt' Access All Alternates lookup 0 subtable" uni01B4.sc
Position2: "'cpsp' Capital Spacing lookup 0 subtable" dx=5 dy=0 dh=10 dv=0
EndChar

StartChar: uni01A6
Encoding: 422 422 318
Width: 617
GlyphClass: 2
Flags: W
AnchorPoint: "Anchor-18" 0 0 basechar 0
AnchorPoint: "Anchor-17" 0 0 basechar 0
AnchorPoint: "Anchor-16" 308 693 basechar 0
AnchorPoint: "Anchor-15" 0 0 basechar 0
AnchorPoint: "Anchor-14" 308 -210 basechar 0
LayerCount: 2
Fore
SplineSet
293 150 m 1,0,-1
 229 150 l 1,1,-1
 229 0 l 1,2,-1
 65 0 l 1,3,-1
 65 693 l 1,4,-1
 229 693 l 1,5,-1
 229 579 l 1,6,-1
 292 579 l 2,7,8
 434 579 434 579 505.5 527 c 128,-1,9
 577 475 577 475 577 368 c 0,10,11
 577 300 577 300 545 256 c 128,-1,12
 513 212 513 212 444 180 c 1,13,-1
 620 -115 l 1,14,-1
 435 -115 l 1,15,-1
 293 150 l 1,0,-1
229 264 m 1,16,-1
 298 264 l 2,17,18
 353 264 353 264 380.5 289 c 128,-1,19
 408 314 408 314 408 368 c 0,20,21
 408 417 408 417 378.5 440 c 128,-1,22
 349 463 349 463 288 463 c 2,23,-1
 229 463 l 1,24,-1
 229 264 l 1,16,-1
EndSplineSet
Substitution2: "'c2sc' Capitals to Small Capitals lookup 26 subtable" uni0280.sc
Substitution2: "'aalt' Access All Alternates lookup 0 subtable" uni0280.sc
Position2: "'cpsp' Capital Spacing lookup 0 subtable" dx=5 dy=0 dh=10 dv=0
EndChar

StartChar: uni024E
Encoding: 590 590 319
Width: 594
GlyphClass: 2
Flags: W
AnchorPoint: "Anchor-18" 0 0 basechar 0
AnchorPoint: "Anchor-17" 0 0 basechar 0
AnchorPoint: "Anchor-16" 297 693 basechar 0
AnchorPoint: "Anchor-15" 0 0 basechar 0
AnchorPoint: "Anchor-14" 297 0 basechar 0
LayerCount: 2
Fore
SplineSet
602 693 m 1,0,-1
 562 615 l 1,1,-1
 602 615 l 1,2,-1
 602 523 l 1,3,-1
 515 523 l 1,4,-1
 380 260 l 1,5,-1
 380 0 l 1,6,-1
 215 0 l 1,7,-1
 215 259 l 1,8,-1
 80 523 l 1,9,-1
 -6 523 l 1,10,-1
 -6 615 l 1,11,-1
 33 615 l 1,12,-1
 -7 693 l 1,13,-1
 167 693 l 1,14,-1
 200 615 l 1,15,-1
 402 615 l 1,16,-1
 435 693 l 1,17,-1
 602 693 l 1,0,-1
300 375 m 1,18,-1
 363 523 l 1,19,-1
 238 523 l 1,20,-1
 300 375 l 1,18,-1
EndSplineSet
Substitution2: "'c2sc' Capitals to Small Capitals lookup 26 subtable" uni024F.sc
Substitution2: "'aalt' Access All Alternates lookup 0 subtable" uni024F.sc
Position2: "'cpsp' Capital Spacing lookup 0 subtable" dx=5 dy=0 dh=10 dv=0
EndChar

StartChar: Z
Encoding: 90 90 321
Width: 544
GlyphClass: 2
Flags: W
AnchorPoint: "Anchor-18" 0 0 basechar 0
AnchorPoint: "Anchor-17" 0 0 basechar 0
AnchorPoint: "Anchor-16" 276 693 basechar 0
AnchorPoint: "Anchor-15" 0 0 basechar 0
AnchorPoint: "Anchor-14" 264 0 basechar 0
LayerCount: 2
Fore
SplineSet
512 693 m 1,0,-1
 512 569 l 1,1,-1
 211 131 l 1,2,-1
 517 131 l 1,3,-1
 501 0 l 1,4,-1
 18 0 l 1,5,-1
 18 123 l 1,6,-1
 325 566 l 1,7,-1
 49 566 l 1,8,-1
 49 693 l 1,9,-1
 512 693 l 1,0,-1
EndSplineSet
Substitution2: "'c2sc' Capitals to Small Capitals lookup 26 subtable" z.sc
Substitution2: "'aalt' Access All Alternates lookup 0 subtable" z.sc
Position2: "'cpsp' Capital Spacing lookup 0 subtable" dx=5 dy=0 dh=10 dv=0
EndChar

StartChar: uni0224
Encoding: 548 548 327
Width: 538
GlyphClass: 2
Flags: W
AnchorPoint: "Anchor-18" 0 0 basechar 0
AnchorPoint: "Anchor-17" 0 0 basechar 0
AnchorPoint: "Anchor-16" 269 693 basechar 0
AnchorPoint: "Anchor-15" 0 0 basechar 0
AnchorPoint: "Anchor-14" 269 -210 basechar 0
LayerCount: 2
Fore
SplineSet
512 569 m 1,0,-1
 211 131 l 1,1,-1
 510 131 l 1,2,-1
 510 -31 l 2,3,4
 510 -125 510 -125 456 -173.5 c 128,-1,5
 402 -222 402 -222 309 -222 c 0,6,7
 224 -222 224 -222 168 -179 c 1,8,-1
 221 -82 l 1,9,10
 244 -94 244 -94 258 -98.5 c 128,-1,11
 272 -103 272 -103 295 -103 c 0,12,13
 353 -103 353 -103 353 -42 c 2,14,-1
 353 0 l 1,15,-1
 18 0 l 1,16,-1
 18 123 l 1,17,-1
 325 566 l 1,18,-1
 49 566 l 1,19,-1
 49 693 l 1,20,-1
 512 693 l 1,21,-1
 512 569 l 1,0,-1
EndSplineSet
Substitution2: "'c2sc' Capitals to Small Capitals lookup 26 subtable" uni0225.sc
Substitution2: "'aalt' Access All Alternates lookup 0 subtable" uni0225.sc
Position2: "'cpsp' Capital Spacing lookup 0 subtable" dx=5 dy=0 dh=10 dv=0
EndChar

StartChar: uni01B5
Encoding: 437 437 328
Width: 544
GlyphClass: 2
Flags: W
AnchorPoint: "Anchor-18" 0 0 basechar 0
AnchorPoint: "Anchor-17" 0 0 basechar 0
AnchorPoint: "Anchor-16" 272 693 basechar 0
AnchorPoint: "Anchor-15" 0 0 basechar 0
AnchorPoint: "Anchor-14" 272 0 basechar 0
LayerCount: 2
Fore
SplineSet
197 131 m 1,0,-1
 517 131 l 1,1,-1
 501 0 l 1,2,-1
 18 0 l 1,3,-1
 18 116 l 1,4,-1
 146 295 l 1,5,-1
 65 295 l 1,6,-1
 65 399 l 1,7,-1
 220 399 l 1,8,-1
 339 566 l 1,9,-1
 49 566 l 1,10,-1
 49 693 l 1,11,-1
 512 693 l 1,12,-1
 512 575 l 1,13,-1
 387 399 l 1,14,-1
 467 399 l 1,15,-1
 467 295 l 1,16,-1
 313 295 l 1,17,-1
 197 131 l 1,0,-1
EndSplineSet
Substitution2: "'c2sc' Capitals to Small Capitals lookup 26 subtable" uni01B6.sc
Substitution2: "'aalt' Access All Alternates lookup 0 subtable" uni01B6.sc
Position2: "'cpsp' Capital Spacing lookup 0 subtable" dx=5 dy=0 dh=10 dv=0
EndChar

StartChar: uni0262
Encoding: 610 610 330
Width: 560
GlyphClass: 2
Flags: W
AnchorPoint: "Anchor-18" 0 0 basechar 0
AnchorPoint: "Anchor-17" 0 0 basechar 0
AnchorPoint: "Anchor-16" 306 531 basechar 0
AnchorPoint: "Anchor-15" 0 0 basechar 0
AnchorPoint: "Anchor-14" 288 0 basechar 0
LayerCount: 2
Fore
SplineSet
422 529.5 m 128,-1,1
 471 511 471 511 513 476 c 1,2,-1
 437 393 l 1,3,4
 406 415 406 415 378 425.5 c 128,-1,5
 350 436 350 436 316 436 c 0,6,7
 259 436 259 436 227 392.5 c 128,-1,8
 195 349 195 349 195 268 c 0,9,10
 195 174 195 174 220.5 135.5 c 128,-1,11
 246 97 246 97 297 97 c 0,12,13
 339 97 339 97 370 111 c 1,14,-1
 370 207 l 1,15,-1
 302 207 l 1,16,-1
 287 311 l 1,17,-1
 518 311 l 1,18,-1
 518 48 l 1,19,20
 472 20 472 20 415 2.5 c 128,-1,21
 358 -15 358 -15 295 -15 c 0,22,23
 32 -15 32 -15 32 268 c 0,24,25
 32 353 32 353 68 416.5 c 128,-1,26
 104 480 104 480 166 514 c 128,-1,27
 228 548 228 548 306 548 c 0,28,0
 373 548 373 548 422 529.5 c 128,-1,1
EndSplineSet
EndChar

StartChar: uni029B
Encoding: 667 667 331
Width: 560
GlyphClass: 2
Flags: W
AnchorPoint: "Anchor-18" 0 0 basechar 0
AnchorPoint: "Anchor-17" 0 0 basechar 0
AnchorPoint: "Anchor-16" 280 742 basechar 0
AnchorPoint: "Anchor-15" 0 0 basechar 0
AnchorPoint: "Anchor-14" 295 0 basechar 0
LayerCount: 2
Fore
SplineSet
678 721 m 1,1,-1
 632 623 l 1,2,3
 613 633 613 633 598 637.5 c 128,-1,4
 583 642 583 642 565 642 c 0,5,6
 539 642 539 642 526 627.5 c 128,-1,7
 513 613 513 613 513 581 c 2,8,-1
 513 476 l 1,9,-1
 445 401 l 1,10,11
 410 419 410 419 382 427.5 c 128,-1,12
 354 436 354 436 318 436 c 0,13,14
 259 436 259 436 227 393 c 128,-1,15
 195 350 195 350 195 268 c 0,16,17
 195 174 195 174 220.5 135.5 c 128,-1,18
 246 97 246 97 297 97 c 0,19,20
 339 97 339 97 370 111 c 1,21,-1
 370 207 l 1,22,-1
 302 207 l 1,23,-1
 287 311 l 1,24,-1
 518 311 l 1,25,-1
 518 48 l 1,26,27
 475 19 475 19 418.5 2 c 128,-1,28
 362 -15 362 -15 297 -15 c 0,29,30
 32 -15 32 -15 32 268 c 0,31,32
 32 352 32 352 67 416 c 128,-1,33
 102 480 102 480 161.5 514 c 128,-1,34
 221 548 221 548 292 548 c 0,35,36
 339 548 339 548 374 535 c 1,37,-1
 374 588 l 2,38,39
 374 670 374 670 416.5 714.5 c 128,-1,40
 459 759 459 759 543 759 c 0,41,0
 619 759 619 759 678 721 c 1,1,-1
EndSplineSet
EndChar

StartChar: uni026A
Encoding: 618 618 333
Width: 337
GlyphClass: 2
Flags: W
AnchorPoint: "Anchor-18" 0 0 basechar 0
AnchorPoint: "Anchor-17" 0 0 basechar 0
AnchorPoint: "Anchor-16" 169 531 basechar 0
AnchorPoint: "Anchor-15" 0 0 basechar 0
AnchorPoint: "Anchor-14" 169 0 basechar 0
LayerCount: 2
Fore
SplineSet
322 418 m 1,0,-1
 247 418 l 1,1,-1
 247 114 l 1,2,-1
 322 114 l 1,3,-1
 322 0 l 1,4,-1
 16 0 l 1,5,-1
 16 114 l 1,6,-1
 89 114 l 1,7,-1
 89 418 l 1,8,-1
 16 418 l 1,9,-1
 16 531 l 1,10,-1
 322 531 l 1,11,-1
 322 418 l 1,0,-1
EndSplineSet
EndChar

StartChar: uni029F
Encoding: 671 671 334
Width: 450
GlyphClass: 2
Flags: W
AnchorPoint: "Anchor-18" 0 0 basechar 0
AnchorPoint: "Anchor-17" 0 0 basechar 0
AnchorPoint: "Anchor-16" 141 531 basechar 0
AnchorPoint: "Anchor-15" 0 0 basechar 0
AnchorPoint: "Anchor-14" 239 0 basechar 0
LayerCount: 2
Fore
SplineSet
220 531 m 1,0,-1
 220 122 l 1,1,-1
 442 122 l 1,2,-1
 425 0 l 1,3,-1
 62 0 l 1,4,-1
 62 531 l 1,5,-1
 220 531 l 1,0,-1
EndSplineSet
EndChar

StartChar: uni0274
Encoding: 628 628 335
Width: 588
GlyphClass: 2
Flags: W
AnchorPoint: "Anchor-18" 0 0 basechar 0
AnchorPoint: "Anchor-17" 0 0 basechar 0
AnchorPoint: "Anchor-16" 294 531 basechar 0
AnchorPoint: "Anchor-15" 0 0 basechar 0
AnchorPoint: "Anchor-14" 294 0 basechar 0
LayerCount: 2
Fore
SplineSet
526 0 m 1,0,-1
 336 0 l 1,1,-1
 178 394 l 1,2,3
 189 328 189 328 195.5 274 c 128,-1,4
 202 220 202 220 202 150 c 2,5,-1
 202 0 l 1,6,-1
 62 0 l 1,7,-1
 62 531 l 1,8,-1
 250 531 l 1,9,-1
 409 137 l 1,10,11
 396 209 396 209 391 250 c 128,-1,12
 386 291 386 291 386 356 c 2,13,-1
 386 531 l 1,14,-1
 526 531 l 1,15,-1
 526 0 l 1,0,-1
EndSplineSet
EndChar

StartChar: uni0276
Encoding: 630 630 336
Width: 768
GlyphClass: 2
Flags: W
AnchorPoint: "Anchor-18" 0 0 basechar 0
AnchorPoint: "Anchor-17" 0 0 basechar 0
AnchorPoint: "Anchor-16" 415 531 basechar 0
AnchorPoint: "Anchor-15" 0 0 basechar 0
AnchorPoint: "Anchor-14" 415 0 basechar 0
LayerCount: 2
Fore
SplineSet
495 110 m 1,1,-1
 743 110 l 1,2,-1
 743 0 l 1,3,-1
 388 0 l 1,4,5
 342 -17 342 -17 292 -17 c 0,6,7
 171 -17 171 -17 101.5 57.5 c 128,-1,8
 32 132 32 132 32 266 c 0,9,10
 32 351 32 351 63.5 414.5 c 128,-1,11
 95 478 95 478 153.5 513 c 128,-1,12
 212 548 212 548 292 548 c 0,13,14
 344 548 344 548 392 531 c 1,15,-1
 745 531 l 1,16,-1
 729 422 l 1,17,-1
 497 422 l 1,18,19
 528 380 528 380 541 322 c 1,20,-1
 704 322 l 1,21,-1
 704 216 l 1,22,-1
 543 216 l 1,23,0
 531 154 531 154 495 110 c 1,1,-1
388 266 m 0,25,26
 388 432 388 432 292 432 c 0,27,28
 244 432 244 432 220 391.5 c 128,-1,29
 196 351 196 351 196 266 c 0,30,31
 196 179 196 179 219.5 139 c 128,-1,32
 243 99 243 99 292 99 c 0,33,24
 388 99 388 99 388 266 c 0,25,26
EndSplineSet
EndChar

StartChar: uni0280
Encoding: 640 640 337
Width: 530
GlyphClass: 2
Flags: W
AnchorPoint: "Anchor-18" 0 0 basechar 0
AnchorPoint: "Anchor-17" 0 0 basechar 0
AnchorPoint: "Anchor-16" 269 531 basechar 0
AnchorPoint: "Anchor-15" 0 0 basechar 0
AnchorPoint: "Anchor-14" 269 0 basechar 0
LayerCount: 2
Fore
SplineSet
257 183 m 1,0,-1
 214 183 l 1,1,-1
 214 0 l 1,2,-1
 62 0 l 1,3,-1
 62 531 l 1,4,-1
 253 531 l 2,5,6
 367 531 367 531 427 487.5 c 128,-1,7
 487 444 487 444 487 356 c 0,8,9
 487 306 487 306 464 266.5 c 128,-1,10
 441 227 441 227 396 206 c 1,11,-1
 526 0 l 1,12,-1
 360 0 l 1,13,-1
 257 183 l 1,0,-1
214 279 m 1,14,-1
 255 279 l 2,15,16
 295 279 295 279 314 296.5 c 128,-1,17
 333 314 333 314 333 357 c 0,18,19
 333 397 333 397 312.5 413.5 c 128,-1,20
 292 430 292 430 249 430 c 2,21,-1
 214 430 l 1,22,-1
 214 279 l 1,14,-1
EndSplineSet
Substitution2: "'smcp' Lowercase to Small Capitals lookup 27 subtable" uni0280.sc
Substitution2: "'aalt' Access All Alternates lookup 0 subtable" uni0280.sc
EndChar

StartChar: uni0281
Encoding: 641 641 338
Width: 530
GlyphClass: 2
Flags: W
AnchorPoint: "Anchor-18" 0 0 basechar 0
AnchorPoint: "Anchor-17" 0 0 basechar 0
AnchorPoint: "Anchor-16" 269 531 basechar 0
AnchorPoint: "Anchor-15" 0 0 basechar 0
AnchorPoint: "Anchor-14" 269 0 basechar 0
LayerCount: 2
Fore
SplineSet
464.5 267.5 m 128,-1,1
 487 230 487 230 487 179 c 0,2,3
 487 88 487 88 427 44 c 128,-1,4
 367 0 367 0 253 0 c 2,5,-1
 62 0 l 1,6,-1
 62 531 l 1,7,-1
 214 531 l 1,8,-1
 214 348 l 1,9,-1
 257 348 l 1,10,-1
 360 531 l 1,11,-1
 526 531 l 1,12,-1
 397 326 l 1,13,0
 442 305 442 305 464.5 267.5 c 128,-1,1
312.5 118.5 m 128,-1,15
 333 135 333 135 333 178 c 0,16,17
 333 218 333 218 313.5 235.5 c 128,-1,18
 294 253 294 253 255 253 c 2,19,-1
 214 253 l 1,20,-1
 214 102 l 1,21,-1
 249 102 l 2,22,14
 292 102 292 102 312.5 118.5 c 128,-1,15
EndSplineSet
EndChar

StartChar: uni028F
Encoding: 655 655 339
Width: 498
GlyphClass: 2
Flags: W
AnchorPoint: "Anchor-18" 0 0 basechar 0
AnchorPoint: "Anchor-17" 0 0 basechar 0
AnchorPoint: "Anchor-16" 249 531 basechar 0
AnchorPoint: "Anchor-15" 0 0 basechar 0
AnchorPoint: "Anchor-14" 249 0 basechar 0
LayerCount: 2
Fore
SplineSet
510 531 m 1,0,-1
 328 192 l 1,1,-1
 328 0 l 1,2,-1
 170 0 l 1,3,-1
 170 191 l 1,4,-1
 -12 531 l 1,5,-1
 156 531 l 1,6,-1
 252 293 l 1,7,-1
 347 531 l 1,8,-1
 510 531 l 1,0,-1
EndSplineSet
EndChar

StartChar: a
Encoding: 97 97 340
Width: 548
GlyphClass: 2
Flags: W
AnchorPoint: "Anchor-18" 0 0 basechar 0
AnchorPoint: "Anchor-17" 0 0 basechar 0
AnchorPoint: "Anchor-16" 271 531 basechar 0
AnchorPoint: "Anchor-15" 497 -14 basechar 0
AnchorPoint: "Anchor-14" 271 0 basechar 0
LayerCount: 2
Fore
SplineSet
492.5 110 m 128,-1,1
 501 96 501 96 520 89 c 1,2,-1
 487 -14 l 1,3,4
 438 -10 438 -10 407 7.5 c 128,-1,5
 376 25 376 25 359 63 c 1,6,7
 307 -17 307 -17 199 -17 c 0,8,9
 120 -17 120 -17 73 29 c 128,-1,10
 26 75 26 75 26 149 c 0,11,12
 26 236 26 236 90 282 c 128,-1,13
 154 328 154 328 275 328 c 2,14,-1
 329 328 l 1,15,-1
 329 351 l 2,16,17
 329 398 329 398 309 415.5 c 128,-1,18
 289 433 289 433 239 433 c 0,19,20
 213 433 213 433 176 425.5 c 128,-1,21
 139 418 139 418 100 405 c 1,22,-1
 64 509 l 1,23,24
 114 528 114 528 166.5 538 c 128,-1,25
 219 548 219 548 264 548 c 0,26,27
 378 548 378 548 431 501 c 128,-1,28
 484 454 484 454 484 360 c 2,29,-1
 484 154 l 2,30,0
 484 124 484 124 492.5 110 c 128,-1,1
329 147 m 1,32,-1
 329 241 l 1,33,-1
 290 241 l 2,34,35
 236 241 236 241 209.5 222 c 128,-1,36
 183 203 183 203 183 163 c 0,37,38
 183 131 183 131 199.5 113.5 c 128,-1,39
 216 96 216 96 245 96 c 0,40,31
 299 96 299 96 329 147 c 1,32,-1
EndSplineSet
Substitution2: "Single Substitution lookup 45 subtable" ordfeminine
Substitution2: "'ss04' Style Set 4 lookup 36 subtable" a.ss04
Substitution2: "'salt' Stylistic Alternatives lookup 32 subtable" a.ss04
Substitution2: "'smcp' Lowercase to Small Capitals lookup 27 subtable" a.sc
AlternateSubs2: "'aalt' Access All Alternates lookup 1 subtable" ordfeminine a.sc a.ss04
EndChar

StartChar: a.ss04
Encoding: 65547 -1 341
Width: 597
GlyphClass: 2
Flags: W
AnchorPoint: "Anchor-18" 0 0 basechar 0
AnchorPoint: "Anchor-17" 0 0 basechar 0
AnchorPoint: "Anchor-16" 299 531 basechar 0
AnchorPoint: "Anchor-15" 0 0 basechar 0
AnchorPoint: "Anchor-14" 299 0 basechar 0
LayerCount: 2
Fore
SplineSet
539.5 126 m 128,-1,1
 549 109 549 109 573 97 c 1,2,-1
 527 -17 l 1,3,4
 474 -7 474 -7 441.5 12.5 c 128,-1,5
 409 32 409 32 392 64 c 1,6,7
 365 27 365 27 324.5 5 c 128,-1,8
 284 -17 284 -17 237 -17 c 0,9,10
 138 -17 138 -17 85 59 c 128,-1,11
 32 135 32 135 32 267 c 0,12,13
 32 349 32 349 59 412.5 c 128,-1,14
 86 476 86 476 136 512 c 128,-1,15
 186 548 186 548 253 548 c 0,16,17
 334 548 334 548 384 486 c 1,18,-1
 393 531 l 1,19,-1
 530 531 l 1,20,-1
 530 178 l 2,21,0
 530 143 530 143 539.5 126 c 128,-1,1
372 157 m 1,23,-1
 372 389 l 1,24,25
 353 411 353 411 333 422 c 128,-1,26
 313 433 313 433 288 433 c 0,27,28
 245 433 245 433 220.5 392.5 c 128,-1,29
 196 352 196 352 196 266 c 0,30,31
 196 173 196 173 218 136 c 128,-1,32
 240 99 240 99 281 99 c 0,33,22
 335 99 335 99 372 157 c 1,23,-1
EndSplineSet
EndChar

StartChar: uni0251
Encoding: 593 593 365
Width: 597
GlyphClass: 2
Flags: W
AnchorPoint: "Anchor-18" 0 0 basechar 0
AnchorPoint: "Anchor-17" 0 0 basechar 0
AnchorPoint: "Anchor-16" 299 531 basechar 0
AnchorPoint: "Anchor-15" 0 0 basechar 0
AnchorPoint: "Anchor-14" 299 0 basechar 0
LayerCount: 2
Fore
SplineSet
539.5 126 m 128,-1,1
 549 109 549 109 573 97 c 1,2,-1
 527 -17 l 1,3,4
 474 -7 474 -7 441.5 12.5 c 128,-1,5
 409 32 409 32 392 64 c 1,6,7
 365 27 365 27 324.5 5 c 128,-1,8
 284 -17 284 -17 237 -17 c 0,9,10
 138 -17 138 -17 85 59 c 128,-1,11
 32 135 32 135 32 267 c 0,12,13
 32 349 32 349 59 412.5 c 128,-1,14
 86 476 86 476 136 512 c 128,-1,15
 186 548 186 548 253 548 c 0,16,17
 334 548 334 548 384 486 c 1,18,-1
 393 531 l 1,19,-1
 530 531 l 1,20,-1
 530 178 l 2,21,0
 530 143 530 143 539.5 126 c 128,-1,1
372 157 m 1,23,-1
 372 389 l 1,24,25
 353 411 353 411 333 422 c 128,-1,26
 313 433 313 433 288 433 c 0,27,28
 245 433 245 433 220.5 392.5 c 128,-1,29
 196 352 196 352 196 266 c 0,30,31
 196 173 196 173 218 136 c 128,-1,32
 240 99 240 99 281 99 c 0,33,22
 335 99 335 99 372 157 c 1,23,-1
EndSplineSet
Substitution2: "'smcp' Lowercase to Small Capitals lookup 27 subtable" uni0251.sc
Substitution2: "'aalt' Access All Alternates lookup 0 subtable" uni0251.sc
EndChar

StartChar: uni0252
Encoding: 594 594 366
Width: 597
GlyphClass: 2
Flags: W
AnchorPoint: "Anchor-18" 0 0 basechar 0
AnchorPoint: "Anchor-17" 0 0 basechar 0
AnchorPoint: "Anchor-16" 299 531 basechar 0
AnchorPoint: "Anchor-15" 0 0 basechar 0
AnchorPoint: "Anchor-14" 299 0 basechar 0
LayerCount: 2
Fore
SplineSet
512 472 m 128,-1,1
 565 396 565 396 565 264 c 0,2,3
 565 182 565 182 538 118.5 c 128,-1,4
 511 55 511 55 461 19 c 128,-1,5
 411 -17 411 -17 344 -17 c 0,6,7
 263 -17 263 -17 213 45 c 1,8,-1
 204 0 l 1,9,-1
 67 0 l 1,10,-1
 67 353 l 2,11,12
 67 388 67 388 57.5 405 c 128,-1,13
 48 422 48 422 24 434 c 1,14,-1
 70 548 l 1,15,16
 123 538 123 538 155.5 518.5 c 128,-1,17
 188 499 188 499 205 467 c 1,18,19
 232 504 232 504 272.5 526 c 128,-1,20
 313 548 313 548 360 548 c 0,21,0
 459 548 459 548 512 472 c 128,-1,1
376.5 138.5 m 128,-1,23
 401 179 401 179 401 265 c 0,24,25
 401 358 401 358 379 395 c 128,-1,26
 357 432 357 432 316 432 c 0,27,28
 262 432 262 432 225 374 c 1,29,-1
 225 142 l 1,30,31
 244 120 244 120 264 109 c 128,-1,32
 284 98 284 98 309 98 c 0,33,22
 352 98 352 98 376.5 138.5 c 128,-1,23
EndSplineSet
EndChar

StartChar: aogonek
Encoding: 261 261 368
Width: 548
GlyphClass: 2
Flags: W
AnchorPoint: "Anchor-18" 0 0 basechar 0
AnchorPoint: "Anchor-17" 0 0 basechar 0
AnchorPoint: "Anchor-16" 271 531 basechar 0
AnchorPoint: "Anchor-15" 497 -14 basechar 0
AnchorPoint: "Anchor-14" 271 0 basechar 0
LayerCount: 2
Fore
SplineSet
369 -116 m 0,1,2
 369 -162 369 -162 422 -162 c 0,3,4
 446 -162 446 -162 483 -154 c 1,5,-1
 472 -252 l 1,6,7
 437 -260 437 -260 402 -260 c 0,8,9
 337 -260 337 -260 296 -228 c 128,-1,10
 255 -196 255 -196 255 -143 c 0,11,12
 255 -41 255 -41 396 15 c 1,13,14
 374 31 374 31 359 63 c 1,15,16
 307 -17 307 -17 199 -17 c 0,17,18
 120 -17 120 -17 73 29 c 128,-1,19
 26 75 26 75 26 149 c 0,20,21
 26 236 26 236 90 282 c 128,-1,22
 154 328 154 328 275 328 c 2,23,-1
 329 328 l 1,24,-1
 329 351 l 2,25,26
 329 398 329 398 309 415.5 c 128,-1,27
 289 433 289 433 239 433 c 0,28,29
 213 433 213 433 176 425.5 c 128,-1,30
 139 418 139 418 100 405 c 1,31,-1
 64 509 l 1,32,33
 114 528 114 528 166.5 538 c 128,-1,34
 219 548 219 548 264 548 c 0,35,36
 378 548 378 548 431 501 c 128,-1,37
 484 454 484 454 484 360 c 2,38,-1
 484 154 l 2,39,40
 484 124 484 124 492.5 110 c 128,-1,41
 501 96 501 96 520 89 c 1,42,-1
 487 -14 l 1,43,0
 369 -58 369 -58 369 -116 c 0,1,2
329 147 m 1,45,-1
 329 241 l 1,46,-1
 290 241 l 2,47,48
 236 241 236 241 209.5 222 c 128,-1,49
 183 203 183 203 183 163 c 0,50,51
 183 131 183 131 199.5 113.5 c 128,-1,52
 216 96 216 96 245 96 c 0,53,44
 299 96 299 96 329 147 c 1,45,-1
EndSplineSet
Substitution2: "'smcp' Lowercase to Small Capitals lookup 27 subtable" aogonek.sc
Substitution2: "'aalt' Access All Alternates lookup 0 subtable" aogonek.sc
EndChar

StartChar: aringacute
Encoding: 507 507 370
Width: 548
GlyphClass: 2
Flags: W
AnchorPoint: "Anchor-18" 0 0 basechar 0
AnchorPoint: "Anchor-17" 0 0 basechar 0
AnchorPoint: "Anchor-16" 273 1048 basechar 0
AnchorPoint: "Anchor-15" 497 -14 basechar 0
AnchorPoint: "Anchor-14" 271 0 basechar 0
LayerCount: 2
Fore
SplineSet
411 930 m 1,0,-1
 171 843 l 1,1,-1
 131 923 l 1,2,-1
 352 1048 l 1,3,-1
 411 930 l 1,0,-1
169 615 m 128,-1,5
 131 653 131 653 131 708 c 256,6,7
 131 763 131 763 169 801 c 128,-1,8
 207 839 207 839 270 839 c 256,9,10
 333 839 333 839 371 801 c 128,-1,11
 409 763 409 763 409 708 c 256,12,13
 409 653 409 653 371 615 c 128,-1,14
 333 577 333 577 270 577 c 256,15,4
 207 577 207 577 169 615 c 128,-1,5
237 745 m 128,-1,17
 225 732 225 732 225 708 c 256,18,19
 225 684 225 684 237 671 c 128,-1,20
 249 658 249 658 270 658 c 0,21,22
 290 658 290 658 302.5 671 c 128,-1,23
 315 684 315 684 315 708 c 256,24,25
 315 732 315 732 303 745 c 128,-1,26
 291 758 291 758 270 758 c 256,27,16
 249 758 249 758 237 745 c 128,-1,17
492.5 110 m 128,-1,29
 501 96 501 96 520 89 c 1,30,-1
 487 -14 l 1,31,32
 438 -10 438 -10 407 7.5 c 128,-1,33
 376 25 376 25 359 63 c 1,34,35
 307 -17 307 -17 199 -17 c 0,36,37
 120 -17 120 -17 73 29 c 128,-1,38
 26 75 26 75 26 149 c 0,39,40
 26 236 26 236 90 282 c 128,-1,41
 154 328 154 328 275 328 c 2,42,-1
 329 328 l 1,43,-1
 329 351 l 2,44,45
 329 398 329 398 309 415.5 c 128,-1,46
 289 433 289 433 239 433 c 0,47,48
 213 433 213 433 176 425.5 c 128,-1,49
 139 418 139 418 100 405 c 1,50,-1
 64 509 l 1,51,52
 114 528 114 528 166.5 538 c 128,-1,53
 219 548 219 548 264 548 c 0,54,55
 378 548 378 548 431 501 c 128,-1,56
 484 454 484 454 484 360 c 2,57,-1
 484 154 l 2,58,28
 484 124 484 124 492.5 110 c 128,-1,29
329 147 m 1,60,-1
 329 241 l 1,61,-1
 290 241 l 2,62,63
 236 241 236 241 209.5 222 c 128,-1,64
 183 203 183 203 183 163 c 0,65,66
 183 131 183 131 199.5 113.5 c 128,-1,67
 216 96 216 96 245 96 c 0,68,59
 299 96 299 96 329 147 c 1,60,-1
EndSplineSet
Substitution2: "'smcp' Lowercase to Small Capitals lookup 27 subtable" aringacute.sc
Substitution2: "'aalt' Access All Alternates lookup 0 subtable" aringacute.sc
EndChar

StartChar: uni2C65
Encoding: 11365 11365 371
Width: 548
GlyphClass: 2
Flags: W
AnchorPoint: "Anchor-18" 0 0 basechar 0
AnchorPoint: "Anchor-17" 0 0 basechar 0
AnchorPoint: "Anchor-16" 274 531 basechar 0
AnchorPoint: "Anchor-15" 0 0 basechar 0
AnchorPoint: "Anchor-14" 274 0 basechar 0
LayerCount: 2
Fore
SplineSet
492.5 110 m 128,-1,1
 501 96 501 96 520 89 c 1,2,-1
 487 -14 l 1,3,4
 438 -10 438 -10 407 7.5 c 128,-1,5
 376 25 376 25 359 63 c 1,6,7
 315 -7 315 -7 228 -15 c 1,8,-1
 213 -74 l 1,9,-1
 160 -62 l 1,10,-1
 172 -15 l 1,11,12
 105 -7 105 -7 65.5 38 c 128,-1,13
 26 83 26 83 26 149 c 0,14,15
 26 228 26 228 85 273 c 128,-1,16
 144 318 144 318 255 322 c 1,17,-1
 285 441 l 1,18,19
 277 442 277 442 258 442 c 0,20,21
 226 442 226 442 182 434.5 c 128,-1,22
 138 427 138 427 100 414 c 1,23,-1
 64 509 l 1,24,25
 114 528 114 528 166.5 538 c 128,-1,26
 219 548 219 548 264 548 c 0,27,28
 283 548 283 548 311 546 c 1,29,-1
 325 601 l 1,30,-1
 377 588 l 1,31,-1
 364 536 l 1,32,33
 484 501 484 501 484 360 c 2,34,-1
 484 154 l 2,35,0
 484 124 484 124 492.5 110 c 128,-1,1
334 416 m 1,37,-1
 311 322 l 1,38,-1
 347 322 l 1,39,-1
 347 361 l 2,40,36
 347 397 347 397 334 416 c 1,37,-1
347 145 m 1,42,-1
 347 241 l 1,43,-1
 291 241 l 1,44,-1
 254 90 l 1,45,41
 306 96 306 96 347 145 c 1,42,-1
200 98 m 1,47,-1
 234 236 l 1,48,49
 171 223 171 223 171 159 c 0,50,46
 171 114 171 114 200 98 c 1,47,-1
EndSplineSet
Substitution2: "'smcp' Lowercase to Small Capitals lookup 27 subtable" uni2C65.sc
Substitution2: "'aalt' Access All Alternates lookup 0 subtable" uni2C65.sc
EndChar

StartChar: uni0250
Encoding: 592 592 373
Width: 548
GlyphClass: 2
Flags: W
AnchorPoint: "Anchor-18" 0 0 basechar 0
AnchorPoint: "Anchor-17" 0 0 basechar 0
AnchorPoint: "Anchor-16" 274 531 basechar 0
AnchorPoint: "Anchor-15" 51 545 basechar 0
AnchorPoint: "Anchor-14" 274 0 basechar 0
LayerCount: 2
Fore
SplineSet
372 105.5 m 128,-1,1
 409 113 409 113 448 126 c 1,2,-1
 484 22 l 1,3,4
 434 3 434 3 381.5 -7 c 128,-1,5
 329 -17 329 -17 284 -17 c 0,6,7
 170 -17 170 -17 117 30 c 128,-1,8
 64 77 64 77 64 171 c 2,9,-1
 64 377 l 2,10,11
 64 407 64 407 55.5 421 c 128,-1,12
 47 435 47 435 28 442 c 1,13,-1
 61 545 l 1,14,15
 110 541 110 541 141 523.5 c 128,-1,16
 172 506 172 506 189 468 c 1,17,18
 241 548 241 548 349 548 c 0,19,20
 428 548 428 548 475 502 c 128,-1,21
 522 456 522 456 522 382 c 0,22,23
 522 295 522 295 458 249 c 128,-1,24
 394 203 394 203 273 203 c 2,25,-1
 219 203 l 1,26,-1
 219 180 l 2,27,28
 219 133 219 133 239 115.5 c 128,-1,29
 259 98 259 98 309 98 c 0,30,0
 335 98 335 98 372 105.5 c 128,-1,1
219 384 m 1,32,-1
 219 290 l 1,33,-1
 258 290 l 2,34,35
 312 290 312 290 338.5 309 c 128,-1,36
 365 328 365 328 365 368 c 0,37,38
 365 400 365 400 348.5 417.5 c 128,-1,39
 332 435 332 435 303 435 c 0,40,31
 249 435 249 435 219 384 c 1,32,-1
EndSplineSet
EndChar

StartChar: ae
Encoding: 230 230 374
Width: 855
GlyphClass: 2
Flags: W
AnchorPoint: "Anchor-18" 0 0 basechar 0
AnchorPoint: "Anchor-17" 0 0 basechar 0
AnchorPoint: "Anchor-16" 429 531 basechar 0
AnchorPoint: "Anchor-15" 0 0 basechar 0
AnchorPoint: "Anchor-14" 417 0 basechar 0
LayerCount: 2
Fore
SplineSet
825 219 m 1,1,-1
 496 219 l 1,2,3
 503 152 503 152 533.5 125 c 128,-1,4
 564 98 564 98 617 98 c 0,5,6
 649 98 649 98 679 109.5 c 128,-1,7
 709 121 709 121 744 145 c 1,8,-1
 809 57 l 1,9,10
 716 -17 716 -17 602 -17 c 0,11,12
 532 -17 532 -17 478.5 7 c 128,-1,13
 425 31 425 31 391 74 c 1,14,15
 327 -17 327 -17 203 -17 c 0,16,17
 122 -17 122 -17 74 29 c 128,-1,18
 26 75 26 75 26 149 c 0,19,20
 26 236 26 236 91.5 282 c 128,-1,21
 157 328 157 328 281 328 c 2,22,-1
 335 328 l 1,23,-1
 335 350 l 2,24,25
 335 396 335 396 314.5 414 c 128,-1,26
 294 432 294 432 245 432 c 0,27,28
 219 432 219 432 182 424.5 c 128,-1,29
 145 417 145 417 106 404 c 1,30,-1
 70 509 l 1,31,32
 120 528 120 528 172.5 538 c 128,-1,33
 225 548 225 548 270 548 c 0,34,35
 381 548 381 548 433 481 c 1,36,37
 497 548 497 548 595 548 c 0,38,39
 665 548 665 548 717.5 515.5 c 128,-1,40
 770 483 770 483 799 422 c 128,-1,41
 828 361 828 361 828 276 c 0,42,0
 828 243 828 243 825 219 c 1,1,-1
672 321 m 2,43,44
 672 443 672 443 586 443 c 0,45,46
 546 443 546 443 523.5 413 c 128,-1,47
 501 383 501 383 496 314 c 1,48,-1
 672 314 l 1,49,-1
 672 321 l 2,43,44
304 112 m 128,-1,51
 326 128 326 128 348 160 c 1,52,53
 339 191 339 191 337 234 c 2,54,-1
 337 238 l 1,55,-1
 297 238 l 2,56,57
 244 238 244 238 218.5 219.5 c 128,-1,58
 193 201 193 201 193 160 c 0,59,60
 193 130 193 130 208.5 113 c 128,-1,61
 224 96 224 96 253 96 c 256,62,50
 282 96 282 96 304 112 c 128,-1,51
EndSplineSet
Substitution2: "'smcp' Lowercase to Small Capitals lookup 27 subtable" ae.sc
Substitution2: "'aalt' Access All Alternates lookup 0 subtable" ae.sc
EndChar

StartChar: b
Encoding: 98 98 377
Width: 597
GlyphClass: 2
Flags: W
AnchorPoint: "Anchor-18" 0 0 basechar 0
AnchorPoint: "Anchor-17" 0 0 basechar 0
AnchorPoint: "Anchor-16" 319 742 basechar 0
AnchorPoint: "Anchor-15" 0 0 basechar 0
AnchorPoint: "Anchor-14" 308 0 basechar 0
LayerCount: 2
Fore
SplineSet
509 473.5 m 128,-1,1
 560 399 560 399 560 265 c 0,2,3
 560 183 560 183 534.5 119 c 128,-1,4
 509 55 509 55 461.5 19 c 128,-1,5
 414 -17 414 -17 349 -17 c 0,6,7
 306 -17 306 -17 270.5 1 c 128,-1,8
 235 19 235 19 210 51 c 1,9,-1
 202 0 l 1,10,-1
 62 0 l 1,11,-1
 62 742 l 1,12,-1
 220 759 l 1,13,-1
 220 477 l 1,14,15
 244 510 244 510 281.5 529 c 128,-1,16
 319 548 319 548 363 548 c 0,17,0
 458 548 458 548 509 473.5 c 128,-1,1
396 265 m 0,19,20
 396 360 396 360 374 396 c 128,-1,21
 352 432 352 432 310 432 c 0,22,23
 257 432 257 432 220 370 c 1,24,-1
 220 149 l 1,25,26
 235 125 235 125 256.5 111.5 c 128,-1,27
 278 98 278 98 303 98 c 0,28,18
 396 98 396 98 396 265 c 0,19,20
EndSplineSet
Substitution2: "'smcp' Lowercase to Small Capitals lookup 27 subtable" b.sc
Substitution2: "'aalt' Access All Alternates lookup 0 subtable" b.sc
EndChar

StartChar: uni0253
Encoding: 595 595 381
Width: 597
GlyphClass: 2
Flags: W
AnchorPoint: "Anchor-18" 0 0 basechar 0
AnchorPoint: "Anchor-17" 0 0 basechar 0
AnchorPoint: "Anchor-16" 299 742 basechar 0
AnchorPoint: "Anchor-15" 0 0 basechar 0
AnchorPoint: "Anchor-14" 299 0 basechar 0
LayerCount: 2
Fore
SplineSet
508.5 474 m 128,-1,1
 560 400 560 400 560 265 c 0,2,3
 560 183 560 183 534.5 119 c 128,-1,4
 509 55 509 55 461.5 19 c 128,-1,5
 414 -17 414 -17 349 -17 c 0,6,7
 306 -17 306 -17 270.5 1 c 128,-1,8
 235 19 235 19 210 51 c 1,9,-1
 202 0 l 1,10,-1
 62 0 l 1,11,-1
 62 578 l 2,12,13
 62 658 62 658 114.5 708.5 c 128,-1,14
 167 759 167 759 265 759 c 0,15,16
 344 759 344 759 410 725 c 1,17,-1
 367 624 l 1,18,19
 325 642 325 642 284 642 c 0,20,21
 250 642 250 642 235 626 c 128,-1,22
 220 610 220 610 220 572 c 2,23,-1
 220 477 l 1,24,25
 244 510 244 510 281.5 529 c 128,-1,26
 319 548 319 548 360 548 c 0,27,0
 457 548 457 548 508.5 474 c 128,-1,1
396 265 m 0,29,30
 396 359 396 359 374 395.5 c 128,-1,31
 352 432 352 432 311 432 c 0,32,33
 257 432 257 432 220 370 c 1,34,-1
 220 149 l 1,35,36
 235 125 235 125 257 111.5 c 128,-1,37
 279 98 279 98 304 98 c 0,38,28
 396 98 396 98 396 265 c 0,29,30
EndSplineSet
Substitution2: "'smcp' Lowercase to Small Capitals lookup 27 subtable" uni0253.sc
Substitution2: "'aalt' Access All Alternates lookup 0 subtable" uni0253.sc
EndChar

StartChar: uni02AD
Encoding: 685 685 382
Width: 365
GlyphClass: 2
Flags: W
AnchorPoint: "Anchor-18" 0 0 basechar 0
AnchorPoint: "Anchor-17" 0 0 basechar 0
AnchorPoint: "Anchor-16" 0 0 basechar 0
AnchorPoint: "Anchor-15" 0 0 basechar 0
AnchorPoint: "Anchor-14" 186 148 basechar 0
LayerCount: 2
Fore
SplineSet
30 399 m 1,0,-1
 30 564 l 1,1,-1
 335 564 l 1,2,-1
 335 399 l 1,3,-1
 241 399 l 1,4,-1
 241 483 l 1,5,-1
 124 483 l 1,6,-1
 124 399 l 1,7,-1
 30 399 l 1,0,-1
30 -1 m 1,8,-1
 30 164 l 1,9,-1
 335 164 l 1,10,-1
 335 -1 l 1,11,-1
 241 -1 l 1,12,-1
 241 83 l 1,13,-1
 124 83 l 1,14,-1
 124 -1 l 1,15,-1
 30 -1 l 1,8,-1
EndSplineSet
EndChar

StartChar: uni0298
Encoding: 664 664 383
Width: 798
GlyphClass: 2
Flags: W
AnchorPoint: "Anchor-18" 0 0 basechar 0
AnchorPoint: "Anchor-17" 0 0 basechar 0
AnchorPoint: "Anchor-16" 399 693 basechar 0
AnchorPoint: "Anchor-15" 0 0 basechar 0
AnchorPoint: "Anchor-14" 399 0 basechar 0
LayerCount: 2
Fore
SplineSet
589.5 666 m 128,-1,1
 672 622 672 622 718 539.5 c 128,-1,2
 764 457 764 457 764 347 c 0,3,4
 764 240 764 240 718 157.5 c 128,-1,5
 672 75 672 75 589 29 c 128,-1,6
 506 -17 506 -17 399 -17 c 0,7,8
 291 -17 291 -17 208 27.5 c 128,-1,9
 125 72 125 72 79 154.5 c 128,-1,10
 33 237 33 237 33 347 c 0,11,12
 33 453 33 453 79 535.5 c 128,-1,13
 125 618 125 618 208.5 664 c 128,-1,14
 292 710 292 710 399 710 c 0,15,0
 507 710 507 710 589.5 666 c 128,-1,1
243.5 537.5 m 128,-1,17
 188 475 188 475 188 347 c 0,18,19
 188 218 188 218 243.5 155.5 c 128,-1,20
 299 93 299 93 399 93 c 0,21,22
 500 93 500 93 555 155.5 c 128,-1,23
 610 218 610 218 610 347 c 0,24,25
 610 474 610 474 553 537 c 128,-1,26
 496 600 496 600 399 600 c 0,27,16
 299 600 299 600 243.5 537.5 c 128,-1,17
460 403.5 m 128,-1,29
 483 381 483 381 483 347 c 0,30,31
 483 314 483 314 460 291 c 128,-1,32
 437 268 437 268 401 268 c 256,33,34
 365 268 365 268 342 291 c 128,-1,35
 319 314 319 314 319 347 c 0,36,37
 319 381 319 381 342 403.5 c 128,-1,38
 365 426 365 426 401 426 c 256,39,28
 437 426 437 426 460 403.5 c 128,-1,29
EndSplineSet
EndChar

StartChar: uni0180
Encoding: 384 384 385
Width: 606
GlyphClass: 2
Flags: W
AnchorPoint: "Anchor-18" 0 0 basechar 0
AnchorPoint: "Anchor-17" 0 0 basechar 0
AnchorPoint: "Anchor-16" 327 742 basechar 0
AnchorPoint: "Anchor-15" 0 0 basechar 0
AnchorPoint: "Anchor-14" 316 0 basechar 0
LayerCount: 2
Fore
SplineSet
517 473.5 m 128,-1,1
 568 399 568 399 568 265 c 0,2,3
 568 183 568 183 542.5 119 c 128,-1,4
 517 55 517 55 469.5 19 c 128,-1,5
 422 -17 422 -17 357 -17 c 0,6,7
 314 -17 314 -17 278.5 1 c 128,-1,8
 243 19 243 19 218 51 c 1,9,-1
 210 0 l 1,10,-1
 70 0 l 1,11,-1
 70 596 l 1,12,-1
 8 596 l 1,13,-1
 8 688 l 1,14,-1
 70 688 l 1,15,-1
 70 742 l 1,16,-1
 228 759 l 1,17,-1
 228 688 l 1,18,-1
 360 688 l 1,19,-1
 360 596 l 1,20,-1
 228 596 l 1,21,-1
 228 477 l 1,22,23
 252 510 252 510 289.5 529 c 128,-1,24
 327 548 327 548 371 548 c 0,25,0
 466 548 466 548 517 473.5 c 128,-1,1
404 265 m 0,27,28
 404 360 404 360 382 396 c 128,-1,29
 360 432 360 432 318 432 c 0,30,31
 265 432 265 432 228 370 c 1,32,-1
 228 149 l 1,33,34
 243 125 243 125 264.5 111.5 c 128,-1,35
 286 98 286 98 311 98 c 0,36,26
 404 98 404 98 404 265 c 0,27,28
EndSplineSet
Substitution2: "'smcp' Lowercase to Small Capitals lookup 27 subtable" uni0180.sc
Substitution2: "'aalt' Access All Alternates lookup 0 subtable" uni0180.sc
EndChar

StartChar: uni0183
Encoding: 387 387 386
Width: 597
GlyphClass: 2
Flags: W
AnchorPoint: "Anchor-18" 0 0 basechar 0
AnchorPoint: "Anchor-17" 0 0 basechar 0
AnchorPoint: "Anchor-16" 299 742 basechar 0
AnchorPoint: "Anchor-15" 0 0 basechar 0
AnchorPoint: "Anchor-14" 299 0 basechar 0
LayerCount: 2
Fore
SplineSet
508.5 463 m 128,-1,1
 560 390 560 390 560 259 c 0,2,3
 560 180 560 180 534.5 117 c 128,-1,4
 509 54 509 54 461.5 18.5 c 128,-1,5
 414 -17 414 -17 349 -17 c 0,6,7
 306 -17 306 -17 270.5 1 c 128,-1,8
 235 19 235 19 210 51 c 1,9,-1
 202 0 l 1,10,-1
 62 0 l 1,11,-1
 62 742 l 1,12,-1
 438 742 l 1,13,-1
 421 629 l 1,14,-1
 220 629 l 1,15,-1
 220 465 l 1,16,17
 244 497 244 497 282 516.5 c 128,-1,18
 320 536 320 536 360 536 c 0,19,0
 457 536 457 536 508.5 463 c 128,-1,1
396 259 m 0,21,22
 396 349 396 349 374 384.5 c 128,-1,23
 352 420 352 420 311 420 c 0,24,25
 257 420 257 420 220 358 c 1,26,-1
 220 149 l 1,27,28
 235 125 235 125 257 111.5 c 128,-1,29
 279 98 279 98 304 98 c 0,30,20
 396 98 396 98 396 259 c 0,21,22
EndSplineSet
Substitution2: "'smcp' Lowercase to Small Capitals lookup 27 subtable" uni0183.sc
Substitution2: "'aalt' Access All Alternates lookup 0 subtable" uni0183.sc
EndChar

StartChar: c
Encoding: 99 99 387
Width: 479
GlyphClass: 2
Flags: W
AnchorPoint: "Anchor-18" 0 0 basechar 0
AnchorPoint: "Anchor-17" 0 0 basechar 0
AnchorPoint: "Anchor-16" 291 531 basechar 0
AnchorPoint: "Anchor-15" 0 0 basechar 0
AnchorPoint: "Anchor-14" 280 0 basechar 0
LayerCount: 2
Fore
SplineSet
391 532 m 128,-1,1
 435 516 435 516 474 483 c 1,2,-1
 406 389 l 1,3,4
 356 427 356 427 305 427 c 0,5,6
 252 427 252 427 225 388 c 128,-1,7
 198 349 198 349 198 262 c 0,8,9
 198 178 198 178 225 143 c 128,-1,10
 252 108 252 108 303 108 c 0,11,12
 330 108 330 108 352 116.5 c 128,-1,13
 374 125 374 125 405 144 c 1,14,-1
 474 46 l 1,15,16
 395 -17 395 -17 295 -17 c 0,17,18
 214 -17 214 -17 155 17.5 c 128,-1,19
 96 52 96 52 64 114.5 c 128,-1,20
 32 177 32 177 32 261 c 256,21,22
 32 345 32 345 64 410 c 128,-1,23
 96 475 96 475 155 511.5 c 128,-1,24
 214 548 214 548 292 548 c 0,25,0
 347 548 347 548 391 532 c 128,-1,1
EndSplineSet
Substitution2: "'smcp' Lowercase to Small Capitals lookup 27 subtable" c.sc
Substitution2: "'aalt' Access All Alternates lookup 0 subtable" c.sc
EndChar

StartChar: ccedilla
Encoding: 231 231 391
Width: 479
GlyphClass: 2
Flags: W
AnchorPoint: "Anchor-18" 0 0 basechar 0
AnchorPoint: "Anchor-17" 0 0 basechar 0
AnchorPoint: "Anchor-16" 291 531 basechar 0
AnchorPoint: "Anchor-15" 0 0 basechar 0
AnchorPoint: "Anchor-14" 299 -262 basechar 0
LayerCount: 2
Fore
SplineSet
323 -16 m 1,1,-1
 323 -48 l 1,2,3
 376 -54 376 -54 401.5 -79.5 c 128,-1,4
 427 -105 427 -105 427 -147 c 0,5,6
 427 -198 427 -198 386.5 -230 c 128,-1,7
 346 -262 346 -262 278 -262 c 0,8,9
 244 -262 244 -262 215 -253.5 c 128,-1,10
 186 -245 186 -245 166 -232 c 1,11,-1
 202 -159 l 1,12,13
 236 -176 236 -176 266 -176 c 0,14,15
 313 -176 313 -176 313 -146 c 0,16,17
 313 -128 313 -128 291 -120 c 128,-1,18
 269 -112 269 -112 221 -112 c 1,19,-1
 233 -11 l 1,20,21
 139 8 139 8 85.5 80 c 128,-1,22
 32 152 32 152 32 261 c 0,23,24
 32 345 32 345 64 410 c 128,-1,25
 96 475 96 475 155 511.5 c 128,-1,26
 214 548 214 548 292 548 c 0,27,28
 347 548 347 548 391 532 c 128,-1,29
 435 516 435 516 474 483 c 1,30,-1
 406 389 l 1,31,32
 356 427 356 427 305 427 c 0,33,34
 252 427 252 427 225 388 c 128,-1,35
 198 349 198 349 198 262 c 0,36,37
 198 178 198 178 225 143 c 128,-1,38
 252 108 252 108 303 108 c 0,39,40
 330 108 330 108 352 116.5 c 128,-1,41
 374 125 374 125 405 144 c 1,42,-1
 474 46 l 1,43,0
 406 -8 406 -8 323 -16 c 1,1,-1
EndSplineSet
Substitution2: "'smcp' Lowercase to Small Capitals lookup 27 subtable" ccedilla.sc
Substitution2: "'aalt' Access All Alternates lookup 0 subtable" ccedilla.sc
EndChar

StartChar: uni0255
Encoding: 597 597 393
Width: 501
GlyphClass: 2
Flags: W
AnchorPoint: "Anchor-18" 0 0 basechar 0
AnchorPoint: "Anchor-17" 0 0 basechar 0
AnchorPoint: "Anchor-16" 291 531 basechar 0
AnchorPoint: "Anchor-15" 0 0 basechar 0
AnchorPoint: "Anchor-14" 291 -39 basechar 0
LayerCount: 2
Fore
SplineSet
459 223 m 128,-1,1
 495 191 495 191 495 135 c 0,2,3
 495 61 495 61 441 22 c 128,-1,4
 387 -17 387 -17 304 -17 c 0,5,6
 267 -17 267 -17 234 -10 c 1,7,-1
 200 -84 l 1,8,-1
 123 -54 l 1,9,-1
 157 19 l 1,10,11
 97 51 97 51 64.5 114 c 128,-1,12
 32 177 32 177 32 261 c 256,13,14
 32 345 32 345 64 410 c 128,-1,15
 96 475 96 475 155 511.5 c 128,-1,16
 214 548 214 548 292 548 c 0,17,18
 347 548 347 548 391 532 c 128,-1,19
 435 516 435 516 474 483 c 1,20,-1
 405 388 l 1,21,22
 357 427 357 427 305 427 c 0,23,24
 252 427 252 427 225 388 c 128,-1,25
 198 349 198 349 198 262 c 0,26,27
 198 190 198 190 219 148 c 1,28,29
 244 205 244 205 279 230 c 128,-1,30
 314 255 314 255 367 255 c 0,31,0
 423 255 423 255 459 223 c 128,-1,1
384 139 m 0,33,34
 384 169 384 169 353 169 c 0,35,36
 332 169 332 169 316 154 c 128,-1,37
 300 139 300 139 283 102 c 1,38,39
 305 97 305 97 324 97 c 0,40,32
 384 97 384 97 384 139 c 0,33,34
EndSplineSet
EndChar

StartChar: uni0188
Encoding: 392 392 395
Width: 479
GlyphClass: 2
Flags: W
AnchorPoint: "Anchor-18" 0 0 basechar 0
AnchorPoint: "Anchor-17" 0 0 basechar 0
AnchorPoint: "Anchor-16" 239 742 basechar 0
AnchorPoint: "Anchor-15" 0 0 basechar 0
AnchorPoint: "Anchor-14" 239 0 basechar 0
LayerCount: 2
Fore
SplineSet
639 721 m 1,1,-1
 593 623 l 1,2,3
 574 633 574 633 558.5 637.5 c 128,-1,4
 543 642 543 642 525 642 c 0,5,6
 499 642 499 642 486.5 627.5 c 128,-1,7
 474 613 474 613 474 581 c 2,8,-1
 474 483 l 1,9,-1
 415 401 l 1,10,11
 365 427 365 427 307 427 c 0,12,13
 253 427 253 427 225.5 388 c 128,-1,14
 198 349 198 349 198 262 c 0,15,16
 198 178 198 178 225 143 c 128,-1,17
 252 108 252 108 303 108 c 0,18,19
 330 108 330 108 352 116.5 c 128,-1,20
 374 125 374 125 405 144 c 1,21,-1
 474 46 l 1,22,23
 395 -17 395 -17 295 -17 c 0,24,25
 214 -17 214 -17 155 17.5 c 128,-1,26
 96 52 96 52 64 114.5 c 128,-1,27
 32 177 32 177 32 261 c 0,28,29
 32 344 32 344 63 409.5 c 128,-1,30
 94 475 94 475 149 511.5 c 128,-1,31
 204 548 204 548 273 548 c 0,32,33
 307 548 307 548 334 539 c 1,34,-1
 334 588 l 2,35,36
 334 670 334 670 377 714.5 c 128,-1,37
 420 759 420 759 504 759 c 0,38,0
 580 759 580 759 639 721 c 1,1,-1
EndSplineSet
Substitution2: "'smcp' Lowercase to Small Capitals lookup 27 subtable" uni0188.sc
Substitution2: "'aalt' Access All Alternates lookup 0 subtable" uni0188.sc
EndChar

StartChar: uni0297
Encoding: 663 663 396
Width: 488
GlyphClass: 2
Flags: W
AnchorPoint: "Anchor-18" 0 0 basechar 0
AnchorPoint: "Anchor-17" 0 0 basechar 0
AnchorPoint: "Anchor-16" 313 531 basechar 0
AnchorPoint: "Anchor-15" 0 0 basechar 0
AnchorPoint: "Anchor-14" 312 -210 basechar 0
LayerCount: 2
Fore
SplineSet
483 483 m 1,1,-1
 418 392 l 1,2,3
 392 410 392 410 369.5 418.5 c 128,-1,4
 347 427 347 427 322 427 c 0,5,6
 265 427 265 427 236 364.5 c 128,-1,7
 207 302 207 302 207 160 c 0,8,9
 207 21 207 21 235 -37.5 c 128,-1,10
 263 -96 263 -96 317 -96 c 0,11,12
 343 -96 343 -96 364.5 -87.5 c 128,-1,13
 386 -79 386 -79 414 -60 c 1,14,-1
 483 -158 l 1,15,16
 405 -221 405 -221 312 -221 c 0,17,18
 182 -221 182 -221 112 -122 c 128,-1,19
 42 -23 42 -23 42 160 c 0,20,21
 42 281 42 281 74 368.5 c 128,-1,22
 106 456 106 456 167.5 502 c 128,-1,23
 229 548 229 548 314 548 c 0,24,0
 412 548 412 548 483 483 c 1,1,-1
EndSplineSet
EndChar

StartChar: uni023C
Encoding: 572 572 397
Width: 479
GlyphClass: 2
Flags: W
AnchorPoint: "Anchor-18" 0 0 basechar 0
AnchorPoint: "Anchor-17" 0 0 basechar 0
AnchorPoint: "Anchor-16" 291 531 basechar 0
AnchorPoint: "Anchor-15" 0 0 basechar 0
AnchorPoint: "Anchor-14" 280 0 basechar 0
LayerCount: 2
Fore
SplineSet
352 116.5 m 128,-1,1
 374 125 374 125 405 144 c 1,2,-1
 474 46 l 1,3,4
 395 -17 395 -17 295 -17 c 0,5,6
 270 -17 270 -17 247 -14 c 1,7,-1
 231 -74 l 1,8,-1
 175 -61 l 1,9,-1
 191 0 l 1,10,11
 116 29 116 29 74 97 c 128,-1,12
 32 165 32 165 32 261 c 0,13,14
 32 345 32 345 64 410 c 128,-1,15
 96 475 96 475 155 511.5 c 128,-1,16
 214 548 214 548 292 548 c 0,17,18
 316 548 316 548 337 545 c 1,19,-1
 352 601 l 1,20,-1
 407 587 l 1,21,-1
 392 531 l 1,22,23
 433 517 433 517 474 483 c 1,24,-1
 406 389 l 1,25,26
 388 403 388 403 361 416 c 1,27,-1
 280 110 l 1,28,29
 294 108 294 108 303 108 c 0,30,0
 330 108 330 108 352 116.5 c 128,-1,1
228 139 m 1,32,-1
 305 427 l 1,33,34
 252 427 252 427 225 388 c 128,-1,35
 198 349 198 349 198 262 c 256,36,31
 198 175 198 175 228 139 c 1,32,-1
EndSplineSet
Substitution2: "'smcp' Lowercase to Small Capitals lookup 27 subtable" uni023C.sc
Substitution2: "'aalt' Access All Alternates lookup 0 subtable" uni023C.sc
EndChar

StartChar: d
Encoding: 100 100 398
Width: 600
GlyphClass: 2
Flags: W
AnchorPoint: "Anchor-18" 302 266 basechar 0
AnchorPoint: "Anchor-17" 548 742 basechar 0
AnchorPoint: "Anchor-16" 298 742 basechar 0
AnchorPoint: "Anchor-15" 0 0 basechar 0
AnchorPoint: "Anchor-14" 308 0 basechar 0
LayerCount: 2
Fore
SplineSet
538 742 m 1,0,-1
 538 0 l 1,1,-1
 398 0 l 1,2,-1
 390 62 l 1,3,4
 334 -17 334 -17 239 -17 c 0,5,6
 140 -17 140 -17 88.5 59 c 128,-1,7
 37 135 37 135 37 267 c 0,8,9
 37 348 37 348 64 412 c 128,-1,10
 91 476 91 476 140.5 512 c 128,-1,11
 190 548 190 548 254 548 c 0,12,13
 330 548 330 548 380 498 c 1,14,-1
 380 759 l 1,15,-1
 538 742 l 1,0,-1
380 159 m 1,17,-1
 380 388 l 1,18,19
 361 411 361 411 341.5 422 c 128,-1,20
 322 433 322 433 297 433 c 0,21,22
 253 433 253 433 227 392 c 128,-1,23
 201 351 201 351 201 266 c 0,24,25
 201 173 201 173 223.5 136 c 128,-1,26
 246 99 246 99 288 99 c 0,27,16
 343 99 343 99 380 159 c 1,17,-1
EndSplineSet
Substitution2: "'smcp' Lowercase to Small Capitals lookup 27 subtable" d.sc
Substitution2: "'aalt' Access All Alternates lookup 0 subtable" d.sc
EndChar

StartChar: eth
Encoding: 240 240 399
Width: 579
GlyphClass: 2
Flags: W
AnchorPoint: "Anchor-18" 0 0 basechar 0
AnchorPoint: "Anchor-17" 0 0 basechar 0
AnchorPoint: "Anchor-16" 307 742 basechar 0
AnchorPoint: "Anchor-15" 0 0 basechar 0
AnchorPoint: "Anchor-14" 284 0 basechar 0
LayerCount: 2
Fore
SplineSet
499 504 m 128,-1,1
 542 408 542 408 542 277 c 0,2,3
 542 194 542 194 511 127 c 128,-1,4
 480 60 480 60 421.5 21.5 c 128,-1,5
 363 -17 363 -17 283 -17 c 0,6,7
 211 -17 211 -17 154 13 c 128,-1,8
 97 43 97 43 64.5 99.5 c 128,-1,9
 32 156 32 156 32 234 c 0,10,11
 32 301 32 301 59 357.5 c 128,-1,12
 86 414 86 414 133.5 446.5 c 128,-1,13
 181 479 181 479 240 479 c 0,14,15
 319 479 319 479 372 432 c 1,16,17
 358 479 358 479 334.5 514.5 c 128,-1,18
 311 550 311 550 270 582 c 1,19,-1
 215 527 l 1,20,-1
 116 573 l 1,21,-1
 173 632 l 1,22,23
 125 647 125 647 81 654 c 1,24,-1
 113 758 l 1,25,26
 193 744 193 744 259 720 c 1,27,-1
 332 798 l 1,28,-1
 412 727 l 1,29,-1
 357 670 l 1,30,0
 456 600 456 600 499 504 c 128,-1,1
357.5 137 m 128,-1,32
 381 176 381 176 381 256 c 2,33,-1
 380 327 l 1,34,35
 341 369 341 369 283 369 c 0,36,37
 193 369 193 369 193 237 c 0,38,39
 193 166 193 166 217 132 c 128,-1,40
 241 98 241 98 285 98 c 0,41,31
 334 98 334 98 357.5 137 c 128,-1,32
EndSplineSet
Substitution2: "'smcp' Lowercase to Small Capitals lookup 27 subtable" eth.sc
Substitution2: "'aalt' Access All Alternates lookup 0 subtable" eth.sc
EndChar

StartChar: uni0238
Encoding: 568 568 400
Width: 875
GlyphClass: 2
Flags: W
AnchorPoint: "Anchor-18" 0 0 basechar 0
AnchorPoint: "Anchor-17" 0 0 basechar 0
AnchorPoint: "Anchor-16" 437 742 basechar 0
AnchorPoint: "Anchor-15" 0 0 basechar 0
AnchorPoint: "Anchor-14" 437 0 basechar 0
LayerCount: 2
Fore
SplineSet
789.5 473 m 128,-1,1
 838 398 838 398 838 265 c 0,2,3
 838 184 838 184 813 119.5 c 128,-1,4
 788 55 788 55 742.5 19 c 128,-1,5
 697 -17 697 -17 637 -17 c 0,6,7
 597 -17 597 -17 564 3 c 128,-1,8
 531 23 531 23 509 59 c 1,9,-1
 500 0 l 1,10,-1
 378 0 l 1,11,-1
 370 61 l 1,12,13
 345 26 345 26 309 4.5 c 128,-1,14
 273 -17 273 -17 229 -17 c 0,15,16
 137 -17 137 -17 87 59.5 c 128,-1,17
 37 136 37 136 37 267 c 0,18,19
 37 348 37 348 62.5 412 c 128,-1,20
 88 476 88 476 134 512 c 128,-1,21
 180 548 180 548 240 548 c 0,22,23
 274 548 274 548 305 532 c 128,-1,24
 336 516 336 516 360 484 c 1,25,-1
 360 742 l 1,26,-1
 518 759 l 1,27,-1
 518 476 l 1,28,29
 542 510 542 510 577 529 c 128,-1,30
 612 548 612 548 655 548 c 0,31,0
 741 548 741 548 789.5 473 c 128,-1,1
360 158 m 1,33,-1
 360 382 l 1,34,35
 326 433 326 433 283 433 c 0,36,37
 246 433 246 433 223.5 392 c 128,-1,38
 201 351 201 351 201 266 c 0,39,40
 201 99 201 99 279 99 c 0,41,32
 322 99 322 99 360 158 c 1,33,-1
651.5 138 m 128,-1,43
 674 178 674 178 674 265 c 0,44,45
 674 359 674 359 654 395.5 c 128,-1,46
 634 432 634 432 599 432 c 0,47,48
 555 432 555 432 518 376 c 1,49,-1
 518 157 l 1,50,51
 550 98 550 98 595 98 c 0,52,42
 629 98 629 98 651.5 138 c 128,-1,43
EndSplineSet
EndChar

StartChar: dcroat
Encoding: 273 273 403
Width: 608
GlyphClass: 2
Flags: W
AnchorPoint: "Anchor-18" 302 266 basechar 0
AnchorPoint: "Anchor-17" 548 742 basechar 0
AnchorPoint: "Anchor-16" 298 742 basechar 0
AnchorPoint: "Anchor-15" 0 0 basechar 0
AnchorPoint: "Anchor-14" 308 0 basechar 0
LayerCount: 2
Fore
SplineSet
600 688 m 1,0,-1
 600 596 l 1,1,-1
 538 596 l 1,2,-1
 538 0 l 1,3,-1
 398 0 l 1,4,-1
 390 62 l 1,5,6
 334 -17 334 -17 239 -17 c 0,7,8
 140 -17 140 -17 88.5 59 c 128,-1,9
 37 135 37 135 37 267 c 0,10,11
 37 348 37 348 64 412 c 128,-1,12
 91 476 91 476 140.5 512 c 128,-1,13
 190 548 190 548 254 548 c 0,14,15
 330 548 330 548 380 498 c 1,16,-1
 380 596 l 1,17,-1
 243 596 l 1,18,-1
 243 688 l 1,19,-1
 380 688 l 1,20,-1
 380 759 l 1,21,-1
 538 742 l 1,22,-1
 538 688 l 1,23,-1
 600 688 l 1,0,-1
380 159 m 1,25,-1
 380 388 l 1,26,27
 361 411 361 411 341.5 422 c 128,-1,28
 322 433 322 433 297 433 c 0,29,30
 253 433 253 433 227 392 c 128,-1,31
 201 351 201 351 201 266 c 0,32,33
 201 173 201 173 223.5 136 c 128,-1,34
 246 99 246 99 288 99 c 0,35,24
 343 99 343 99 380 159 c 1,25,-1
EndSplineSet
Substitution2: "'smcp' Lowercase to Small Capitals lookup 27 subtable" dcroat.sc
Substitution2: "'aalt' Access All Alternates lookup 0 subtable" dcroat.sc
EndChar

StartChar: uni0221
Encoding: 545 545 404
Width: 788
GlyphClass: 2
Flags: W
AnchorPoint: "Anchor-18" 0 0 basechar 0
AnchorPoint: "Anchor-17" 0 0 basechar 0
AnchorPoint: "Anchor-16" 394 742 basechar 0
AnchorPoint: "Anchor-15" 0 0 basechar 0
AnchorPoint: "Anchor-14" 394 -210 basechar 0
LayerCount: 2
Fore
SplineSet
761.5 214 m 128,-1,1
 796 183 796 183 796 131 c 0,2,3
 796 59 796 59 742.5 21 c 128,-1,4
 689 -17 689 -17 604 -17 c 0,5,6
 577 -17 577 -17 554 -13 c 1,7,-1
 523 -84 l 1,8,-1
 445 -54 l 1,9,-1
 476 12 l 1,10,11
 428 38 428 38 405 82 c 1,12,13
 343 -17 343 -17 239 -17 c 0,14,15
 140 -17 140 -17 88.5 59 c 128,-1,16
 37 135 37 135 37 267 c 0,17,18
 37 349 37 349 63.5 412.5 c 128,-1,19
 90 476 90 476 140 512 c 128,-1,20
 190 548 190 548 257 548 c 0,21,22
 293 548 293 548 324.5 535 c 128,-1,23
 356 522 356 522 380 498 c 1,24,-1
 380 759 l 1,25,-1
 538 742 l 1,26,-1
 538 190 l 2,27,28
 538 162 538 162 542 147 c 1,29,30
 566 199 566 199 597 222 c 128,-1,31
 628 245 628 245 675 245 c 0,32,0
 727 245 727 245 761.5 214 c 128,-1,1
339.5 114.5 m 128,-1,34
 362 130 362 130 382 161 c 1,35,36
 380 183 380 183 380 194 c 2,37,-1
 380 388 l 1,38,39
 361 411 361 411 342 422 c 128,-1,40
 323 433 323 433 298 433 c 0,41,42
 253 433 253 433 227 392.5 c 128,-1,43
 201 352 201 352 201 266 c 0,44,45
 201 173 201 173 223.5 136 c 128,-1,46
 246 99 246 99 289 99 c 0,47,33
 317 99 317 99 339.5 114.5 c 128,-1,34
686 133 m 0,49,50
 686 146 686 146 679 153 c 128,-1,51
 672 160 672 160 659 160 c 0,52,53
 642 160 642 160 630.5 147 c 128,-1,54
 619 134 619 134 603 98 c 1,55,56
 610 97 610 97 627 97 c 0,57,48
 686 97 686 97 686 133 c 0,49,50
EndSplineSet
EndChar

StartChar: uni018D
Encoding: 397 397 407
Width: 577
GlyphClass: 2
Flags: W
AnchorPoint: "Anchor-18" 0 0 basechar 0
AnchorPoint: "Anchor-17" 0 0 basechar 0
AnchorPoint: "Anchor-16" 289 531 basechar 0
AnchorPoint: "Anchor-15" 0 0 basechar 0
AnchorPoint: "Anchor-14" 289 -210 basechar 0
LayerCount: 2
Fore
SplineSet
470.5 9 m 128,-1,1
 491 -24 491 -24 491 -68 c 0,2,3
 491 -135 491 -135 437 -179 c 128,-1,4
 383 -223 383 -223 277 -223 c 0,5,6
 165 -223 165 -223 86 -162 c 1,7,-1
 158 -78 l 1,8,9
 184 -96 184 -96 209.5 -104.5 c 128,-1,10
 235 -113 235 -113 266 -113 c 0,11,12
 304 -113 304 -113 322 -100 c 128,-1,13
 340 -87 340 -87 340 -65 c 0,14,15
 340 -48 340 -48 333 -36.5 c 128,-1,16
 326 -25 326 -25 304.5 -13 c 128,-1,17
 283 -1 283 -1 239 17 c 0,18,19
 130 62 130 62 81 122 c 128,-1,20
 32 182 32 182 32 283 c 0,21,22
 32 362 32 362 63.5 422 c 128,-1,23
 95 482 95 482 153 515 c 128,-1,24
 211 548 211 548 289 548 c 0,25,26
 408 548 408 548 476.5 479.5 c 128,-1,27
 545 411 545 411 545 290 c 0,28,29
 545 218 545 218 506 163.5 c 128,-1,30
 467 109 467 109 392 74 c 1,31,0
 450 42 450 42 470.5 9 c 128,-1,1
205 207 m 128,-1,33
 214 179 214 179 238 157.5 c 128,-1,34
 262 136 262 136 311 112 c 1,35,36
 350 145 350 145 366.5 185.5 c 128,-1,37
 383 226 383 226 383 284 c 0,38,39
 383 360 383 360 360 396 c 128,-1,40
 337 432 337 432 289 432 c 0,41,42
 243 432 243 432 219.5 395.5 c 128,-1,43
 196 359 196 359 196 283 c 0,44,32
 196 235 196 235 205 207 c 128,-1,33
EndSplineSet
EndChar

StartChar: uni02A4
Encoding: 676 676 408
Width: 1019
GlyphClass: 2
Flags: W
AnchorPoint: "Anchor-18" 302 266 basechar 0
AnchorPoint: "Anchor-17" 548 742 basechar 0
AnchorPoint: "Anchor-16" 575 742 basechar 0
AnchorPoint: "Anchor-15" 0 0 basechar 0
AnchorPoint: "Anchor-14" 733 -210 basechar 0
LayerCount: 2
Fore
SplineSet
946.5 155.5 m 128,-1,1
 1002 105 1002 105 1002 9 c 0,2,3
 1002 -57 1002 -57 969.5 -109.5 c 128,-1,4
 937 -162 937 -162 876.5 -192 c 128,-1,5
 816 -222 816 -222 733 -222 c 0,6,7
 583 -222 583 -222 498 -119 c 1,8,-1
 581 -39 l 1,9,10
 617 -72 617 -72 650 -86.5 c 128,-1,11
 683 -101 683 -101 724 -101 c 0,12,13
 778 -101 778 -101 808.5 -71 c 128,-1,14
 839 -41 839 -41 839 19 c 0,15,16
 839 73 839 73 808 96.5 c 128,-1,17
 777 120 777 120 713 120 c 2,18,-1
 621 120 l 1,19,-1
 621 212 l 1,20,-1
 792 413 l 1,21,-1
 538 413 l 1,22,-1
 538 0 l 1,23,-1
 398 0 l 1,24,-1
 390 62 l 1,25,26
 334 -17 334 -17 239 -17 c 0,27,28
 140 -17 140 -17 88.5 59 c 128,-1,29
 37 135 37 135 37 267 c 0,30,31
 37 348 37 348 64 412 c 128,-1,32
 91 476 91 476 140.5 512 c 128,-1,33
 190 548 190 548 254 548 c 0,34,35
 330 548 330 548 380 498 c 1,36,-1
 380 759 l 1,37,-1
 538 742 l 1,38,-1
 538 531 l 1,39,-1
 970 531 l 1,40,-1
 970 423 l 1,41,-1
 786 213 l 1,42,0
 891 206 891 206 946.5 155.5 c 128,-1,1
380 159 m 1,44,-1
 380 388 l 1,45,46
 361 411 361 411 341.5 422 c 128,-1,47
 322 433 322 433 297 433 c 0,48,49
 253 433 253 433 227 392 c 128,-1,50
 201 351 201 351 201 266 c 0,51,52
 201 173 201 173 223.5 136 c 128,-1,53
 246 99 246 99 288 99 c 0,54,43
 343 99 343 99 380 159 c 1,44,-1
EndSplineSet
EndChar

StartChar: uni0257
Encoding: 599 599 409
Width: 600
GlyphClass: 2
Flags: W
AnchorPoint: "Anchor-18" 0 0 basechar 0
AnchorPoint: "Anchor-17" 0 0 basechar 0
AnchorPoint: "Anchor-16" 314 742 basechar 0
AnchorPoint: "Anchor-15" 0 0 basechar 0
AnchorPoint: "Anchor-14" 300 0 basechar 0
LayerCount: 2
Fore
SplineSet
703 721 m 1,1,-1
 657 623 l 1,2,3
 638 633 638 633 623 637.5 c 128,-1,4
 608 642 608 642 590 642 c 0,5,6
 564 642 564 642 551 627.5 c 128,-1,7
 538 613 538 613 538 581 c 2,8,-1
 538 0 l 1,9,-1
 398 0 l 1,10,-1
 390 62 l 1,11,12
 334 -17 334 -17 239 -17 c 0,13,14
 140 -17 140 -17 88.5 59 c 128,-1,15
 37 135 37 135 37 267 c 0,16,17
 37 349 37 349 63.5 412.5 c 128,-1,18
 90 476 90 476 140 512 c 128,-1,19
 190 548 190 548 257 548 c 0,20,21
 293 548 293 548 324.5 535 c 128,-1,22
 356 522 356 522 380 498 c 1,23,-1
 380 576 l 2,24,25
 380 659 380 659 429 709 c 128,-1,26
 478 759 478 759 568 759 c 0,27,0
 644 759 644 759 703 721 c 1,1,-1
380 159 m 1,29,-1
 380 388 l 1,30,31
 361 411 361 411 342 422 c 128,-1,32
 323 433 323 433 298 433 c 0,33,34
 253 433 253 433 227 392.5 c 128,-1,35
 201 352 201 352 201 266 c 0,36,37
 201 173 201 173 223.5 136 c 128,-1,38
 246 99 246 99 289 99 c 0,39,28
 343 99 343 99 380 159 c 1,29,-1
EndSplineSet
Substitution2: "'smcp' Lowercase to Small Capitals lookup 27 subtable" uni0257.sc
Substitution2: "'aalt' Access All Alternates lookup 0 subtable" uni0257.sc
EndChar

StartChar: uni0256
Encoding: 598 598 411
Width: 600
GlyphClass: 2
Flags: W
AnchorPoint: "Anchor-18" 0 0 basechar 0
AnchorPoint: "Anchor-17" 0 0 basechar 0
AnchorPoint: "Anchor-16" 463 742 basechar 0
AnchorPoint: "Anchor-15" 0 0 basechar 0
AnchorPoint: "Anchor-14" 300 -210 basechar 0
LayerCount: 2
Fore
SplineSet
718 -179 m 1,0,1
 661 -222 661 -222 576 -222 c 0,2,3
 486 -222 486 -222 433 -173 c 128,-1,4
 380 -124 380 -124 380 -31 c 2,5,-1
 380 49 l 1,6,7
 326 -17 326 -17 239 -17 c 0,8,9
 140 -17 140 -17 88.5 59 c 128,-1,10
 37 135 37 135 37 267 c 0,11,12
 37 349 37 349 63.5 412.5 c 128,-1,13
 90 476 90 476 140 512 c 128,-1,14
 190 548 190 548 257 548 c 0,15,16
 293 548 293 548 324.5 535 c 128,-1,17
 356 522 356 522 380 498 c 1,18,-1
 380 759 l 1,19,-1
 538 742 l 1,20,-1
 538 -46 l 2,21,22
 538 -76 538 -76 553 -91.5 c 128,-1,23
 568 -107 568 -107 595 -107 c 0,24,25
 615 -107 615 -107 629 -102.5 c 128,-1,26
 643 -98 643 -98 665 -87 c 1,27,-1
 718 -179 l 1,0,1
380 159 m 1,29,-1
 380 388 l 1,30,31
 361 411 361 411 342 422 c 128,-1,32
 323 433 323 433 298 433 c 0,33,34
 253 433 253 433 227 392.5 c 128,-1,35
 201 352 201 352 201 266 c 0,36,37
 201 173 201 173 223.5 136 c 128,-1,38
 246 99 246 99 289 99 c 0,39,28
 343 99 343 99 380 159 c 1,29,-1
EndSplineSet
Substitution2: "'smcp' Lowercase to Small Capitals lookup 27 subtable" uni0256.sc
Substitution2: "'aalt' Access All Alternates lookup 0 subtable" uni0256.sc
EndChar

StartChar: uni018C
Encoding: 396 396 412
Width: 600
GlyphClass: 2
Flags: W
AnchorPoint: "Anchor-18" 0 0 basechar 0
AnchorPoint: "Anchor-17" 0 0 basechar 0
AnchorPoint: "Anchor-16" 300 742 basechar 0
AnchorPoint: "Anchor-15" 0 0 basechar 0
AnchorPoint: "Anchor-14" 300 0 basechar 0
LayerCount: 2
Fore
SplineSet
538 0 m 1,0,-1
 398 0 l 1,1,-1
 390 62 l 1,2,3
 334 -17 334 -17 239 -17 c 0,4,5
 140 -17 140 -17 88.5 57.5 c 128,-1,6
 37 132 37 132 37 260 c 0,7,8
 37 339 37 339 63.5 402 c 128,-1,9
 90 465 90 465 140 500.5 c 128,-1,10
 190 536 190 536 257 536 c 0,11,12
 293 536 293 536 324.5 522.5 c 128,-1,13
 356 509 356 509 380 485 c 1,14,-1
 380 629 l 1,15,-1
 171 629 l 1,16,-1
 171 742 l 1,17,-1
 538 742 l 1,18,-1
 538 0 l 1,0,-1
380 159 m 1,20,-1
 380 376 l 1,21,22
 361 399 361 399 342 410 c 128,-1,23
 323 421 323 421 298 421 c 0,24,25
 253 421 253 421 227 381 c 128,-1,26
 201 341 201 341 201 260 c 0,27,28
 201 171 201 171 224 135 c 128,-1,29
 247 99 247 99 289 99 c 0,30,19
 343 99 343 99 380 159 c 1,20,-1
EndSplineSet
Substitution2: "'smcp' Lowercase to Small Capitals lookup 27 subtable" uni018C.sc
Substitution2: "'aalt' Access All Alternates lookup 0 subtable" uni018C.sc
EndChar

StartChar: uni02A3
Encoding: 675 675 414
Width: 982
GlyphClass: 2
Flags: W
AnchorPoint: "Anchor-18" 302 266 basechar 0
AnchorPoint: "Anchor-17" 548 742 basechar 0
AnchorPoint: "Anchor-16" 491 742 basechar 0
AnchorPoint: "Anchor-15" 0 0 basechar 0
AnchorPoint: "Anchor-14" 491 0 basechar 0
LayerCount: 2
Fore
SplineSet
964 120 m 1,0,-1
 949 0 l 1,1,-1
 398 0 l 1,2,-1
 390 62 l 1,3,4
 334 -17 334 -17 239 -17 c 0,5,6
 140 -17 140 -17 88.5 59 c 128,-1,7
 37 135 37 135 37 267 c 0,8,9
 37 348 37 348 64 412 c 128,-1,10
 91 476 91 476 140.5 512 c 128,-1,11
 190 548 190 548 254 548 c 0,12,13
 330 548 330 548 380 498 c 1,14,-1
 380 759 l 1,15,-1
 538 742 l 1,16,-1
 538 531 l 1,17,-1
 959 531 l 1,18,-1
 959 420 l 1,19,-1
 710 120 l 1,20,-1
 964 120 l 1,0,-1
380 159 m 1,22,-1
 380 388 l 1,23,24
 361 411 361 411 341.5 422 c 128,-1,25
 322 433 322 433 297 433 c 0,26,27
 253 433 253 433 227 392 c 128,-1,28
 201 351 201 351 201 266 c 0,29,30
 201 173 201 173 223.5 136 c 128,-1,31
 246 99 246 99 288 99 c 0,32,21
 343 99 343 99 380 159 c 1,22,-1
538 412 m 1,33,-1
 538 113 l 1,34,-1
 785 412 l 1,35,-1
 538 412 l 1,33,-1
EndSplineSet
EndChar

StartChar: uni02A5
Encoding: 677 677 416
Width: 1066
GlyphClass: 2
Flags: W
AnchorPoint: "Anchor-18" 302 266 basechar 0
AnchorPoint: "Anchor-17" 548 742 basechar 0
AnchorPoint: "Anchor-16" 533 742 basechar 0
AnchorPoint: "Anchor-15" 0 0 basechar 0
AnchorPoint: "Anchor-14" 533 -210 basechar 0
LayerCount: 2
Fore
SplineSet
1048 234.5 m 128,-1,1
 1083 203 1083 203 1083 148 c 0,2,3
 1083 75 1083 75 1030.5 37 c 128,-1,4
 978 -1 978 -1 872 0 c 1,5,6
 867 -35 867 -35 867 -93 c 2,7,-1
 867 -128 l 1,8,-1
 776 -128 l 1,9,10
 776 -57 776 -57 782 0 c 1,11,-1
 398 0 l 1,12,-1
 390 62 l 1,13,14
 334 -17 334 -17 239 -17 c 0,15,16
 140 -17 140 -17 88.5 59 c 128,-1,17
 37 135 37 135 37 267 c 0,18,19
 37 348 37 348 64 412 c 128,-1,20
 91 476 91 476 140.5 512 c 128,-1,21
 190 548 190 548 254 548 c 0,22,23
 330 548 330 548 380 498 c 1,24,-1
 380 759 l 1,25,-1
 538 742 l 1,26,-1
 538 531 l 1,27,-1
 958 531 l 1,28,-1
 958 426 l 1,29,-1
 706 120 l 1,30,-1
 799 120 l 1,31,32
 819 197 819 197 859.5 231.5 c 128,-1,33
 900 266 900 266 959 266 c 0,34,0
 1013 266 1013 266 1048 234.5 c 128,-1,1
380 159 m 1,36,-1
 380 388 l 1,37,38
 361 411 361 411 341.5 422 c 128,-1,39
 322 433 322 433 297 433 c 0,40,41
 253 433 253 433 227 392 c 128,-1,42
 201 351 201 351 201 266 c 0,43,44
 201 173 201 173 223.5 136 c 128,-1,45
 246 99 246 99 288 99 c 0,46,35
 343 99 343 99 380 159 c 1,36,-1
538 412 m 1,47,-1
 538 116 l 1,48,-1
 783 412 l 1,49,-1
 538 412 l 1,47,-1
955.5 128 m 128,-1,51
 974 136 974 136 974 156 c 0,52,53
 974 183 974 183 946 183 c 0,54,55
 905 183 905 183 890 120 c 1,56,-1
 895 120 l 2,57,50
 937 120 937 120 955.5 128 c 128,-1,51
877 33 m 1,58,-1
 877 32 l 1,59,-1
 876 30 l 1,60,-1
 877 33 l 1,58,-1
EndSplineSet
EndChar

